<svg xmlns="http://www.w3.org/2000/svg" viewBox="0 0 80.7341309 62.7698517"><path fill="#BB2025" d="M37.25 5.895c-11.805 0-21.375 9.57-21.375 21.375s9.57 21.375 21.375 21.375 21.375-9.57 21.375-21.375S49.055 5.895 37.25 5.895zm0 39.25c-9.872 0-17.875-8.003-17.875-17.875S27.378 9.395 37.25 9.395s17.875 8.003 17.875 17.875-8.003 17.875-17.875 17.875z"/><path d="M30 19.895l4.625-17.5L43.5 21.27 76 11.395l-28.875 19.75L56.75 55.77 34.625 37.145 0 62.77l25.75-31.5L7.625 17.02z"/><linearGradient id="a" gradientUnits="userSpaceOnUse" x1="-.124" y1="55.26" x2="79.122" y2="9.507"><stop offset="0" stop-color="#c1852b"/><stop offset=".72" stop-color="#dfc124"/></linearGradient><linearGradient id="b" gradientUnits="userSpaceOnUse" x1="1.789" y1="31.248" x2="80.734" y2="31.248"><stop offset=".111" stop-color="#dfc124"/><stop offset="1" stop-color="#c1852b"/></linearGradient><path fill="url(#a)" stroke="url(#b)" stroke-width=".5" stroke-miterlimit="10" d="M33.25 18.228l4.625-17.5 8.875 18.875 32.5-9.875-28.875 19.75L60 54.103 37.875 35.478 3.25 61.103 29 29.603l-18.125-14.25z"/></svg>