<svg xmlns="http://www.w3.org/2000/svg" viewBox="0 0 56.6 46.6"><g fill="#FFF"><path d="M8.4 6.8h4.9c1.2 0 2.1-.9 2.1-2.1 0-1.2-.9-2.1-2.1-2.1H8.4c-1.2 0-2.1.9-2.1 2.1 0 1.2.9 2.1 2.1 2.1zm24.9 13.7c-4 0-7.3 3.3-7.3 7.3 0 .7.5 1.2 1.2 1.2s1.2-.5 1.2-1.2c0-2.7 2.2-4.8 4.8-4.8.7 0 1.2-.5 1.2-1.2.2-.8-.4-1.3-1.1-1.3zm9.4-15.4C41.8 2 40.9 0 35.8 0h-6.5c-5.1 0-5.9 2-6.8 5.1-.1.2-.2.5-.4.7H43c-.1-.2-.3-.4-.3-.7z"/><path d="M32.9 15.9c-6.3 0-11.4 5.1-11.4 11.4 0 6.3 5.1 11.4 11.4 11.4 6.3 0 11.4-5.1 11.4-11.4 0-6.3-5.1-11.4-11.4-11.4zm0 20.6c-5.1 0-9.2-4.1-9.2-9.2s4.1-9.2 9.2-9.2 9.2 4.1 9.2 9.2-4.1 9.2-9.2 9.2z"/><path d="M50.9 7.9H5.8C2.6 7.9 0 10.5 0 13.7V40c0 3.2 2.6 6.6 5.8 6.6h45c3.2 0 5.8-2.6 5.8-5.8v-27c0-3.3-2.5-5.9-5.7-5.9zm-37 8.7H7.7c-1 0-1.8-.8-1.8-1.8S6.7 13 7.7 13h6.2c1 0 1.8.8 1.8 1.8.1 1-.7 1.8-1.8 1.8zm19 24.7c-7.7 0-14-6.3-14-14s6.3-14 14-14 14 6.3 14 14-6.2 14-14 14zm17.2-24.1c-1.3 0-2.4-1.1-2.4-2.4 0-1.3 1.1-2.4 2.4-2.4 1.3 0 2.4 1.1 2.4 2.4 0 1.4-1.1 2.4-2.4 2.4z"/></g></svg>