<svg xmlns="http://www.w3.org/2000/svg" viewBox="0 0 178.625 62.7698517"><path d="M30 19.895l4.625-17.5L43.5 21.27 76 11.395l-28.875 19.75L56.75 55.77 34.625 37.145 0 62.77l25.75-31.5L7.625 17.02z"/><linearGradient id="a" gradientUnits="userSpaceOnUse" x1="-.124" y1="55.26" x2="79.122" y2="9.507"><stop offset="0" stop-color="#c1852b"/><stop offset=".72" stop-color="#dfc124"/></linearGradient><linearGradient id="b" gradientUnits="userSpaceOnUse" x1="1.789" y1="31.248" x2="80.734" y2="31.248"><stop offset=".111" stop-color="#dfc124"/><stop offset="1" stop-color="#c1852b"/></linearGradient><path fill="url(#a)" stroke="url(#b)" stroke-width=".5" stroke-miterlimit="10" d="M33.25 18.228l4.625-17.5 8.875 18.875 32.5-9.875-28.875 19.75L60 54.103 37.875 35.478 3.25 61.103 29 29.603l-18.125-14.25z"/><path d="M48.208 18.395h129.667v.333H48.208zm0 3.5h129.667v.333H48.208zm0 7h129.667v.333H48.208zm0-3.5h129.667v.333H48.208zm0 7h129.667v.333H48.208z" fill="#E1C222"/><path d="M33.215 20.09c.67-.384 1.234-.669 1.694-.853.46-.184.932-.313 1.417-.385s1.111-.107 1.882-.107c.917 0 1.737.137 2.461.411.725.274 1.291.657 1.699 1.15s.611 1.042.611 1.65c0 .495-.131.96-.396 1.394-.264.434-.647.813-1.147 1.136a5.8 5.8 0 0 1-1.746.734 17.556 17.556 0 0 0 1.846 3.642c.78 1.187 1.548 2.086 2.305 2.696l-.142.04c-.946.322-1.9.797-2.863 1.424l-.142.078-.04-.304a32.96 32.96 0 0 0-1.145-4.727c-.26-.787-.468-1.354-.621-1.703l-.04-.103c-.489.234-1.09.402-1.805.503l-.079.02v3.666l1.723 1.826h-5.05l-.162-.26h4.654l-1.404-1.502v-3.95l.18-.02c.767-.091 1.396-.24 1.885-.445l-.22-.558c-.487.137-.855.217-1.106.24l-1.283.162v4.37l1.107 1.16h-4.312l1.262-1.16v-3.289l-.35.076a1.793 1.793 0 0 0-.252.066 6.279 6.279 0 0 0-.24.086c-.081.03-.167.054-.259.07l-.083.02-.078-.2c.342-.125.563-.198.66-.22l.602-.138v-.523c-.391.016-.873.103-1.444.259l-.097.044c0-.026.003-.052.01-.078a.434.434 0 0 0 .01-.044c0-.033.06-.206.18-.52v.006c.01 0 .056-.15.137-.45 0-.027.007-.053.02-.079l.301.02c.063.004.123.007.179.012.055.005.124.007.205.007.065 0 .232-.013.5-.039l-.02-4.81a5.052 5.052 0 0 0-.92-.46l-.084-.04zm2.966-.244v5.276h.084c.094 0 .248-.021.46-.064v-4.81a5.251 5.251 0 0 1 1.282-.138c.679 0 1.22.097 1.622.292.403.194.724.51.962.951-.476-.39-.896-.66-1.26-.804-.364-.146-.805-.219-1.324-.219a4.4 4.4 0 0 0-1.043.118v4.61h.103c1.322-.24 2.287-.618 2.895-1.13.609-.512.913-1.204.913-2.075 0-.444-.131-.85-.394-1.216s-.62-.657-1.074-.87a3.487 3.487 0 0 0-1.498-.317c-.679 0-1.255.132-1.728.396zm4.733 5.878c.14.45.338.936.595 1.458.256.523.554 1.037.893 1.542s.685.955 1.037 1.346a9.807 9.807 0 0 0 2.125 1.748c-.826.221-1.558.47-2.195.746a14.97 14.97 0 0 0-2.015 1.08l-.078.058-.2-.162a14.334 14.334 0 0 1 3.988-1.806 9.335 9.335 0 0 1-1.815-1.539c-.5-.556-1.017-1.285-1.552-2.185a17.563 17.563 0 0 1-.582-1.084 21.649 21.649 0 0 1-.48-1.182l-.083-.162c.453-.176.807-.33 1.06-.462.252-.132.488-.293.707-.482.828-.666 1.243-1.534 1.243-2.604 0-.597-.261-1.272-.783-2.026.669.59 1.003 1.393 1.003 2.408 0 .681-.251 1.311-.754 1.889-.502.577-1.207 1.05-2.114 1.419zm15.436-.445c0 .995-.121 1.898-.367 2.709-.244.81-.599 1.502-1.064 2.072a4.627 4.627 0 0 1-1.681 1.308c-.656.3-1.388.45-2.197.45-1.094 0-2.07-.28-2.93-.84-.86-.56-1.53-1.341-2.009-2.344-.48-1.003-.72-2.141-.72-3.414 0-.998.131-1.91.392-2.736.261-.825.636-1.527 1.123-2.104a4.915 4.915 0 0 1 1.772-1.332c.693-.31 1.463-.465 2.308-.465.8 0 1.532.16 2.197.477.666.319 1.234.771 1.706 1.359s.834 1.292 1.089 2.114c.255.822.382 1.737.382 2.746zm-2.226-.28c0-1.715-.207-3.039-.622-3.968a2.75 2.75 0 0 0-1.032-1.15 2.753 2.753 0 0 0-1.493-.431c-2.271 0-3.407 1.997-3.407 5.99 0 3.69 1.116 5.536 3.348 5.536 1.123 0 1.964-.583 2.525-1.748.173-.388.308-.773.404-1.154s.167-.815.21-1.3A20.08 20.08 0 0 0 54.125 25zm.063-5.892c.646.313 1.204.776 1.672 1.387s.828 1.35 1.079 2.215.377 1.81.377 2.834c0 1.031-.144 1.976-.43 2.834a6.79 6.79 0 0 1-1.237 2.244 5.493 5.493 0 0 1-1.903 1.468 5.635 5.635 0 0 1-2.406.512c-1.129 0-2.206-.382-3.23-1.146v-.058c.842.6 1.892.9 3.152.9.832 0 1.6-.164 2.307-.492a5.396 5.396 0 0 0 1.843-1.407c.522-.61.922-1.33 1.202-2.158a8.406 8.406 0 0 0 .418-2.697c0-.985-.112-1.892-.335-2.719s-.548-1.546-.972-2.158a5 5 0 0 0-1.537-1.461v-.098zm-1.042 1.845c-.437-.251-.79-.42-1.06-.509a2.852 2.852 0 0 0-.888-.132c-1.775 0-2.662 1.744-2.662 5.232 0 2.522.546 4.2 1.64 5.032l-.08.097c-.463-.32-.831-.7-1.105-1.142-.275-.443-.472-.984-.595-1.625s-.184-1.442-.184-2.401c0-3.622.99-5.433 2.966-5.433.411 0 .792.077 1.143.23.35.154.626.37.825.651zm15.373-1.747l-.117.2a27.638 27.638 0 0 0-1.527 3.07l-.079.22-.122-.059c-.108-.666-.302-1.24-.582-1.726-.28-.484-.633-.856-1.057-1.115a2.642 2.642 0 0 0-1.405-.39c-.428 0-.849.123-1.263.368a2.802 2.802 0 0 0-.984.959 5.142 5.142 0 0 0-.489 1.133c-.127.42-.221.893-.282 1.422-.06.528-.09 1.127-.09 1.796 0 1.227.143 2.285.428 3.174s.702 1.568 1.248 2.036c.547.468 1.197.702 1.95.702.614 0 1.144-.134 1.591-.403.447-.27.804-.668 1.07-1.197.266-.528.435-1.172.506-1.928.023-.268.124-.402.304-.402.267 0 .401.214.401.641 0 .317-.053.694-.16 1.13a4.596 4.596 0 0 1-.383 1.078 3.13 3.13 0 0 1-.832 1.03 3.713 3.713 0 0 1-1.234.651c-.47.148-.99.223-1.56.223-.84 0-1.603-.153-2.291-.458a4.838 4.838 0 0 1-1.763-1.324c-.485-.578-.858-1.277-1.115-2.1s-.387-1.734-.387-2.735c0-1.234.237-2.356.71-3.368.473-1.011 1.124-1.806 1.953-2.383s1.745-.867 2.75-.867c.5 0 .88.03 1.143.088.263.06.717.21 1.363.456.486.186.874.279 1.165.279.359 0 .685-.093.979-.28l.161.079zm.343 8.423c-.049.78-.157 1.436-.325 1.968a4.287 4.287 0 0 1-.757 1.419 4.175 4.175 0 0 1-1.566 1.167 5.066 5.066 0 0 1-2.066.419c-1.08 0-2.087-.335-3.024-1.004v-.083c.848.548 1.85.822 3.005.822.698 0 1.346-.134 1.943-.401s1.093-.648 1.488-1.14a3.78 3.78 0 0 0 .695-1.253c.143-.447.245-1.052.304-1.816l.02-.22.283.122zm-3.186-6.715c-.356-.287-.648-.48-.876-.578a2.059 2.059 0 0 0-.813-.146 1.93 1.93 0 0 0-1.392.548c-.38.365-.668.91-.862 1.634-.194.725-.291 1.607-.291 2.648 0 .725.05 1.398.152 2.02s.25 1.172.445 1.654c.196.48.433.88.712 1.199a2.6 2.6 0 0 0 .957.702v.098a2.141 2.141 0 0 1-1.05-.575c-.308-.299-.575-.698-.803-1.2a7.33 7.33 0 0 1-.516-1.754 12.369 12.369 0 0 1-.176-2.144c0-1.644.239-2.9.717-3.768s1.167-1.302 2.068-1.302c.366 0 .67.06.915.181.245.12.516.341.813.66v.123zm3.548-1.224l-.103.181c-.727 1.247-1.295 2.356-1.703 3.329l-.26-.142.96-1.943.881-1.566.225.141zm.758-.782h4.572l-1.341 1.301v5.917l.518-.621V20.29l1.107-1.062.137.196-1.003.984V25.2L77 21.574c.44-.532.66-1 .66-1.405 0-.248-.122-.487-.368-.717a1.784 1.784 0 0 0-.894-.448v-.097h5.154v.097a3.934 3.934 0 0 0-.884.301c-.227.116-.54.33-.942.644a8.686 8.686 0 0 0-.869.731c-.204.205-.523.57-.957 1.094l-1.36 1.62 3.607 7.019 1.645 1.062h-5.07l1.281-.96-2.427-4.855-1.605 1.949v2.804l1.605 1.865h-5.012l-.26-.26h4.67l-1.244-1.502v-3.03l1.704-2.104-.22-.44-2.002 2.422v3.049l1.18 1.062h-4.489l1.341-1.14V20.07l-1.263-1.164zm12.07.9a3.196 3.196 0 0 0-1.456.438c-.449.263-.932.678-1.451 1.246l-1.704 1.903 3.451 7.019 2.785 1.865H77.44l-.278-.26h5.672l-2.085-1.424-3.587-7.2 1.82-2.04c.516-.578 1.002-1.001 1.459-1.27a3.531 3.531 0 0 1 1.493-.478l.117.201zm16.18-.778c-.362.496-.63.969-.802 1.42-.414 1.017-.682 1.62-.803 1.805-.007 0-.02.02-.04.059a1.656 1.656 0 0 0-.058-.157c-.231-.744-.43-1.242-.594-1.495s-.461-.503-.89-.752a2.73 2.73 0 0 0-1.442-.42c-.742 0-1.347.187-1.819.56s-.707.861-.707 1.461c0 .568.2 1.035.602 1.4s1.029.654 1.884.866l1.64.382c.822.2 1.47.452 1.945.759s.856.716 1.143 1.228c.294.503.44 1.083.44 1.743 0 .724-.184 1.376-.555 1.955-.37.58-.887 1.03-1.551 1.35s-1.419.483-2.264.483c-.685 0-1.46-.115-2.325-.343l-1.12-.279c-.507-.107-.874-.162-1.102-.162-.44 0-.87.128-1.287.382l-.078-.136c.326-.497.662-1.095 1.008-1.794s.577-1.266.694-1.696l.182.058c.088.676.3 1.257.639 1.743.338.486.786.856 1.345 1.108s1.208.38 1.947.38c.548 0 1.039-.089 1.472-.267.434-.178.772-.429 1.014-.754a1.81 1.81 0 0 0 .361-1.109c0-.991-.435-1.726-1.306-2.202a5.002 5.002 0 0 0-1.084-.467c-.387-.116-1.008-.254-1.863-.414-.858-.173-1.517-.39-1.98-.65a2.822 2.822 0 0 1-1.088-1.097 3.698 3.698 0 0 1-.44-1.782c0-1.05.375-1.894 1.126-2.533.75-.637 1.745-.956 2.985-.956.727 0 1.582.14 2.564.42.463.121.818.182 1.062.182.304 0 .651-.108 1.043-.323l.102.044zm0 6.25c.895.675 1.341 1.599 1.341 2.77 0 .813-.22 1.56-.663 2.241a4.652 4.652 0 0 1-1.81 1.616 5.409 5.409 0 0 1-2.519.592 8.948 8.948 0 0 1-1.903-.2l-1.562-.402a5.517 5.517 0 0 0-1.165-.117c-.372 0-.713.073-1.023.22l-.117-.304c.326-.147.674-.22 1.043-.22.362 0 .802.06 1.32.181l1.504.362a8.54 8.54 0 0 0 1.903.201c.836 0 1.617-.19 2.345-.568s1.304-.889 1.73-1.532a3.71 3.71 0 0 0 .639-2.09c0-1.044-.355-1.94-1.063-2.686v-.064zm-8.178-.357l.318.18c.131.229.324.407.58.534s.697.27 1.324.426l1.567.401c.766.19 1.327.35 1.683.48.356.13.621.277.797.438.177.161.319.378.427.649l-.084.039c-.283-.346-.593-.594-.927-.744-.335-.15-1-.343-2-.578-1.095-.257-1.876-.468-2.339-.631-.463-.164-.8-.354-1.008-.573a1.3 1.3 0 0 1-.338-.621zm1.199 3.166c.13.62.35 1.126.656 1.517s.738.721 1.292.99v.077c-.64-.189-1.132-.48-1.475-.873-.345-.393-.588-.944-.732-1.652l.259-.059zm4.733-6.695c-.721-.764-1.49-1.146-2.305-1.146-.496 0-.908.144-1.234.431s-.489.653-.489 1.096c0 .281.07.526.208.735s.397.458.775.749l.08.058-.04.059c-.872-.372-1.307-.927-1.307-1.664 0-.509.184-.924.554-1.243.368-.32.846-.48 1.433-.48.558 0 1.048.12 1.47.36.424.24.727.575.914 1.005l-.059.04zm2.869-1.968l-.104.162c-.202.33-.429.757-.68 1.282-.545 1.12-.819 1.68-.822 1.684l-.24-.098.861-1.762.725-1.385.26.117zm12.245-.518l-.784 1.423-.66 1.601-.097-.078-.02-.118c-.193-.75-.465-1.269-.815-1.556s-.889-.43-1.613-.43c-.176 0-.464.012-.861.038l-.123.02v10.606l1.145 1.062h-4.473l1.386-1.14V20.59h-.642c-.718 0-1.218.127-1.5.38-.282.252-.451.721-.507 1.406h-.259c.084-.786.288-1.323.612-1.612.323-.29.88-.434 1.674-.434h.622v-.484a9.72 9.72 0 0 0-.96-.059c-.565 0-1.022.075-1.37.223a1.5 1.5 0 0 0-.776.722c-.168.333-.262.773-.282 1.322h-.122c-.17-.565-.341-1.048-.514-1.45s-.435-.934-.788-1.6l-.059-.097H111.1zm-2.002 2.143c-.486-.32-1.069-.48-1.747-.48-.186 0-.346.007-.48.02l.04 9.842 1.546 1.846h-4.992l-.22-.26h4.67l-1.304-1.502V20.31h.54c.635 0 1.085.05 1.348.147.262.098.462.295.599.592zm2.624-1.522c-.268.336-.5.703-.698 1.101-.198.398-.44.987-.727 1.767l-.04.098-.219-.2.04-.079c.52-1.452 1.002-2.408 1.443-2.868l.2.181zm6.416-.621l-1 1.164 1.582 4.268.401-.22-1.443-3.852 1.022-1.2.26.099-.98 1.164 1.362 3.647.46-.382a2.83 2.83 0 0 0 .382-.337 6.81 6.81 0 0 0 .783 2.001 4.46 4.46 0 0 0-.421-.02c-.605 0-1.06.102-1.366.304l1.787 4.792 1.463 1.14h-4.934l1.346-1.14-1.086-2.849c-.695.702-1.248 1.39-1.66 2.066l-.225-.059c.396-.66.97-1.375 1.728-2.149l.079-.098-.182-.44a8.655 8.655 0 0 0-1.061 1.072c-.376.44-.67.838-.881 1.194l-.182-.304a26.551 26.551 0 0 0-1.302-1.845l-.083-.117c-.506 1.148-.758 2.083-.758 2.804 0 .379.068.7.205.967.137.266.476.74 1.018 1.422a.908.908 0 0 1 .088.105l.132.174h-5.295l-.201-.26h4.992l-.18-.22c-.425-.515-.705-.917-.84-1.204a2.339 2.339 0 0 1-.204-1.003c0-.653.275-1.655.823-3.005l-.44-.441a16.21 16.21 0 0 0-.32.92l-.321.984c-.173.532-.26.979-.26 1.341 0 .251.025.466.076.644.05.177.142.358.273.543.133.184.344.423.634.717.017.032.07.093.157.18h-4.89c.507-.263.916-.53 1.23-.797s.605-.595.875-.983a13.29 13.29 0 0 0 1.366-2.81c.029-.075.148-.455.357-1.14l.044-.123c-.343-.293-.838-.473-1.487-.538.375-.587.649-1.15.822-1.689l.601.583c.261.209.443.349.543.42l.182-.42-.122-.098a15.463 15.463 0 0 1-.421-.362 4.801 4.801 0 0 0-.401-.343l-.08-.058.163-.22c.358.24.684.508.978.802l1.346-3.67-1.042-1.121h4.508zm-2.864 2.025l-1.546 4.107c.578.603 1.004 1.106 1.282 1.507l.544.759.342-.42a10.52 10.52 0 0 0-1.585-1.905l1.243-3.308-.28-.74zm.44 1.122l-1.062 2.848.099.117.401.44c.235.275.51.644.823 1.107l.097.137c.232-.29.56-.638.984-1.043l-1.341-3.606zm5.33 1.664c.138.587.498 1.396 1.082 2.427a1.614 1.614 0 0 0-.259-.02c-.036-.012-.297-.04-.783-.083a39.79 39.79 0 0 0-.778-.039h-.2l1.619 4.332 2.188 1.943h-5.653l-.2-.26h5.192l-1.747-1.566-1.742-4.61c.202-.053.456-.078.763-.078s.641.019 1.003.058l.157.02a13.83 13.83 0 0 1-.631-1.28 6.433 6.433 0 0 1-.309-1.026l.299.182zm3.672-3.628c.669-.384 1.233-.669 1.693-.853.46-.184.933-.313 1.417-.385s1.113-.107 1.882-.107c.917 0 1.737.137 2.462.411.725.274 1.29.657 1.698 1.15s.612 1.042.612 1.65c0 .495-.132.96-.396 1.394-.265.434-.647.813-1.148 1.136a5.8 5.8 0 0 1-1.745.734 17.578 17.578 0 0 0 1.845 3.642c.78 1.187 1.548 2.086 2.306 2.696l-.143.04c-.946.322-1.9.797-2.863 1.424l-.142.078-.039-.304a32.96 32.96 0 0 0-1.145-4.727c-.261-.787-.468-1.354-.621-1.703l-.04-.103c-.49.234-1.091.402-1.806.503l-.078.02v3.666l1.723 1.826h-5.051l-.161-.26h4.654l-1.404-1.502v-3.95l.18-.02c.767-.091 1.395-.24 1.884-.445l-.22-.558c-.486.137-.854.217-1.106.24l-1.282.162v4.37l1.106 1.16h-4.312l1.263-1.16v-3.289l-.35.076a1.793 1.793 0 0 0-.252.066 5.976 5.976 0 0 0-.24.086c-.082.03-.168.054-.26.07l-.082.02-.08-.2c.343-.125.564-.198.662-.22l.602-.138v-.523c-.391.016-.873.103-1.444.259l-.098.044c0-.026.003-.052.01-.078a.319.319 0 0 0 .01-.044c0-.033.06-.206.18-.52v.006c.01 0 .056-.15.138-.45 0-.027.006-.053.02-.079l.3.02c.063.004.124.007.18.012s.123.007.204.007c.066 0 .233-.013.5-.039l-.02-4.81a4.99 4.99 0 0 0-.92-.46l-.083-.04zm2.966-.244v5.276h.083c.094 0 .248-.021.46-.064v-4.81a5.248 5.248 0 0 1 1.283-.138c.679 0 1.219.097 1.622.292.403.194.724.51.962.951-.477-.39-.897-.66-1.26-.804-.364-.146-.806-.219-1.324-.219-.376 0-.723.04-1.043.118v4.61h.102c1.323-.24 2.288-.618 2.896-1.13s.913-1.204.913-2.075c0-.444-.132-.85-.395-1.216s-.62-.657-1.074-.87a3.487 3.487 0 0 0-1.498-.317c-.679 0-1.254.132-1.727.396zm4.733 5.878c.14.45.338.936.595 1.458a13.214 13.214 0 0 0 1.93 2.888 9.792 9.792 0 0 0 2.124 1.748c-.826.221-1.557.47-2.195.746-.638.276-1.31.636-2.014 1.08l-.079.058-.2-.162a14.324 14.324 0 0 1 3.99-1.806c-.712-.47-1.318-.983-1.817-1.539s-1.017-1.285-1.552-2.185c-.287-.506-.48-.867-.582-1.084a22.52 22.52 0 0 1-.48-1.182l-.082-.162c.453-.176.806-.33 1.06-.462a3.69 3.69 0 0 0 .706-.482c.83-.666 1.244-1.534 1.244-2.604 0-.597-.261-1.272-.784-2.026.67.59 1.004 1.393 1.004 2.408 0 .681-.252 1.311-.754 1.889-.503.577-1.208 1.05-2.114 1.419zm10.759-2.796c.409.155.739.44.99.856v-.85h1.64v5.597c0 .762-.14 1.336-.419 1.722-.48.664-1.4.996-2.76.996-.823 0-1.494-.148-2.012-.444-.52-.296-.807-.738-.862-1.327h1.829c.047.181.124.31.23.39.18.141.485.211.914.211.606 0 1.01-.186 1.216-.557.133-.238.2-.639.2-1.202v-.379a1.928 1.928 0 0 1-.52.569c-.333.234-.768.351-1.303.351-.825 0-1.485-.266-1.979-.798s-.74-1.253-.74-2.163c0-.877.237-1.614.713-2.211.475-.597 1.148-.896 2.02-.896.323 0 .603.045.843.135zm.573 4.231c.27-.272.405-.707.405-1.302 0-.56-.128-.986-.385-1.278-.257-.292-.6-.438-1.031-.438-.587 0-.992.254-1.216.763-.117.27-.176.605-.176 1.002 0 .342.063.648.188.915.227.498.635.747 1.221.747.392 0 .723-.137.994-.409zm6.172-1.914c.314-.036.538-.081.672-.135.242-.094.363-.24.363-.439 0-.241-.093-.408-.279-.5-.184-.093-.457-.138-.815-.138-.403 0-.689.09-.856.27-.12.134-.199.314-.239.542h-1.622c.035-.517.193-.94.474-1.272.446-.52 1.213-.78 2.299-.78.707 0 1.335.128 1.883.384s.825.74.825 1.45v2.708c0 .187.003.415.011.682.012.202.045.34.1.411a.6.6 0 0 0 .248.179v.227h-1.83a1.622 1.622 0 0 1-.105-.335 3.76 3.76 0 0 1-.047-.358 3.426 3.426 0 0 1-.807.59 2.612 2.612 0 0 1-1.235.287c-.584 0-1.068-.152-1.45-.457-.382-.305-.573-.737-.573-1.297 0-.725.308-1.25.922-1.575.336-.177.832-.303 1.485-.38l.576-.064zm1.029.72a1.94 1.94 0 0 1-.326.15 2.95 2.95 0 0 1-.452.105l-.382.064c-.359.058-.617.129-.773.211a.696.696 0 0 0-.397.656c0 .263.08.454.242.571a.98.98 0 0 0 .59.176c.368 0 .706-.098 1.015-.293s.471-.55.483-1.066v-.574zm4.86 2.869h-1.68v-7.98h1.68v7.98zm3.357 0h-1.681v-7.98h1.68v7.98zm5.83-5.781a2.57 2.57 0 0 1 1.11.873c.263.35.434.757.512 1.22.046.27.065.661.056 1.171h-4.682c.025.592.25 1.007.672 1.245.256.148.565.222.926.222.384 0 .695-.09.934-.27.13-.098.246-.233.347-.407h1.715c-.045.35-.253.706-.623 1.067-.576.574-1.381.86-2.419.86-.855 0-1.61-.241-2.264-.726-.654-.483-.982-1.271-.982-2.362 0-1.022.295-1.806.886-2.351s1.357-.818 2.299-.818c.56 0 1.064.092 1.513.276zm-2.516 1.333c-.237.225-.387.529-.447.913h2.896c-.031-.41-.18-.72-.448-.932-.268-.212-.6-.318-.997-.318-.432 0-.766.112-1.004.337zm8.616-1.59l.144.008v1.58a4.881 4.881 0 0 0-.483-.027c-.677 0-1.131.202-1.363.607-.13.227-.195.577-.195 1.05v2.82h-1.693v-5.9h1.604v1.028c.26-.393.487-.662.68-.806.314-.242.723-.363 1.226-.363.032 0 .058 0 .08.003zm1.383 7.17l.212.01c.165.008.323.002.472-.016s.276-.06.377-.124c.099-.062.19-.19.275-.385.084-.194.12-.313.109-.357l-2.362-6.16h1.87l1.403 4.352 1.328-4.353h1.787l-2.204 5.804c-.427 1.119-.764 1.813-1.012 2.081-.248.27-.744.404-1.488.404a11.98 11.98 0 0 1-.768-.021v-1.235zM33.125 35.395h145.5v7.5h-145.5z"/><linearGradient id="c" gradientUnits="userSpaceOnUse" x1="38.246" y1="40.764" x2="38.246" y2="37.813"><stop offset="0" stop-color="#c1852b"/><stop offset=".72" stop-color="#dfc124"/></linearGradient><path fill="url(#c)" d="M39.038 40.697c.072-.008.117-.02.134-.036a.089.089 0 0 0 .025-.064V38.53l-.011-.01-1.014 2.176-1.003-2.2h-.011v2.1a.09.09 0 0 0 .025.064c.017.017.062.028.134.036v.067h-1.003v-.067c.072-.008.117-.02.134-.036a.089.089 0 0 0 .026-.064V37.98a.088.088 0 0 0-.026-.065c-.017-.016-.062-.028-.134-.036v-.067h1.487v.067c-.09.004-.136.037-.136.101a9.435 9.435 0 0 0 .123.297c.035.082.075.172.119.268.044.094.085.186.125.274l.106.233c.03.068.051.112.062.134.065-.141.132-.28.2-.415l.185-.37c.055-.112.1-.206.134-.28a.528.528 0 0 0 .051-.14c0-.065-.045-.098-.137-.102v-.067h1.545v.067c-.073.008-.117.02-.135.036a.088.088 0 0 0-.025.065v2.616a.09.09 0 0 0 .025.064c.018.017.062.028.135.036v.067h-1.14v-.067z"/><linearGradient id="d" gradientUnits="userSpaceOnUse" x1="42.839" y1="40.781" x2="42.839" y2="37.813"><stop offset="0" stop-color="#c1852b"/><stop offset=".72" stop-color="#dfc124"/></linearGradient><path fill="url(#d)" d="M43.557 37.981a.088.088 0 0 0-.026-.065c-.017-.016-.062-.028-.134-.036v-.067h1.174v.067c-.072.008-.117.02-.134.036a.088.088 0 0 0-.026.065v1.504c0 .247-.04.454-.122.623a1.037 1.037 0 0 1-.336.404c-.143.101-.31.171-.502.21s-.396.06-.612.06c-.217 0-.421-.02-.613-.06s-.359-.109-.501-.21a1.037 1.037 0 0 1-.336-.404 1.417 1.417 0 0 1-.123-.623v-1.504a.088.088 0 0 0-.026-.065c-.017-.016-.061-.028-.134-.036v-.067h1.174v.067c-.072.008-.116.02-.134.036a.088.088 0 0 0-.025.065v1.504c0 .217.063.372.188.466.125.094.302.14.53.14.227 0 .404-.046.53-.14s.188-.249.188-.466v-1.504z"/><linearGradient id="e" gradientUnits="userSpaceOnUse" x1="46.936" y1="40.781" x2="46.936" y2="37.779"><stop offset="0" stop-color="#c1852b"/><stop offset=".72" stop-color="#dfc124"/></linearGradient><path fill="url(#e)" d="M45.768 39.625a.41.41 0 0 0-.012.118c0 .037.035.08.105.126.07.047.162.09.274.132a2.446 2.446 0 0 0 .823.146c.285 0 .494-.033.627-.098.133-.066.2-.16.2-.284 0-.067-.058-.115-.174-.142a3.136 3.136 0 0 0-.436-.068l-.564-.056a2.842 2.842 0 0 1-.564-.112 1.163 1.163 0 0 1-.436-.236.536.536 0 0 1-.174-.424.76.76 0 0 1 .1-.386.914.914 0 0 1 .279-.298c.12-.083.265-.147.436-.194.17-.046.36-.07.57-.07.193 0 .374.012.54.036a5.577 5.577 0 0 1 .77.163.8.8 0 0 0 .188.036.15.15 0 0 0 .091-.024.378.378 0 0 0 .063-.06l.063.023-.393.78-.069-.033v-.062c0-.034-.037-.069-.111-.104a1.516 1.516 0 0 0-.282-.096 4.027 4.027 0 0 0-.382-.07 3.133 3.133 0 0 0-.41-.027c-.247 0-.42.027-.518.084-.1.055-.149.115-.149.18 0 .063.034.11.103.142a.922.922 0 0 0 .268.07c.11.015.235.028.376.036.14.01.285.024.433.042.148.02.292.045.433.08.14.033.266.082.376.148s.2.151.268.258a.734.734 0 0 1 .103.401c0 .124-.026.245-.078.365s-.138.228-.262.323a1.396 1.396 0 0 1-.495.227 2.98 2.98 0 0 1-.772.084c-.24 0-.446-.01-.619-.033a3.515 3.515 0 0 1-.73-.17.53.53 0 0 0-.156-.038c-.023 0-.043.008-.06.022s-.035.033-.054.051l-.068-.016.421-1 .058.028z"/><linearGradient id="f" gradientUnits="userSpaceOnUse" x1="49.967" y1="40.764" x2="49.967" y2="37.813"><stop offset="0" stop-color="#c1852b"/><stop offset=".72" stop-color="#dfc124"/></linearGradient><path fill="url(#f)" d="M49.38 40.697c.072-.008.117-.02.134-.036a.089.089 0 0 0 .025-.064V37.98a.088.088 0 0 0-.025-.065c-.017-.016-.062-.028-.134-.036v-.067h1.174v.067c-.073.008-.117.02-.135.036a.088.088 0 0 0-.025.065v2.616a.09.09 0 0 0 .025.064c.018.017.062.028.135.036v.067H49.38v-.067z"/><linearGradient id="g" gradientUnits="userSpaceOnUse" x1="53.164" y1="40.781" x2="53.164" y2="37.779"><stop offset="0" stop-color="#c1852b"/><stop offset=".72" stop-color="#dfc124"/></linearGradient><path fill="url(#g)" d="M54.263 38.862a.217.217 0 0 0 .011-.084c0-.03-.025-.06-.076-.09a.938.938 0 0 0-.205-.082 2.373 2.373 0 0 0-.641-.086 1.71 1.71 0 0 0-.36.04c-.125.025-.24.068-.344.128a.759.759 0 0 0-.256.239c-.067.1-.1.22-.1.362a.63.63 0 0 0 .1.361c.066.1.151.179.256.24.104.059.22.102.345.128.125.027.244.04.359.04a2.577 2.577 0 0 0 .835-.196c.081-.038.122-.078.122-.119a.079.079 0 0 0-.012-.045.345.345 0 0 1-.023-.039l.063-.04.587.882-.068.039c-.008-.019-.018-.03-.031-.036a.123.123 0 0 0-.05-.01.588.588 0 0 0-.158.049 4.137 4.137 0 0 1-.758.196 3.585 3.585 0 0 1-.576.042 2.67 2.67 0 0 1-.678-.087 1.845 1.845 0 0 1-.604-.274 1.493 1.493 0 0 1-.433-.472 1.29 1.29 0 0 1-.165-.66c0-.25.055-.47.165-.658.11-.19.254-.347.433-.472s.38-.22.604-.284c.224-.063.45-.095.678-.095s.425.012.59.036a3.99 3.99 0 0 1 .675.157c.06.021.106.031.137.031a.104.104 0 0 0 .086-.044l.062.016-.513.926-.057-.039z"/><linearGradient id="h" gradientUnits="userSpaceOnUse" x1="59.015" y1="40.781" x2="59.015" y2="37.779"><stop offset="0" stop-color="#c1852b"/><stop offset=".72" stop-color="#dfc124"/></linearGradient><path fill="url(#h)" d="M60.115 38.862a.217.217 0 0 0 .011-.084c0-.03-.025-.06-.077-.09a.938.938 0 0 0-.205-.082 2.373 2.373 0 0 0-.64-.086c-.115 0-.235.013-.36.04-.125.025-.24.068-.344.128a.759.759 0 0 0-.257.239c-.067.1-.1.22-.1.362a.63.63 0 0 0 .1.361c.067.1.152.179.257.24.104.059.219.102.344.128.125.027.245.04.36.04a2.538 2.538 0 0 0 .835-.196c.08-.038.121-.078.121-.119a.079.079 0 0 0-.011-.045.345.345 0 0 1-.023-.039l.063-.04.587.882-.068.039a.064.064 0 0 0-.032-.036.123.123 0 0 0-.049-.01.588.588 0 0 0-.159.049 4.137 4.137 0 0 1-.758.196c-.17.028-.363.042-.575.042a2.67 2.67 0 0 1-.678-.087 1.845 1.845 0 0 1-.604-.274 1.493 1.493 0 0 1-.434-.472 1.29 1.29 0 0 1-.165-.66c0-.25.056-.47.165-.658.11-.19.255-.347.434-.472a2 2 0 0 1 .604-.284c.224-.063.45-.095.678-.095s.424.012.59.036a3.99 3.99 0 0 1 .675.157c.06.021.106.031.137.031a.104.104 0 0 0 .085-.044l.063.016-.513.926-.057-.039z"/><linearGradient id="i" gradientUnits="userSpaceOnUse" x1="63.095" y1="40.781" x2="63.095" y2="37.779"><stop offset="0" stop-color="#c1852b"/><stop offset=".72" stop-color="#dfc124"/></linearGradient><path fill="url(#i)" d="M63.095 37.78c.243 0 .472.032.687.097.214.066.403.162.564.29.161.127.29.283.384.47.095.188.143.405.143.652s-.048.464-.143.65a1.393 1.393 0 0 1-.384.472c-.161.127-.35.22-.564.28-.215.06-.444.09-.687.09s-.472-.03-.686-.09a1.59 1.59 0 0 1-.565-.28 1.392 1.392 0 0 1-.384-.472c-.095-.186-.143-.403-.143-.65s.048-.464.143-.651a1.39 1.39 0 0 1 .384-.471c.162-.128.35-.224.565-.29a2.34 2.34 0 0 1 .686-.098zm0 .684c-.125 0-.244.018-.356.056a.92.92 0 0 0-.296.16.773.773 0 0 0-.282.609c0 .13.025.248.076.35.052.103.12.189.206.258s.184.123.296.16c.112.038.23.056.356.056s.244-.018.356-.056a.924.924 0 0 0 .297-.16.771.771 0 0 0 .282-.608.775.775 0 0 0-.282-.61.925.925 0 0 0-.297-.159 1.096 1.096 0 0 0-.356-.056z"/><linearGradient id="j" gradientUnits="userSpaceOnUse" x1="67.186" y1="40.893" x2="67.186" y2="37.813"><stop offset="0" stop-color="#c1852b"/><stop offset=".72" stop-color="#dfc124"/></linearGradient><path fill="url(#j)" d="M68.588 40.08c.03 0 .053-.01.068-.031s.027-.063.034-.126h.069v.97h-.069c-.007-.06-.019-.096-.034-.109s-.038-.02-.068-.02h-2.975v-.067c.073-.008.117-.02.134-.036a.09.09 0 0 0 .026-.064V37.98a.088.088 0 0 0-.026-.065c-.017-.016-.061-.028-.134-.036v-.067h1.174v.067c-.072.008-.117.02-.134.036a.088.088 0 0 0-.026.065v2.099h1.96z"/><linearGradient id="k" gradientUnits="userSpaceOnUse" x1="70.987" y1="40.893" x2="70.987" y2="37.813"><stop offset="0" stop-color="#c1852b"/><stop offset=".72" stop-color="#dfc124"/></linearGradient><path fill="url(#k)" d="M72.389 40.08c.03 0 .053-.01.068-.031s.026-.063.034-.126h.069v.97h-.069c-.008-.06-.019-.096-.034-.109s-.038-.02-.068-.02h-2.975v-.067c.072-.008.117-.02.134-.036a.09.09 0 0 0 .026-.064V37.98a.088.088 0 0 0-.026-.065c-.017-.016-.062-.028-.134-.036v-.067h1.174v.067c-.072.008-.117.02-.134.036a.088.088 0 0 0-.026.065v2.099h1.96z"/><linearGradient id="l" gradientUnits="userSpaceOnUse" x1="74.722" y1="40.871" x2="74.722" y2="37.656"><stop offset="0" stop-color="#c1852b"/><stop offset=".72" stop-color="#dfc124"/></linearGradient><path fill="url(#l)" d="M75.46 39.687a.177.177 0 0 0-.049-.092c-.025-.025-.065-.037-.122-.037h-1.06v.522h1.829c.03 0 .053-.01.068-.031s.027-.067.034-.137h.069v.959h-.069c-.007-.049-.019-.078-.034-.09a.117.117 0 0 0-.068-.017h-2.844v-.067c.073-.008.117-.02.134-.036a.09.09 0 0 0 .026-.064V37.98a.088.088 0 0 0-.026-.065c-.017-.016-.061-.028-.134-.036v-.067h2.844c.03 0 .053-.01.068-.03a.296.296 0 0 0 .034-.127h.069v.976h-.069c-.007-.064-.019-.106-.034-.126s-.038-.03-.068-.03h-1.83v.464h1.06c.058 0 .098-.011.123-.036a.177.177 0 0 0 .048-.093h.069v.876h-.069z"/><linearGradient id="m" gradientUnits="userSpaceOnUse" x1="78.645" y1="40.781" x2="78.645" y2="37.779"><stop offset="0" stop-color="#c1852b"/><stop offset=".72" stop-color="#dfc124"/></linearGradient><path fill="url(#m)" d="M79.745 38.862a.217.217 0 0 0 .01-.084c0-.03-.025-.06-.076-.09a.938.938 0 0 0-.205-.082 2.373 2.373 0 0 0-.641-.086c-.114 0-.234.013-.359.04-.125.025-.24.068-.345.128a.759.759 0 0 0-.256.239c-.067.1-.1.22-.1.362a.63.63 0 0 0 .1.361c.066.1.152.179.256.24.105.059.22.102.345.128.125.027.245.04.359.04a2.577 2.577 0 0 0 .835-.196c.082-.038.122-.078.122-.119a.079.079 0 0 0-.011-.045.345.345 0 0 1-.023-.039l.063-.04.587.882-.069.039a.062.062 0 0 0-.03-.036.123.123 0 0 0-.05-.01.588.588 0 0 0-.159.049 4.137 4.137 0 0 1-.758.196 3.58 3.58 0 0 1-.575.042 2.67 2.67 0 0 1-.679-.087 1.845 1.845 0 0 1-.604-.274 1.493 1.493 0 0 1-.433-.472 1.29 1.29 0 0 1-.165-.66c0-.25.055-.47.165-.658.11-.19.255-.347.433-.472.18-.125.38-.22.604-.284.225-.063.45-.095.679-.095s.424.012.59.036a3.99 3.99 0 0 1 .675.157c.06.021.106.031.137.031a.104.104 0 0 0 .085-.044l.062.016-.512.926-.057-.039z"/><linearGradient id="n" gradientUnits="userSpaceOnUse" x1="82.406" y1="40.764" x2="82.406" y2="37.656"><stop offset="0" stop-color="#c1852b"/><stop offset=".72" stop-color="#dfc124"/></linearGradient><path fill="url(#n)" d="M81.818 40.697c.073-.008.118-.02.135-.036a.089.089 0 0 0 .025-.064v-2.1h-.98c-.03 0-.053.01-.068.031s-.027.063-.034.127h-.069v-1h.069a.296.296 0 0 0 .034.127c.015.02.037.03.068.03h2.815c.03 0 .053-.01.068-.03a.303.303 0 0 0 .035-.126h.068v1h-.068c-.008-.065-.02-.107-.035-.128s-.038-.031-.068-.031h-.98v2.1a.09.09 0 0 0 .025.064c.017.017.062.028.134.036v.067h-1.174v-.067z"/><linearGradient id="o" gradientUnits="userSpaceOnUse" x1="85.26" y1="40.764" x2="85.26" y2="37.813"><stop offset="0" stop-color="#c1852b"/><stop offset=".72" stop-color="#dfc124"/></linearGradient><path fill="url(#o)" d="M84.673 40.697c.072-.008.117-.02.134-.036a.089.089 0 0 0 .026-.064V37.98a.088.088 0 0 0-.026-.065c-.017-.016-.062-.028-.134-.036v-.067h1.174v.067c-.072.008-.117.02-.134.036a.088.088 0 0 0-.025.065v2.616a.09.09 0 0 0 .025.064c.017.017.062.028.134.036v.067h-1.174v-.067z"/><linearGradient id="p" gradientUnits="userSpaceOnUse" x1="88.48" y1="40.764" x2="88.48" y2="37.813"><stop offset="0" stop-color="#c1852b"/><stop offset=".72" stop-color="#dfc124"/></linearGradient><path fill="url(#p)" d="M86.964 37.981a.088.088 0 0 0-.026-.065c-.017-.016-.062-.028-.133-.036v-.067h2.17c.156 0 .298.014.428.045.129.03.241.075.336.137a.65.65 0 0 1 .222.241c.053.1.08.218.08.357a.554.554 0 0 1-.154.407.762.762 0 0 1-.393.204v.012c.193.052.352.132.476.24s.185.268.185.478a.792.792 0 0 1-.066.32.673.673 0 0 1-.205.263 1.065 1.065 0 0 1-.359.18c-.146.045-.32.067-.521.067h-2.2v-.067c.072-.008.117-.02.134-.036a.089.089 0 0 0 .026-.064V37.98zm1.63.943c.121 0 .222-.003.302-.008a.632.632 0 0 0 .187-.037.188.188 0 0 0 .098-.078c.019-.035.028-.08.028-.135s-.01-.1-.028-.135-.052-.06-.098-.079a.67.67 0 0 0-.187-.036 4.925 4.925 0 0 0-.302-.009h-.775v.517h.775zm.194 1.246c.205 0 .349-.026.433-.076.083-.05.125-.137.125-.261 0-.123-.042-.21-.125-.26-.084-.052-.228-.077-.433-.077h-.97v.674h.97z"/><linearGradient id="q" gradientUnits="userSpaceOnUse" x1="92.513" y1="40.893" x2="92.513" y2="37.813"><stop offset="0" stop-color="#c1852b"/><stop offset=".72" stop-color="#dfc124"/></linearGradient><path fill="url(#q)" d="M93.916 40.08c.03 0 .052-.01.068-.031s.027-.063.033-.126h.068v.97h-.068c-.006-.06-.017-.096-.033-.109s-.037-.02-.068-.02H90.94v-.067c.072-.008.117-.02.134-.036a.09.09 0 0 0 .026-.064V37.98a.088.088 0 0 0-.026-.065c-.017-.016-.062-.028-.134-.036v-.067h1.174v.067c-.073.008-.117.02-.135.036a.094.094 0 0 0-.025.065v2.099h1.96z"/><linearGradient id="r" gradientUnits="userSpaceOnUse" x1="96.249" y1="40.871" x2="96.249" y2="37.656"><stop offset="0" stop-color="#c1852b"/><stop offset=".72" stop-color="#dfc124"/></linearGradient><path fill="url(#r)" d="M96.987 39.687c-.008-.038-.025-.068-.049-.092s-.065-.037-.122-.037h-1.06v.522h1.828c.03 0 .054-.01.069-.031a.335.335 0 0 0 .034-.137h.068v.959h-.068c-.008-.049-.019-.078-.034-.09a.117.117 0 0 0-.069-.017h-2.842v-.067c.071-.008.116-.02.133-.036a.09.09 0 0 0 .026-.064V37.98a.09.09 0 0 0-.026-.065c-.017-.016-.062-.028-.133-.036v-.067h2.842c.03 0 .054-.01.069-.03a.296.296 0 0 0 .034-.127h.068v.976h-.068a.29.29 0 0 0-.034-.126c-.015-.02-.038-.03-.069-.03h-1.829v.464h1.06c.058 0 .099-.011.123-.036s.041-.055.049-.093h.068v.876h-.068z"/><linearGradient id="s" gradientUnits="userSpaceOnUse" x1="99.961" y1="40.781" x2="99.961" y2="37.779"><stop offset="0" stop-color="#c1852b"/><stop offset=".72" stop-color="#dfc124"/></linearGradient><path fill="url(#s)" d="M98.792 39.625a.46.46 0 0 0-.01.118c0 .037.035.08.105.126.07.047.161.09.274.132a2.417 2.417 0 0 0 .823.146c.285 0 .493-.033.627-.098.133-.066.2-.16.2-.284 0-.067-.059-.115-.175-.142a3.151 3.151 0 0 0-.435-.068l-.565-.056a2.827 2.827 0 0 1-.564-.112c-.175-.054-.32-.133-.436-.236s-.174-.244-.174-.424a.76.76 0 0 1 .1-.386.91.91 0 0 1 .28-.298 1.42 1.42 0 0 1 .435-.194c.17-.046.361-.07.57-.07.194 0 .374.012.541.036a5.577 5.577 0 0 1 .77.163c.087.025.15.036.187.036s.069-.008.092-.024a.418.418 0 0 0 .063-.06l.062.023-.394.78-.068-.033v-.062c0-.034-.036-.069-.11-.104s-.168-.067-.282-.096a4.027 4.027 0 0 0-.382-.07 3.133 3.133 0 0 0-.41-.027c-.248 0-.42.027-.519.084-.099.055-.148.115-.148.18 0 .063.034.11.102.142a.927.927 0 0 0 .268.07c.11.015.236.028.377.036.14.01.284.024.432.042.149.02.292.045.433.08.14.033.266.082.377.148.11.065.199.151.267.258a.734.734 0 0 1 .103.401c0 .124-.025.245-.077.365s-.139.228-.262.323a1.42 1.42 0 0 1-.496.227 2.984 2.984 0 0 1-.773.084c-.239 0-.445-.01-.618-.033a3.636 3.636 0 0 1-.73-.17.528.528 0 0 0-.155-.038.089.089 0 0 0-.06.022c-.018.015-.035.033-.055.051l-.068-.016.422-1 .056.028z"/><linearGradient id="t" gradientUnits="userSpaceOnUse" x1="115.967" y1="40.781" x2="115.967" y2="37.779"><stop offset="0" stop-color="#c1852b"/><stop offset=".72" stop-color="#dfc124"/></linearGradient><path fill="url(#t)" d="M117.066 38.862a.217.217 0 0 0 .012-.084c0-.03-.026-.06-.077-.09a.938.938 0 0 0-.205-.082 2.373 2.373 0 0 0-.641-.086c-.114 0-.234.013-.36.04-.125.025-.24.068-.344.128a.759.759 0 0 0-.256.239c-.067.1-.1.22-.1.362a.63.63 0 0 0 .1.361c.066.1.152.179.256.24.105.059.22.102.345.128.125.027.245.04.359.04a2.577 2.577 0 0 0 .835-.196c.081-.038.122-.078.122-.119a.079.079 0 0 0-.011-.045.345.345 0 0 1-.023-.039l.063-.04.587.882-.069.039c-.008-.019-.018-.03-.031-.036a.123.123 0 0 0-.049-.01.588.588 0 0 0-.16.049 4.137 4.137 0 0 1-.758.196c-.17.028-.362.042-.575.042a2.67 2.67 0 0 1-.678-.087 1.845 1.845 0 0 1-.604-.274 1.493 1.493 0 0 1-.433-.472 1.29 1.29 0 0 1-.165-.66c0-.25.055-.47.165-.658.11-.19.254-.347.433-.472s.38-.22.604-.284c.224-.063.45-.095.678-.095s.425.012.59.036a3.99 3.99 0 0 1 .676.157c.06.021.106.031.136.031a.104.104 0 0 0 .086-.044l.062.016-.512.926-.058-.039z"/><linearGradient id="u" gradientUnits="userSpaceOnUse" x1="119.958" y1="40.871" x2="119.958" y2="37.656"><stop offset="0" stop-color="#c1852b"/><stop offset=".72" stop-color="#dfc124"/></linearGradient><path fill="url(#u)" d="M120.696 39.687a.177.177 0 0 0-.049-.092c-.024-.025-.065-.037-.122-.037h-1.06v.522h1.829c.03 0 .053-.01.068-.031s.027-.067.034-.137h.07v.959h-.07c-.007-.049-.019-.078-.034-.09a.117.117 0 0 0-.068-.017h-2.843v-.067c.072-.008.116-.02.133-.036a.09.09 0 0 0 .026-.064V37.98a.088.088 0 0 0-.026-.065c-.017-.016-.061-.028-.133-.036v-.067h2.843c.03 0 .053-.01.068-.03a.296.296 0 0 0 .034-.127h.07v.976h-.07c-.007-.064-.019-.106-.034-.126s-.037-.03-.068-.03h-1.83v.464h1.06c.058 0 .099-.011.123-.036a.177.177 0 0 0 .049-.093h.068v.876h-.068z"/><linearGradient id="v" gradientUnits="userSpaceOnUse" x1="123.824" y1="40.893" x2="123.824" y2="37.813"><stop offset="0" stop-color="#c1852b"/><stop offset=".72" stop-color="#dfc124"/></linearGradient><path fill="url(#v)" d="M125.226 40.08c.03 0 .053-.01.068-.031s.027-.063.035-.126h.068v.97h-.068c-.008-.06-.02-.096-.035-.109s-.038-.02-.068-.02h-2.975v-.067c.073-.008.117-.02.134-.036a.09.09 0 0 0 .026-.064V37.98a.088.088 0 0 0-.026-.065c-.017-.016-.061-.028-.134-.036v-.067h1.174v.067c-.072.008-.116.02-.133.036a.088.088 0 0 0-.026.065v2.099h1.96z"/><linearGradient id="w" gradientUnits="userSpaceOnUse" x1="127.56" y1="40.871" x2="127.56" y2="37.656"><stop offset="0" stop-color="#c1852b"/><stop offset=".72" stop-color="#dfc124"/></linearGradient><path fill="url(#w)" d="M128.297 39.687a.177.177 0 0 0-.048-.092c-.025-.025-.065-.037-.123-.037h-1.06v.522h1.83c.03 0 .053-.01.068-.031s.027-.067.034-.137h.069v.959h-.069c-.007-.049-.019-.078-.034-.09a.117.117 0 0 0-.068-.017h-2.844v-.067c.073-.008.117-.02.134-.036a.09.09 0 0 0 .026-.064V37.98a.088.088 0 0 0-.026-.065c-.017-.016-.061-.028-.134-.036v-.067h2.844c.03 0 .053-.01.068-.03a.296.296 0 0 0 .034-.127h.069v.976h-.069c-.007-.064-.019-.106-.034-.126s-.038-.03-.068-.03h-1.83v.464h1.06c.058 0 .098-.011.123-.036a.177.177 0 0 0 .048-.093h.069v.876h-.069z"/><linearGradient id="x" gradientUnits="userSpaceOnUse" x1="131.505" y1="40.764" x2="131.505" y2="37.813"><stop offset="0" stop-color="#c1852b"/><stop offset=".72" stop-color="#dfc124"/></linearGradient><path fill="url(#x)" d="M129.99 37.981a.088.088 0 0 0-.026-.065c-.017-.016-.062-.028-.134-.036v-.067h2.171c.156 0 .298.014.427.045.13.03.241.075.336.137a.66.66 0 0 1 .303.598.554.554 0 0 1-.154.407.762.762 0 0 1-.393.204v.012c.193.052.352.132.475.24s.185.268.185.478a.792.792 0 0 1-.065.32.673.673 0 0 1-.205.263 1.065 1.065 0 0 1-.36.18 1.78 1.78 0 0 1-.52.067h-2.2v-.067c.072-.008.117-.02.134-.036a.089.089 0 0 0 .025-.064V37.98zm1.63.943c.12 0 .221-.003.3-.008a.632.632 0 0 0 .189-.037.188.188 0 0 0 .097-.078c.02-.035.028-.08.028-.135s-.009-.1-.028-.135-.051-.06-.097-.079a.67.67 0 0 0-.188-.036 4.925 4.925 0 0 0-.302-.009h-.775v.517h.775zm.193 1.246c.205 0 .35-.026.433-.076.084-.05.125-.137.125-.261 0-.123-.041-.21-.125-.26-.084-.052-.228-.077-.433-.077h-.969v.674h.969z"/><linearGradient id="y" gradientUnits="userSpaceOnUse" x1="135.622" y1="40.764" x2="135.622" y2="37.813"><stop offset="0" stop-color="#c1852b"/><stop offset=".72" stop-color="#dfc124"/></linearGradient><path fill="url(#y)" d="M134.98 40.597a.09.09 0 0 0 .026.064c.017.017.062.028.134.036v.067h-1.174v-.067c.073-.008.117-.02.134-.036a.09.09 0 0 0 .026-.064V37.98a.088.088 0 0 0-.026-.065c-.017-.016-.061-.028-.134-.036v-.067h2.086c.422 0 .727.076.917.227s.285.387.285.705c0 .258-.077.459-.23.605a1.341 1.341 0 0 1-.585.315l.673.932c.045.067.1.1.165.1v.067h-1.185v-.067c.083-.004.125-.037.125-.1a.298.298 0 0 0-.046-.08 7.491 7.491 0 0 0-.264-.367l-.16-.21a7.47 7.47 0 0 1-.208-.287h-.559v.944zm.958-1.539c.167 0 .282-.03.345-.092a.293.293 0 0 0 0-.432c-.063-.062-.178-.093-.345-.093h-.958v.617h.958z"/><linearGradient id="z" gradientUnits="userSpaceOnUse" x1="138.73" y1="40.764" x2="138.73" y2="37.813"><stop offset="0" stop-color="#c1852b"/><stop offset=".72" stop-color="#dfc124"/></linearGradient><path fill="url(#z)" d="M138.144 40.697c.071-.008.116-.02.133-.036a.089.089 0 0 0 .026-.064V37.98a.088.088 0 0 0-.026-.065c-.017-.016-.062-.028-.133-.036v-.067h1.173v.067c-.072.008-.117.02-.134.036a.088.088 0 0 0-.025.065v2.616a.09.09 0 0 0 .025.064c.017.017.062.028.134.036v.067h-1.173v-.067z"/><linearGradient id="A" gradientUnits="userSpaceOnUse" x1="141.573" y1="40.764" x2="141.573" y2="37.656"><stop offset="0" stop-color="#c1852b"/><stop offset=".72" stop-color="#dfc124"/></linearGradient><path fill="url(#A)" d="M140.986 40.697c.073-.008.118-.02.135-.036a.089.089 0 0 0 .025-.064v-2.1h-.98c-.03 0-.053.01-.068.031s-.027.063-.035.127h-.068v-1h.068a.296.296 0 0 0 .035.127c.015.02.037.03.068.03h2.815c.03 0 .053-.01.068-.03a.303.303 0 0 0 .034-.126h.069v1h-.069c-.007-.065-.019-.107-.034-.128s-.038-.031-.068-.031h-.98v2.1a.09.09 0 0 0 .025.064c.017.017.062.028.134.036v.067h-1.174v-.067z"/><linearGradient id="B" gradientUnits="userSpaceOnUse" x1="145.22" y1="40.764" x2="145.22" y2="37.813"><stop offset="0" stop-color="#c1852b"/><stop offset=".72" stop-color="#dfc124"/></linearGradient><path fill="url(#B)" d="M146.9 37.813v.067c-.03 0-.055.01-.076.031a.54.54 0 0 0-.06.07l-1.094 1.52v1.096a.09.09 0 0 0 .026.064c.017.017.061.028.134.036v.067h-1.174v-.067c.072-.008.117-.02.134-.036a.089.089 0 0 0 .025-.064v-.989l-1.088-1.537c-.06-.086-.1-.14-.12-.16s-.042-.03-.068-.03v-.068h1.253v.067a.386.386 0 0 0-.096.011c-.03.008-.046.026-.046.057 0 .014.025.06.074.134a19.396 19.396 0 0 0 .382.556c.072.101.131.187.177.257.01-.018.036-.052.074-.103l.128-.177.154-.214a6.284 6.284 0 0 0 .259-.372.336.336 0 0 0 .046-.081c0-.03-.014-.05-.043-.057a.31.31 0 0 0-.083-.01v-.068h1.083z"/><linearGradient id="C" gradientUnits="userSpaceOnUse" x1="150.861" y1="40.764" x2="150.861" y2="37.656"><stop offset="0" stop-color="#c1852b"/><stop offset=".72" stop-color="#dfc124"/></linearGradient><path fill="url(#C)" d="M152.337 38.632c-.007-.053-.02-.088-.034-.107s-.038-.028-.069-.028h-1.88v.5h1.265c.03 0 .053-.009.069-.025s.026-.052.034-.104h.068v.942h-.068c-.008-.063-.02-.104-.034-.123s-.039-.028-.069-.028h-1.265v.938a.09.09 0 0 0 .026.064c.017.017.061.028.134.036v.067h-1.197v-.067c.072-.008.117-.02.134-.036a.09.09 0 0 0 .026-.064V37.98a.088.088 0 0 0-.026-.065c-.017-.016-.062-.028-.134-.036v-.067h2.917c.03 0 .054-.01.069-.03a.296.296 0 0 0 .034-.127h.068v.976h-.068z"/><linearGradient id="D" gradientUnits="userSpaceOnUse" x1="153.768" y1="40.764" x2="153.768" y2="37.813"><stop offset="0" stop-color="#c1852b"/><stop offset=".72" stop-color="#dfc124"/></linearGradient><path fill="url(#D)" d="M153.18 40.697c.072-.008.117-.02.134-.036a.089.089 0 0 0 .026-.064V37.98a.088.088 0 0 0-.026-.065c-.017-.016-.062-.028-.133-.036v-.067h1.173v.067c-.072.008-.117.02-.134.036a.088.088 0 0 0-.025.065v2.616a.09.09 0 0 0 .025.064c.017.017.062.028.134.036v.067h-1.173v-.067z"/><linearGradient id="E" gradientUnits="userSpaceOnUse" x1="157.095" y1="40.764" x2="157.095" y2="37.813"><stop offset="0" stop-color="#c1852b"/><stop offset=".72" stop-color="#dfc124"/></linearGradient><path fill="url(#E)" d="M155.494 37.981a.088.088 0 0 0-.026-.065c-.017-.016-.062-.028-.134-.036v-.067h1.374v.067a.312.312 0 0 0-.129.025c-.02.013-.031.03-.031.048a.48.48 0 0 0 .074.101c.05.06.114.134.193.224a29.107 29.107 0 0 0 .576.632c.103.11.201.215.296.314.095.1.177.184.246.255v-1.498c0-.064-.04-.097-.12-.1v-.068h1.042v.067c-.072.008-.116.02-.133.036a.088.088 0 0 0-.026.065v2.616a.09.09 0 0 0 .026.064c.017.017.061.028.133.036v.067h-1.082v-.067c.053 0 .088-.006.105-.017a.05.05 0 0 0 .026-.044.08.08 0 0 0-.017-.042.83.83 0 0 0-.074-.087l-.168-.177-.294-.309a99.06 99.06 0 0 1-1.094-1.187v1.763a.09.09 0 0 0 .026.064c.017.017.062.028.134.036v.067h-1.083v-.067c.072-.008.117-.02.134-.036a.09.09 0 0 0 .026-.064V37.98z"/><linearGradient id="F" gradientUnits="userSpaceOnUse" x1="161.274" y1="40.871" x2="161.274" y2="37.656"><stop offset="0" stop-color="#c1852b"/><stop offset=".72" stop-color="#dfc124"/></linearGradient><path fill="url(#F)" d="M162.012 39.687a.177.177 0 0 0-.048-.092c-.025-.025-.066-.037-.123-.037h-1.06v.522h1.83c.03 0 .053-.01.068-.031s.027-.067.034-.137h.069v.959h-.07c-.006-.049-.018-.078-.033-.09a.117.117 0 0 0-.069-.017h-2.843v-.067c.072-.008.117-.02.134-.036a.09.09 0 0 0 .026-.064V37.98a.088.088 0 0 0-.026-.065c-.017-.016-.062-.028-.134-.036v-.067h2.843c.031 0 .054-.01.069-.03a.296.296 0 0 0 .034-.127h.069v.976h-.07c-.006-.064-.018-.106-.033-.126s-.038-.03-.069-.03h-1.829v.464h1.06c.057 0 .098-.011.123-.036a.177.177 0 0 0 .048-.093h.069v.876h-.069z"/><linearGradient id="G" gradientUnits="userSpaceOnUse" x1="166.901" y1="40.764" x2="166.901" y2="37.813"><stop offset="0" stop-color="#c1852b"/><stop offset=".72" stop-color="#dfc124"/></linearGradient><path fill="url(#G)" d="M165.983 40.641c0 .019.007.033.02.042.014.01.04.014.083.014v.067h-1.009v-.067a.197.197 0 0 0 .092-.036.272.272 0 0 0 .057-.093l.057-.151c.03-.083.07-.187.12-.312l.164-.418.183-.468c.061-.158.12-.315.18-.466l.156-.406.111-.293c.028-.075.043-.114.043-.118 0-.019-.012-.031-.037-.04a.492.492 0 0 0-.077-.016v-.067h1.487v.067a.311.311 0 0 0-.074.017c-.018.008-.028.026-.028.056 0 .007.017.056.053.145.037.09.083.207.14.352l.197.488c.075.181.15.367.23.555l.231.553.202.483a.593.593 0 0 0 .078.135.109.109 0 0 0 .083.033v.067h-1.123v-.067c.072-.004.108-.026.108-.067 0-.004-.01-.03-.028-.075l-.063-.158a18.375 18.375 0 0 1-.065-.166.743.743 0 0 1-.037-.106h-1.351a8.4 8.4 0 0 0-.09.247l-.055.151-.029.081a.12.12 0 0 0-.009.037zm1.385-.965l-.553-1.335-.506 1.335h1.06z"/><linearGradient id="H" gradientUnits="userSpaceOnUse" x1="171.074" y1="40.764" x2="171.074" y2="37.813"><stop offset="0" stop-color="#c1852b"/><stop offset=".72" stop-color="#dfc124"/></linearGradient><path fill="url(#H)" d="M170.433 40.597c0 .025.01.046.025.064.018.017.063.028.135.036v.067h-1.174v-.067c.072-.008.117-.02.134-.036a.092.092 0 0 0 .026-.064V37.98a.09.09 0 0 0-.026-.065c-.017-.016-.062-.028-.134-.036v-.067h2.086c.422 0 .726.076.918.227.19.151.283.387.283.705 0 .258-.076.459-.23.605a1.339 1.339 0 0 1-.584.315l.671.932c.047.067.102.1.166.1v.067h-1.185v-.067c.084-.004.125-.037.125-.1a.266.266 0 0 0-.045-.08c-.03-.045-.068-.098-.113-.162-.047-.064-.096-.133-.153-.205l-.158-.21a16.91 16.91 0 0 1-.135-.18 2.877 2.877 0 0 1-.074-.107h-.558v.944zm.957-1.539c.168 0 .283-.03.345-.092a.297.297 0 0 0 0-.432c-.062-.062-.177-.093-.345-.093h-.957v.617h.957z"/><linearGradient id="I" gradientUnits="userSpaceOnUse" x1="174.809" y1="40.764" x2="174.809" y2="37.656"><stop offset="0" stop-color="#c1852b"/><stop offset=".72" stop-color="#dfc124"/></linearGradient><path fill="url(#I)" d="M174.223 40.697c.07-.008.116-.02.133-.036a.09.09 0 0 0 .026-.064v-2.1h-.98a.08.08 0 0 0-.069.031.306.306 0 0 0-.034.127h-.069v-1h.069a.31.31 0 0 0 .034.127c.016.02.038.03.068.03h2.816c.03 0 .053-.01.068-.03a.31.31 0 0 0 .034-.126h.069v1h-.069a.306.306 0 0 0-.034-.128.08.08 0 0 0-.068-.031h-.98v2.1c0 .025.008.046.026.064.016.017.061.028.133.036v.067h-1.173v-.067z"/><linearGradient id="J" gradientUnits="userSpaceOnUse" x1="103.904" y1="42.342" x2="110.994" y2="42.342"><stop offset="0" stop-color="#c1852b"/><stop offset=".72" stop-color="#dfc124"/></linearGradient><path fill-rule="evenodd" clip-rule="evenodd" fill="url(#J)" d="M108.172 42.289l-.047-1.223c1.969-.806 2.897-2.132 2.868-3.44a1.7 1.7 0 0 0-.343-1.003c-.168-.213-.34-.369-.818-.241a2.47 2.47 0 0 0-.853.442 3.38 3.38 0 0 0-.792.88c-.39.61-.53 1.27-.489 1.914.01.144.023.288.04.432-.938.429-1.902.837-2.66 1.365-.763.532-1.194 1.165-1.173 1.84.036 1.18 1.583 2.49 3.97 2.487.03.353.058.705.084 1.058.02.283-.02.607-.246.867-.236.27-.631.418-1.188.442-.608.027-1.122-.135-1.351-.439 1.372.22 1.53-.828.678-1.187-.404-.17-.955-.108-1.266.101-.375.253-.464.585-.28.891.366.614 1.817 1.073 2.955.785 1.206-.306 1.068-1.124 1.044-1.72-.01-.277-.018-.554-.026-.83.612-.054 1.16-.173 1.585-.426.425-.253.648-.565.775-.894.232-.604-.082-1.301-.882-1.745-.428-.237-.987-.337-1.585-.356zm-1.974 3.005c-.547-.185-.964-.416-1.275-.723-.56-.554-.512-1.23-.018-1.792.596-.678 1.723-1.16 2.854-1.568l.019 1.09c-1.064.153-1.723.627-1.958 1.192-.231.555.368 1.074 1.207 1.355a.092.092 0 0 0 .01-.062c-.005-.025-.02-.035-.054-.05-1.11-.478-.617-1.545.835-1.628l.059 2.398c-.59-.002-1.168-.039-1.68-.212zm2.243-6.826c.257-.352.807-1.146 1.73-1.044.472.062.417.394.36.594-.076.266-.282.511-.52.745-.23.225-.518.436-.828.63-.303.192-.654.4-1.08.51-.142-.488.005-.978.338-1.435zm1.293 6.077c-.085.207-.194.428-.445.597-.288.194-.595.286-1.037.348l-.071-2.366c.398.058.716.159 1.001.32.45.292.709.721.552 1.1z"/></svg>