<?xml version="1.0" encoding="utf-8"?>
<!-- Generator: Adobe Illustrator 17.1.0, SVG Export Plug-In . SVG Version: 6.00 Build 0)  -->
<!DOCTYPE svg PUBLIC "-//W3C//DTD SVG 1.1//EN" "http://www.w3.org/Graphics/SVG/1.1/DTD/svg11.dtd">
<svg version="1.1" id="Layer_1" xmlns="http://www.w3.org/2000/svg" xmlns:xlink="http://www.w3.org/1999/xlink" x="0px" y="0px"
	 viewBox="0 0 135.4181976 135.4182129" enable-background="new 0 0 135.4181976 135.4182129" xml:space="preserve">
<path id="tel_3_" fill="#424143" d="M99.3049011,81.2641144c9.0345993-9.0377045,36.1132965,18.0408859,36.1132965,27.0755005
	c0,9.0376968-27.0786972,27.078598-27.0786972,27.078598c-18.0723038,0-54.6587029-18.5455017-72.2577057-36.1132126
	C18.5454998,81.7374115,0,45.1474152,0,27.0787144C0,27.0787144,18.0721989,0,27.0785999,0
	c9.0031986,0,36.1131973,27.0787144,27.0753994,36.1132126c-9.0066986,9.0342026-18.0722008,9.0342026-18.0722008,18.0409012
	c0,9.0690994,9.0655022,18.0722961,18.0722008,27.1100006c9.0377998,9.0031967,18.0722961,18.0408859,27.1100006,18.0408859
	C90.2671967,99.3050003,90.2671967,90.2673111,99.3049011,81.2641144"/>
</svg>
