<?xml version="1.0" encoding="utf-8"?>
<!-- Generator: Adobe Illustrator 17.1.0, SVG Export Plug-In . SVG Version: 6.00 Build 0)  -->
<!DOCTYPE svg PUBLIC "-//W3C//DTD SVG 1.1//EN" "http://www.w3.org/Graphics/SVG/1.1/DTD/svg11.dtd">
<svg version="1.1" id="image" xmlns="http://www.w3.org/2000/svg" xmlns:xlink="http://www.w3.org/1999/xlink" x="0px" y="0px"
	 viewBox="0 0 56.6 46.6" enable-background="new 0 0 56.6 46.6" xml:space="preserve">
<g>
	<path fill="#FFFFFF" d="M8.4,6.8h4.9c1.2,0,2.1-0.9,2.1-2.1c0-1.2-0.9-2.1-2.1-2.1H8.4c-1.2,0-2.1,0.9-2.1,2.1
		C6.3,5.9,7.2,6.8,8.4,6.8z"/>
	<path fill="#FFFFFF" d="M33.3,20.5c-4,0-7.3,3.3-7.3,7.3c0,0.7,0.5,1.2,1.2,1.2c0.7,0,1.2-0.5,1.2-1.2c0-2.7,2.2-4.8,4.8-4.8
		c0.7,0,1.2-0.5,1.2-1.2C34.6,21,34,20.5,33.3,20.5z"/>
	<path fill="#FFFFFF" d="M42.7,5.1C41.8,2,40.9,0,35.8,0h-6.5c-5.1,0-5.9,2-6.8,5.1c-0.1,0.2-0.2,0.5-0.4,0.7H43
		C42.9,5.6,42.7,5.4,42.7,5.1z"/>
	<path fill="#FFFFFF" d="M32.9,15.9c-6.3,0-11.4,5.1-11.4,11.4c0,6.3,5.1,11.4,11.4,11.4c6.3,0,11.4-5.1,11.4-11.4
		C44.3,21,39.2,15.9,32.9,15.9z M32.9,36.5c-5.1,0-9.2-4.1-9.2-9.2c0-5.1,4.1-9.2,9.2-9.2s9.2,4.1,9.2,9.2
		C42.1,32.4,38,36.5,32.9,36.5z"/>
	<path fill="#FFFFFF" d="M50.9,7.9H5.8C2.6,7.9,0,10.5,0,13.7V40c0,3.2,2.6,6.6,5.8,6.6h45c3.2,0,5.8-2.6,5.8-5.8v-27
		C56.6,10.5,54.1,7.9,50.9,7.9z M13.9,16.6H7.7c-1,0-1.8-0.8-1.8-1.8c0-1,0.8-1.8,1.8-1.8h6.2c1,0,1.8,0.8,1.8,1.8
		C15.8,15.8,15,16.6,13.9,16.6z M32.9,41.3c-7.7,0-14-6.3-14-14c0-7.7,6.3-14,14-14c7.7,0,14,6.3,14,14C46.9,35,40.7,41.3,32.9,41.3
		z M50.1,17.2c-1.3,0-2.4-1.1-2.4-2.4c0-1.3,1.1-2.4,2.4-2.4c1.3,0,2.4,1.1,2.4,2.4C52.5,16.2,51.4,17.2,50.1,17.2z"/>
</g>
</svg>
