<?xml version="1.0" encoding="utf-8"?>
<!-- Generator: Adobe Illustrator 17.1.0, SVG Export Plug-In . SVG Version: 6.00 Build 0)  -->
<!DOCTYPE svg PUBLIC "-//W3C//DTD SVG 1.1//EN" "http://www.w3.org/Graphics/SVG/1.1/DTD/svg11.dtd">
<svg version="1.1" xmlns="http://www.w3.org/2000/svg" xmlns:xlink="http://www.w3.org/1999/xlink" x="0px" y="0px"
	 viewBox="0 0 80.7341309 62.7698517" enable-background="new 0 0 80.7341309 62.7698517" xml:space="preserve">
<g id="Layer_2">
</g>
<g id="Isolation_Mode">
	<g>
		<path fill="#BB2025" d="M37.25,5.8948479c-11.8051147,0-21.375,9.5698853-21.375,21.375
			c0,11.8050537,9.5698853,21.375,21.375,21.375s21.375-9.5699463,21.375-21.375
			C58.625,15.4647331,49.0551147,5.8948479,37.25,5.8948479z M37.25,45.1448479c-9.8720703,0-17.875-8.0029297-17.875-17.875
			c0-9.8721313,8.0029297-17.875,17.875-17.875s17.875,8.0028687,17.875,17.875
			C55.125,37.1419182,47.1220703,45.1448479,37.25,45.1448479z"/>
		<g>
			<polygon points="30,19.8948517 34.625,2.3948517 43.5,21.2698517 76,11.3948517 47.125,31.1448517 56.75,55.7698517 
				34.625,37.1448517 0,62.7698517 25.75,31.2698517 7.625,17.0198517 			"/>
			<linearGradient id="SVGID_1_" gradientUnits="userSpaceOnUse" x1="-0.123835" y1="55.2595329" x2="79.1221924" y2="9.5068159">
				<stop  offset="0" style="stop-color:#C1852B"/>
				<stop  offset="0.7198468" style="stop-color:#DFC124"/>
			</linearGradient>
			<linearGradient id="SVGID_2_" gradientUnits="userSpaceOnUse" x1="1.7889481" y1="31.2477436" x2="80.7341309" y2="31.2477436">
				<stop  offset="0.1112415" style="stop-color:#DFC124"/>
				<stop  offset="1" style="stop-color:#C1852B"/>
			</linearGradient>
			<polygon fill="url(#SVGID_1_)" stroke="url(#SVGID_2_)" stroke-width="0.5" stroke-miterlimit="10" points="33.25,18.2281857 
				37.875,0.728185 46.75,19.6031857 79.25,9.7281847 50.375,29.4781857 60,54.1031837 37.875,35.4781837 3.25,61.1031837 
				29,29.6031857 10.875,15.3531847 			"/>
		</g>
	</g>
</g>
</svg>
