<?xml version="1.0" encoding="utf-8"?>
<!-- Generator: Adobe Illustrator 17.1.0, SVG Export Plug-In . SVG Version: 6.00 Build 0)  -->
<!DOCTYPE svg PUBLIC "-//W3C//DTD SVG 1.1//EN" "http://www.w3.org/Graphics/SVG/1.1/DTD/svg11.dtd">
<svg version="1.1" id="Layer_5" xmlns="http://www.w3.org/2000/svg" xmlns:xlink="http://www.w3.org/1999/xlink" x="0px" y="0px"
	 viewBox="0 0 178.625 62.7698517" enable-background="new 0 0 178.625 62.7698517" xml:space="preserve">
<g>
	<g>
		<polygon points="30,19.8948517 34.625,2.3948517 43.5,21.2698517 76,11.3948517 47.125,31.1448517 56.75,55.7698517 
			34.625,37.1448517 0,62.7698517 25.75,31.2698517 7.625,17.0198517 		"/>
		<linearGradient id="SVGID_1_" gradientUnits="userSpaceOnUse" x1="-0.123835" y1="55.2595329" x2="79.1221924" y2="9.5068159">
			<stop  offset="0" style="stop-color:#C1852B"/>
			<stop  offset="0.7198468" style="stop-color:#DFC124"/>
		</linearGradient>
		<linearGradient id="SVGID_2_" gradientUnits="userSpaceOnUse" x1="1.7889481" y1="31.2477436" x2="80.7341309" y2="31.2477436">
			<stop  offset="0.1112415" style="stop-color:#DFC124"/>
			<stop  offset="1" style="stop-color:#C1852B"/>
		</linearGradient>
		<polygon fill="url(#SVGID_1_)" stroke="url(#SVGID_2_)" stroke-width="0.5" stroke-miterlimit="10" points="33.25,18.2281857 
			37.875,0.728185 46.75,19.6031857 79.25,9.7281847 50.375,29.4781857 60,54.1031837 37.875,35.4781837 3.25,61.1031837 
			29,29.6031857 10.875,15.3531847 		"/>
	</g>
	<g>
		<rect x="48.2083435" y="18.3948479" fill="#E1C222" width="129.6666565" height="0.333313"/>
		<rect x="48.2083435" y="21.8948479" fill="#E1C222" width="129.6666565" height="0.333313"/>
		<rect x="48.2083435" y="28.8948479" fill="#E1C222" width="129.6666565" height="0.333313"/>
		<rect x="48.2083435" y="25.3948479" fill="#E1C222" width="129.6666565" height="0.333313"/>
		<rect x="48.2083435" y="32.3948479" fill="#E1C222" width="129.6666565" height="0.333313"/>
	</g>
	<g>
		<path d="M33.215332,20.0906487c0.6689453-0.3847656,1.2333984-0.6694336,1.6933594-0.8540039
			c0.4604492-0.184082,0.9326172-0.3125,1.4169922-0.3842773s1.1118164-0.1074219,1.8818359-0.1074219
			c0.9169922,0,1.737793,0.1367188,2.4619141,0.4111328c0.7246094,0.2739258,1.2905273,0.6572266,1.6982422,1.1499023
			s0.6118164,1.0424805,0.6118164,1.6494141c0,0.4960938-0.1318359,0.9609375-0.3964844,1.3950195
			c-0.2641602,0.434082-0.6469727,0.8125-1.1474609,1.1352539c-0.5009766,0.3232422-1.0825195,0.5678711-1.7451172,0.734375
			c0.4501953,1.2397461,1.0654297,2.4536133,1.8452148,3.6416016c0.7797852,1.1875,1.5483398,2.0864258,2.3051758,2.6967773
			l-0.1416016,0.0390625c-0.9462891,0.3227539-1.9008789,0.7978516-2.8632812,1.4243164l-0.1420898,0.078125l-0.0390625-0.3037109
			c-0.2871094-1.6933594-0.6689453-3.269043-1.1455078-4.7275391c-0.2607422-0.7866211-0.4682617-1.3540039-0.621582-1.703125
			l-0.0390625-0.1030273c-0.4892578,0.2348633-1.0913086,0.402832-1.8056641,0.5039062l-0.0786133,0.0200195v3.6655273
			l1.7226562,1.8256836h-5.0507812l-0.1616211-0.2592773h4.6547852l-1.4047852-1.5024414v-3.9501953l0.1811523-0.0195312
			c0.7666016-0.0913086,1.3950195-0.2397461,1.8842773-0.4453125l-0.2202148-0.5576172
			c-0.4863281,0.1367188-0.8549805,0.2167969-1.105957,0.2397461l-1.2827148,0.1616211v4.3706055l1.1064453,1.159668h-4.3120117
			l1.2626953-1.159668v-3.2890625c-0.0913086,0.0195312-0.2080078,0.0449219-0.3500977,0.0756836
			c-0.1416016,0.03125-0.2255859,0.0532227-0.2519531,0.065918c-0.078125,0.0263672-0.1582031,0.0546875-0.2397461,0.0859375
			c-0.081543,0.0307617-0.1679688,0.0546875-0.2592773,0.0708008l-0.0834961,0.0195312l-0.078125-0.2006836
			c0.3427734-0.1240234,0.5629883-0.1972656,0.6606445-0.2202148l0.6020508-0.1367188v-0.5239258
			c-0.3916016,0.0166016-0.8730469,0.1030273-1.4438477,0.2592773l-0.0976562,0.0439453
			c0-0.0258789,0.0029297-0.0517578,0.0097656-0.078125c0.0063477-0.0258789,0.0097656-0.0405273,0.0097656-0.0439453
			c0-0.0327148,0.0600586-0.2055664,0.1811523-0.519043v0.0048828c0.0097656,0,0.0551758-0.1499023,0.1367188-0.4501953
			c0-0.0258789,0.0068359-0.0522461,0.0195312-0.078125c0.137207,0.0097656,0.237793,0.0161133,0.3012695,0.0195312
			s0.1230469,0.0073242,0.1787109,0.012207c0.0551758,0.0048828,0.1240234,0.0073242,0.2055664,0.0073242
			c0.0649414,0,0.2314453-0.0131836,0.4990234-0.0390625L34.21875,20.5901604
			c-0.3134766-0.1958008-0.6201172-0.3491211-0.9199219-0.4599609L33.215332,20.0906487z M36.1811523,19.8460197v5.2763672
			h0.0834961c0.0947266,0,0.2480469-0.0214844,0.4599609-0.0639648v-4.8110352
			c0.3588867-0.0913086,0.7861328-0.137207,1.2822266-0.137207c0.6787109,0,1.2197266,0.097168,1.6225586,0.2915039
			c0.402832,0.1938477,0.7236328,0.5112305,0.9619141,0.9516602c-0.4765625-0.3911133-0.8964844-0.659668-1.2602539-0.8046875
			c-0.3642578-0.1455078-0.8051758-0.2182617-1.3242188-0.2182617c-0.375,0-0.7226562,0.0395508-1.0424805,0.1176758v4.6103516
			h0.1030273c1.3212891-0.2412109,2.2861328-0.6181641,2.8950195-1.1303711
			C40.5708008,23.415844,40.875,22.7239494,40.875,21.8528557c0-0.4438477-0.1313477-0.8491211-0.394043-1.2163086
			s-0.6206055-0.6567383-1.0742188-0.8686523c-0.4536133-0.2124023-0.9526367-0.3183594-1.4975586-0.3183594
			C37.2304688,19.4495354,36.6542969,19.5818596,36.1811523,19.8460197z M40.9140625,25.7239494
			c0.1401367,0.4506836,0.3383789,0.9365234,0.5947266,1.4584961c0.2563477,0.5224609,0.5537109,1.0361328,0.8930664,1.5419922
			s0.6855469,0.9541016,1.0375977,1.3457031c0.5942383,0.65625,1.3022461,1.2382812,2.1245117,1.7475586
			c-0.8256836,0.2216797-1.5576172,0.4707031-2.1953125,0.7460938c-0.6376953,0.2758789-1.309082,0.6357422-2.0141602,1.0795898
			l-0.078125,0.0585938l-0.2006836-0.1616211c1.2431641-0.809082,2.5727539-1.4111328,3.9887695-1.8061523
			c-0.7114258-0.4697266-1.3164062-0.9829102-1.815918-1.5390625c-0.4990234-0.5561523-1.0161133-1.284668-1.5512695-2.1855469
			c-0.2871094-0.5053711-0.4814453-0.8666992-0.5825195-1.0839844c-0.1010742-0.2167969-0.2612305-0.6108398-0.4794922-1.1816406
			l-0.0834961-0.1616211c0.4536133-0.1762695,0.8071289-0.3305664,1.0600586-0.4624023
			c0.2524414-0.1323242,0.4882812-0.2929688,0.7070312-0.4824219c0.8286133-0.6655273,1.2431641-1.5332031,1.2431641-2.6035156
			c0-0.597168-0.2612305-1.2724609-0.7832031-2.0263672c0.6689453,0.590332,1.003418,1.3930664,1.003418,2.4082031
			c0,0.6816406-0.2514648,1.3115234-0.7539062,1.8891602C42.5258789,24.8821526,41.8212891,25.3552971,40.9140625,25.7239494z"/>
		<path d="M56.3505859,25.2786369c0,0.9956055-0.1220703,1.8984375-0.3671875,2.7089844
			c-0.2446289,0.8110352-0.5991211,1.5019531-1.0644531,2.0727539c-0.4648438,0.5712891-1.0253906,1.0068359-1.6811523,1.3071289
			c-0.6557617,0.2998047-1.3881836,0.4501953-2.1972656,0.4501953c-1.0932617,0-2.0698242-0.2797852-2.9291992-0.8393555
			c-0.8598633-0.5595703-1.5297852-1.3413086-2.0092773-2.3447266c-0.4794922-1.0029297-0.7197266-2.1411133-0.7197266-3.4135742
			c0-0.9985352,0.1308594-1.9101562,0.3916016-2.7358398c0.2612305-0.8256836,0.6357422-1.5273438,1.1235352-2.1044922
			c0.487793-0.5776367,1.078125-1.0214844,1.7714844-1.331543c0.6933594-0.3095703,1.4628906-0.4648438,2.3076172-0.4648438
			c0.7998047,0,1.5322266,0.1591797,2.1977539,0.4770508c0.6655273,0.3183594,1.2338867,0.7709961,1.7055664,1.3583984
			s0.8344727,1.2919922,1.0888672,2.1142578C56.2236328,23.3552971,56.3505859,24.2703362,56.3505859,25.2786369z
			 M54.1240234,24.9998283c0-1.7163086-0.2075195-3.0395508-0.621582-3.9692383
			c-0.2319336-0.4794922-0.5761719-0.8632812-1.0327148-1.1503906c-0.4570312-0.2871094-0.9545898-0.4306641-1.4931641-0.4306641
			c-2.2709961,0-3.40625,1.9970703-3.40625,5.9907227c0,3.6904297,1.1157227,5.5356445,3.3476562,5.5356445
			c1.1225586,0,1.9643555-0.5825195,2.5253906-1.7475586c0.1728516-0.3881836,0.3076172-0.7729492,0.4038086-1.1547852
			s0.1665039-0.8149414,0.2104492-1.2998047C54.1015625,26.2893791,54.1240234,25.6980705,54.1240234,24.9998283z
			 M54.1875,19.1072502c0.6459961,0.3129883,1.203125,0.7753906,1.6713867,1.387207s0.8276367,1.3500977,1.0791016,2.2148438
			s0.3769531,1.809082,0.3769531,2.8339844c0,1.0307617-0.1435547,1.9755859-0.4306641,2.8334961
			c-0.2871094,0.8583984-0.6992188,1.6064453-1.2358398,2.2441406c-0.5366211,0.6381836-1.1713867,1.1274414-1.9038086,1.4682617
			c-0.7329102,0.3408203-1.534668,0.5117188-2.4057617,0.5117188c-1.1289062,0-2.2055664-0.3818359-3.2299805-1.1455078V31.396801
			c0.8417969,0.6000977,1.8920898,0.9003906,3.1518555,0.9003906c0.8320312,0,1.6010742-0.1640625,2.3076172-0.4916992
			c0.706543-0.328125,1.3203125-0.796875,1.8427734-1.4072266c0.5219727-0.6103516,0.9223633-1.3295898,1.2016602-2.1582031
			c0.2788086-0.8291016,0.418457-1.7280273,0.418457-2.6967773c0-0.9853516-0.1118164-1.8920898-0.3354492-2.7192383
			s-0.5473633-1.5463867-0.9716797-2.1582031s-0.9365234-1.0986328-1.5366211-1.4609375V19.1072502z M53.1450195,20.9519768
			c-0.4375-0.2509766-0.7905273-0.4208984-1.0595703-0.5087891c-0.2695312-0.0878906-0.5654297-0.1323242-0.8886719-0.1323242
			c-1.7749023,0-2.6621094,1.7441406-2.6621094,5.2324219c0,2.5219727,0.5463867,4.1992188,1.6396484,5.03125l-0.0786133,0.0976562
			c-0.4633789-0.3198242-0.8320312-0.7006836-1.105957-1.1425781c-0.2744141-0.4423828-0.472168-0.9838867-0.5947266-1.625
			s-0.1835938-1.4414062-0.1835938-2.4008789c0-3.621582,0.9887695-5.4326172,2.9658203-5.4326172
			c0.4111328,0,0.7919922,0.0766602,1.1430664,0.2299805C52.6708984,20.4549065,52.9458008,20.6717033,53.1450195,20.9519768z"/>
		<path d="M68.5180664,19.2049065l-0.1171875,0.2006836c-0.5581055,0.9624023-1.0668945,1.9853516-1.5268555,3.0688477
			l-0.0786133,0.2202148l-0.1220703-0.0585938c-0.1079102-0.6660156-0.3022461-1.2407227-0.5825195-1.7255859
			c-0.2807617-0.484375-0.6333008-0.8564453-1.0571289-1.1157227c-0.4243164-0.2592773-0.8925781-0.3891602-1.4047852-0.3891602
			c-0.4277344,0-0.8486328,0.1225586-1.2626953,0.3671875c-0.4145508,0.2446289-0.7421875,0.5644531-0.9838867,0.9589844
			c-0.1992188,0.3364258-0.3623047,0.7138672-0.4892578,1.1333008c-0.1274414,0.4194336-0.2211914,0.8930664-0.2817383,1.421875
			c-0.0600586,0.5283203-0.090332,1.1274414-0.090332,1.7958984c0,1.2270508,0.1425781,2.2851562,0.4282227,3.1743164
			s0.7016602,1.5678711,1.2480469,2.0356445c0.5463867,0.4682617,1.1967773,0.7026367,1.9501953,0.7026367
			c0.6137695,0,1.1435547-0.1347656,1.5908203-0.4038086c0.4467773-0.269043,0.8032227-0.6679688,1.0693359-1.1967773
			c0.2661133-0.5283203,0.4350586-1.1713867,0.5068359-1.9282227c0.0224609-0.2675781,0.1240234-0.4013672,0.3032227-0.4013672
			c0.2675781,0,0.4013672,0.2138672,0.4013672,0.6411133c0,0.3164062-0.0532227,0.6933594-0.1591797,1.1303711
			c-0.105957,0.4375-0.2338867,0.7963867-0.3842773,1.0771484c-0.2021484,0.4013672-0.4794922,0.7446289-0.8320312,1.0302734
			c-0.3520508,0.2851562-0.7631836,0.5024414-1.2333984,0.6508789c-0.4697266,0.1484375-0.9902344,0.2226562-1.5610352,0.2226562
			c-0.8388672,0-1.6020508-0.152832-2.2905273-0.4575195c-0.6884766-0.3051758-1.2758789-0.746582-1.762207-1.3242188
			c-0.4858398-0.5776367-0.8579102-1.2773438-1.1157227-2.0996094s-0.3867188-1.734375-0.3867188-2.7358398
			c0-1.2333984,0.2368164-2.355957,0.7099609-3.3671875c0.4726562-1.0117188,1.1240234-1.8061523,1.9526367-2.3837891
			s1.7456055-0.8662109,2.7504883-0.8662109c0.4995117,0,0.8803711,0.0292969,1.1430664,0.0878906
			c0.2626953,0.059082,0.7167969,0.2104492,1.362793,0.4555664c0.4863281,0.1860352,0.8745117,0.2788086,1.1650391,0.2788086
			c0.3588867,0,0.6850586-0.0927734,0.9790039-0.2788086L68.5180664,19.2049065z M68.8608398,27.6282463
			c-0.0488281,0.7797852-0.1572266,1.4355469-0.3251953,1.9672852c-0.168457,0.5317383-0.4204102,1.0048828-0.7563477,1.4194336
			c-0.4111328,0.4990234-0.9331055,0.8881836-1.5664062,1.1674805c-0.6328125,0.2788086-1.3212891,0.418457-2.0654297,0.418457
			c-1.0800781,0-2.0878906-0.3344727-3.0244141-1.003418v-0.0834961c0.8481445,0.5483398,1.8500977,0.8222656,3.0048828,0.8222656
			c0.6982422,0,1.3461914-0.1337891,1.9433594-0.4013672s1.0927734-0.6474609,1.487793-1.1401367
			c0.3198242-0.3881836,0.5512695-0.8061523,0.6948242-1.2529297c0.1435547-0.4472656,0.2446289-1.0522461,0.3037109-1.815918
			l0.0195312-0.2202148L68.8608398,27.6282463z M65.6748047,20.9129143
			c-0.355957-0.2871094-0.6479492-0.4794922-0.8759766-0.5776367c-0.2285156-0.0976562-0.4995117-0.1464844-0.8125-0.1464844
			c-0.5483398,0-1.0126953,0.1826172-1.3925781,0.5478516c-0.3803711,0.3657227-0.6674805,0.9106445-0.8613281,1.6347656
			c-0.1943359,0.7246094-0.2915039,1.6069336-0.2915039,2.6479492c0,0.7246094,0.0507812,1.3974609,0.1518555,2.019043
			s0.2495117,1.1728516,0.4453125,1.6542969c0.1958008,0.480957,0.4331055,0.8808594,0.7124023,1.1992188
			c0.2788086,0.3178711,0.5976562,0.5522461,0.956543,0.7021484v0.0976562
			c-0.3916016-0.0844727-0.7412109-0.2763672-1.0498047-0.574707c-0.3081055-0.2988281-0.5756836-0.6982422-0.8027344-1.1992188
			c-0.2265625-0.5009766-0.3989258-1.0859375-0.5161133-1.7548828c-0.1176758-0.668457-0.1762695-1.3833008-0.1762695-2.1435547
			c0-1.6445312,0.2387695-2.9003906,0.7167969-3.7685547s1.1674805-1.3017578,2.0678711-1.3017578
			c0.3657227,0,0.6708984,0.0600586,0.9155273,0.1811523c0.2446289,0.1206055,0.515625,0.3408203,0.8125,0.6606445V20.9129143z
			 M69.2231445,19.6892815l-0.1030273,0.1811523c-0.7275391,1.246582-1.2954102,2.355957-1.703125,3.328125l-0.2592773-0.1416016
			l0.9594727-1.9433594l0.8808594-1.565918L69.2231445,19.6892815z"/>
		<path d="M69.9814453,18.9065666h4.5712891l-1.3408203,1.3017578v5.9169922l0.5185547-0.621582v-5.2124023l1.1064453-1.0620117
			l0.1367188,0.1958008l-1.0029297,0.9838867v4.7915039L77,21.5735588c0.4404297-0.5317383,0.6606445-1,0.6606445-1.4042969
			c0-0.2480469-0.1230469-0.4873047-0.3691406-0.7172852c-0.246582-0.2299805-0.5444336-0.3793945-0.8935547-0.4477539v-0.0976562
			h5.1538086v0.0976562c-0.3623047,0.0849609-0.6567383,0.1850586-0.8833008,0.3012695
			c-0.2270508,0.1157227-0.5410156,0.3300781-0.9423828,0.6435547c-0.375,0.2836914-0.6645508,0.527832-0.8686523,0.7314453
			c-0.2041016,0.2041016-0.5229492,0.5688477-0.9570312,1.09375l-1.3603516,1.6201172l3.6069336,7.0185547l1.6445312,1.0620117
			h-5.0703125l1.2822266-0.9589844l-2.4277344-4.8554688l-1.6049805,1.9482422v2.8041992l1.6049805,1.8647461h-5.0117188
			l-0.2592773-0.2592773h4.6689453l-1.2431641-1.5024414v-3.0297852l1.7036133-2.1044922l-0.2202148-0.4404297l-2.0019531,2.4223633
			v3.0493164l1.1796875,1.0620117h-4.4882812l1.3408203-1.1401367V20.0711174L69.9814453,18.9065666z M82.0507812,19.8069572
			c-0.5219727,0.0292969-1.0073242,0.175293-1.4560547,0.4379883c-0.4482422,0.2626953-0.9321289,0.6777344-1.4511719,1.2456055
			l-1.703125,1.9038086l3.4506836,7.0185547l2.784668,1.8647461h-6.2353516l-0.2788086-0.2592773h5.6723633l-2.0849609-1.4243164
			l-3.5874023-7.199707l1.8208008-2.0410156c0.5151367-0.5771484,1.0014648-1.0004883,1.4584961-1.2700195
			c0.456543-0.269043,0.9541016-0.4282227,1.4926758-0.4770508L82.0507812,19.8069572z"/>
		<path d="M98.2314453,19.0286369c-0.3623047,0.4960938-0.6298828,0.9692383-0.8027344,1.4194336
			c-0.4140625,1.0180664-0.6816406,1.6201172-0.8027344,1.8061523c-0.0068359,0-0.0195312,0.0195312-0.0390625,0.0585938
			c-0.0263672-0.078125-0.0458984-0.1303711-0.0585938-0.1567383c-0.2314453-0.7436523-0.4296875-1.2421875-0.5947266-1.4951172
			s-0.4609375-0.503418-0.8886719-0.7514648c-0.4599609-0.2802734-0.9414062-0.4208984-1.4433594-0.4208984
			c-0.7412109,0-1.3466797,0.1870117-1.8183594,0.5605469s-0.7070312,0.8608398-0.7070312,1.4609375
			c0,0.5678711,0.2001953,1.034668,0.6015625,1.3999023s1.0292969,0.6542969,1.8847656,0.8662109l1.6396484,0.3818359
			c0.8222656,0.1992188,1.4707031,0.4521484,1.9453125,0.7587891s0.8554688,0.7158203,1.1425781,1.2280273
			c0.2939453,0.5029297,0.4404297,1.0834961,0.4404297,1.7426758c0,0.7241211-0.1845703,1.3759766-0.5556641,1.9550781
			c-0.3701172,0.5795898-0.8867188,1.0297852-1.5507812,1.3510742s-1.4189453,0.4819336-2.2636719,0.4819336
			c-0.6855469,0-1.4599609-0.1142578-2.3251953-0.3427734l-1.1210938-0.2788086
			c-0.5058594-0.1074219-0.8730469-0.1616211-1.1005859-0.1616211c-0.440918,0-0.8696289,0.1274414-1.2875977,0.3818359
			l-0.078125-0.1367188c0.3261719-0.4960938,0.6625977-1.0942383,1.0083008-1.7939453s0.5771484-1.2651367,0.6943359-1.6958008
			l0.1816406,0.0585938c0.0878906,0.675293,0.3007812,1.2563477,0.6386719,1.7421875
			c0.3378906,0.4863281,0.7861328,0.855957,1.3457031,1.1088867s1.2080078,0.3793945,1.9462891,0.3793945
			c0.5478516,0,1.0390625-0.0888672,1.4726562-0.2670898c0.4335938-0.1777344,0.7714844-0.4287109,1.0136719-0.753418
			c0.2412109-0.324707,0.3613281-0.6943359,0.3613281-1.1088867c0-0.9916992-0.4355469-1.7260742-1.3066406-2.2021484
			c-0.3359375-0.1958008-0.6972656-0.3515625-1.0839844-0.4677734c-0.3867188-0.1157227-1.0078125-0.253418-1.8623047-0.4135742
			c-0.8583984-0.1728516-1.5175781-0.3896484-1.9794922-0.6508789c-0.4619141-0.2607422-0.8251953-0.6264648-1.0893555-1.0961914
			c-0.293457-0.5449219-0.4404297-1.1386719-0.4404297-1.7817383c0-1.050293,0.3754883-1.8945312,1.1264648-2.5327148
			c0.75-0.6376953,1.7451172-0.956543,2.9853516-0.956543c0.7275391,0,1.5820312,0.1401367,2.5644531,0.4208984
			c0.4628906,0.1206055,0.8173828,0.1811523,1.0615234,0.1811523c0.3037109,0,0.6513672-0.1079102,1.0429688-0.3232422
			L98.2314453,19.0286369z M98.2314453,25.2786369c0.8945312,0.6757812,1.3408203,1.5991211,1.3408203,2.7705078
			c0,0.8125-0.2207031,1.5595703-0.6630859,2.2412109c-0.4423828,0.6821289-1.0458984,1.2207031-1.8105469,1.6152344
			c-0.765625,0.3950195-1.6044922,0.5922852-2.5185547,0.5922852c-0.6523438,0-1.2871094-0.0668945-1.9033203-0.2006836
			l-1.5615234-0.4013672c-0.3623047-0.078125-0.75-0.1171875-1.1650391-0.1171875
			c-0.3720703,0-0.7128906,0.0732422-1.0229492,0.2202148l-0.1171875-0.3037109
			c0.3261719-0.1469727,0.6738281-0.2202148,1.0424805-0.2202148c0.3623047,0,0.8027344,0.0605469,1.3212891,0.1811523
			l1.5029297,0.3623047c0.5869141,0.1337891,1.2216797,0.2006836,1.9033203,0.2006836
			c0.8359375,0,1.6171875-0.1894531,2.3447266-0.5678711s1.3046875-0.8891602,1.7304688-1.5317383
			c0.4257812-0.6430664,0.6386719-1.3393555,0.6386719-2.0898438c0-1.0444336-0.3544922-1.9399414-1.0625-2.6870117V25.2786369z
			 M90.0527344,24.9217033l0.3183594,0.1806641c0.1308594,0.2285156,0.3242188,0.40625,0.5800781,0.5336914
			s0.6972656,0.269043,1.3242188,0.4257812l1.5664062,0.4013672c0.7666016,0.1894531,1.3271484,0.3491211,1.6835938,0.4794922
			c0.3554688,0.1308594,0.6210938,0.2768555,0.796875,0.4379883c0.1767578,0.1616211,0.3183594,0.3779297,0.4267578,0.6489258
			l-0.0839844,0.0390625c-0.2832031-0.3457031-0.5927734-0.59375-0.9267578-0.7441406
			c-0.3349609-0.1499023-1.0009766-0.3427734-2-0.5776367c-1.0957031-0.2573242-1.8759766-0.4677734-2.3388672-0.6313477
			c-0.4638672-0.1630859-0.7998047-0.3540039-1.0087891-0.5722656
			C90.2080078,25.3440666,90.0957031,25.1370354,90.0527344,24.9217033z M91.2519531,28.0882072
			c0.1308594,0.6201172,0.3496094,1.1254883,0.65625,1.5170898s0.7373047,0.7211914,1.2919922,0.9887695v0.078125
			c-0.6396484-0.1889648-1.1318359-0.4804688-1.4755859-0.8735352c-0.3447266-0.3930664-0.5878906-0.9438477-0.7314453-1.6518555
			L91.2519531,28.0882072z M95.9853516,21.3928947c-0.7216797-0.7636719-1.4902344-1.1455078-2.3056641-1.1455078
			c-0.4960938,0-0.9072266,0.1435547-1.2333984,0.4306641s-0.4892578,0.652832-0.4892578,1.0961914
			c0,0.2807617,0.0693359,0.5253906,0.2080078,0.734375s0.3974609,0.4584961,0.7753906,0.7490234l0.0791016,0.0585938
			l-0.0400391,0.0585938c-0.8710938-0.3720703-1.3066406-0.9267578-1.3066406-1.6640625
			c0-0.5087891,0.1845703-0.9233398,0.5537109-1.2431641c0.3681641-0.3198242,0.8466797-0.4794922,1.4335938-0.4794922
			c0.5576172,0,1.0478516,0.1196289,1.4707031,0.3598633c0.4228516,0.2397461,0.7265625,0.574707,0.9130859,1.0053711
			L95.9853516,21.3928947z M98.8535156,19.4251213L98.75,19.5867424c-0.2021484,0.3295898-0.4287109,0.7568359-0.6796875,1.2822266
			c-0.5449219,1.1191406-0.8193359,1.6806641-0.8222656,1.6835938l-0.2402344-0.0976562l0.8613281-1.762207l0.7246094-1.3847656
			L98.8535156,19.4251213z"/>
		<path d="M111.0986328,18.9065666l-0.7832031,1.4238281l-0.6601562,1.6005859l-0.0976562-0.078125l-0.0195312-0.1176758
			c-0.1933594-0.7504883-0.4648438-1.269043-0.8154297-1.5561523s-0.8886719-0.4306641-1.6123047-0.4306641
			c-0.1767578,0-0.4638672,0.0126953-0.8613281,0.0390625l-0.1230469,0.0195312v10.605957l1.1455078,1.0620117h-4.4736328
			l1.3857422-1.1401367v-9.7446289h-0.6416016c-0.7177734,0-1.2177734,0.1264648-1.5,0.3793945
			c-0.2822266,0.2524414-0.4511719,0.7216797-0.5068359,1.4067383h-0.2587891
			c0.0839844-0.7861328,0.2880859-1.3237305,0.6113281-1.6123047c0.3232422-0.2890625,0.8808594-0.4335938,1.6738281-0.4335938
			h0.6220703v-0.484375c-0.3818359-0.0390625-0.7021484-0.0585938-0.9599609-0.0585938
			c-0.5644531,0-1.0214844,0.0742188-1.3701172,0.2226562c-0.3496094,0.1484375-0.6074219,0.3891602-0.7753906,0.7216797
			c-0.1679688,0.3330078-0.2617188,0.7734375-0.2822266,1.3217773h-0.1220703
			c-0.1699219-0.5644531-0.3408203-1.0473633-0.5136719-1.4487305s-0.4355469-0.9350586-0.7880859-1.6005859l-0.0585938-0.0976562
			H111.0986328z M109.0966797,21.0501213c-0.4853516-0.3198242-1.0683594-0.4794922-1.7470703-0.4794922
			c-0.1855469,0-0.3457031,0.0063477-0.4794922,0.0195312l0.0390625,9.8422852l1.546875,1.8452148h-4.9921875l-0.2207031-0.2592773
			h4.6699219l-1.3027344-1.5024414V20.3108635h0.5390625c0.6357422,0,1.0859375,0.0493164,1.3486328,0.1469727
			C108.7597656,20.5559807,108.9599609,20.7532463,109.0966797,21.0501213z M111.7207031,19.5281487
			c-0.2675781,0.3359375-0.5,0.703125-0.6972656,1.1010742c-0.1982422,0.3979492-0.4404297,0.9868164-0.7275391,1.7666016
			l-0.0390625,0.0981445l-0.2197266-0.2006836l0.0390625-0.078125c0.5214844-1.4521484,1.0029297-2.4082031,1.4433594-2.8681641
			L111.7207031,19.5281487z"/>
		<path d="M118.1367188,18.9065666l-0.9990234,1.1645508l1.5810547,4.2680664l0.4013672-0.2202148l-1.4433594-3.8520508
			l1.0224609-1.1992188l0.2597656,0.0981445l-0.9794922,1.1645508l1.3613281,3.6464844l0.4599609-0.3818359
			c0.0849609-0.0551758,0.2119141-0.1679688,0.3818359-0.3374023c0.15625,0.7109375,0.4169922,1.378418,0.7832031,2.0014648
			c-0.1337891-0.0126953-0.2744141-0.0195312-0.4208984-0.0195312c-0.6044922,0-1.0595703,0.1010742-1.3662109,0.3037109
			l1.7871094,4.7915039l1.4628906,1.1401367h-4.9335938l1.3457031-1.1401367l-1.0859375-2.8486328
			c-0.6953125,0.7016602-1.2480469,1.3901367-1.6591797,2.0654297l-0.2255859-0.0585938
			c0.3955078-0.6591797,0.9707031-1.3754883,1.7275391-2.1489258l0.0791016-0.0976562l-0.1816406-0.4404297
			c-0.3330078,0.2739258-0.6865234,0.6313477-1.0615234,1.0717773c-0.3759766,0.4404297-0.6689453,0.8383789-0.8808594,1.1943359
			l-0.1816406-0.3037109c-0.3291016-0.5219727-0.7636719-1.137207-1.3017578-1.8452148l-0.0830078-0.1171875
			c-0.5058594,1.1484375-0.7587891,2.0830078-0.7587891,2.8041992c0,0.378418,0.0683594,0.7006836,0.2050781,0.9667969
			c0.1376953,0.2661133,0.4765625,0.7397461,1.0185547,1.421875c0.0224609,0.0224609,0.0517578,0.0576172,0.0878906,0.1049805
			s0.0800781,0.1054688,0.1318359,0.1738281h-5.2949219l-0.2011719-0.2592773h4.9921875l-0.1806641-0.2202148
			c-0.4248047-0.515625-0.7041016-0.9169922-0.8398438-1.2041016c-0.1347656-0.2871094-0.203125-0.621582-0.203125-1.003418
			c0-0.6523438,0.2744141-1.6542969,0.8222656-3.0048828l-0.4404297-0.440918
			c-0.0810547,0.2055664-0.1875,0.5126953-0.3183594,0.9204102l-0.3222656,0.9838867
			c-0.1728516,0.5317383-0.2597656,0.9785156-0.2597656,1.3408203c0,0.2514648,0.0253906,0.4658203,0.0761719,0.6435547
			c0.0498047,0.1777344,0.1416016,0.3588867,0.2734375,0.543457c0.1328125,0.184082,0.34375,0.4233398,0.6337891,0.7167969
			c0.0166016,0.0327148,0.0693359,0.0932617,0.1572266,0.1811523h-4.8896484
			c0.5058594-0.2641602,0.9150391-0.5302734,1.2285156-0.7978516s0.6054688-0.5952148,0.8759766-0.9833984
			c0.5673828-0.8876953,1.0234375-1.8242188,1.3652344-2.8095703c0.0292969-0.0751953,0.1484375-0.4550781,0.3574219-1.1401367
			l0.0439453-0.1225586c-0.3427734-0.293457-0.8378906-0.4731445-1.4873047-0.5385742
			c0.375-0.5869141,0.6494141-1.1499023,0.8222656-1.6884766l0.6015625,0.5825195
			c0.2607422,0.2089844,0.4423828,0.3491211,0.5429688,0.4208984l0.1816406-0.4208984l-0.1220703-0.0976562
			c-0.28125-0.2382812-0.4208984-0.3588867-0.4208984-0.3623047c-0.0849609-0.0849609-0.21875-0.1992188-0.4013672-0.3427734
			l-0.0791016-0.0585938l0.1621094-0.2202148c0.3583984,0.2412109,0.6845703,0.5087891,0.9785156,0.8027344l1.3457031-3.6708984
			l-1.0419922-1.1206055H118.1367188z M115.2734375,20.9324455l-1.546875,4.1064453
			c0.578125,0.6035156,1.0048828,1.105957,1.2822266,1.5073242l0.5439453,0.7587891l0.3417969-0.4208984
			c-0.4111328-0.6459961-0.9394531-1.2807617-1.5849609-1.9038086l1.2431641-3.3085938L115.2734375,20.9324455z
			 M115.7138672,22.0535393l-1.0625,2.8481445L114.75,25.0193596l0.4013672,0.4404297
			c0.234375,0.2739258,0.5087891,0.6430664,0.8222656,1.105957l0.0976562,0.137207
			c0.2314453-0.2905273,0.5595703-0.6376953,0.9833984-1.0424805L115.7138672,22.0535393z M121.0439453,23.7176018
			c0.1367188,0.5874023,0.4970703,1.3964844,1.0810547,2.4272461c-0.078125-0.0126953-0.1640625-0.0195312-0.2587891-0.0195312
			c-0.0361328-0.0126953-0.296875-0.0405273-0.7832031-0.0830078c-0.4765625-0.0258789-0.7363281-0.0390625-0.7783203-0.0390625
			h-0.2001953l1.6191406,4.331543l2.1884766,1.9428711h-5.6533203l-0.2001953-0.2592773h5.1923828l-1.7470703-1.5664062
			l-1.7421875-4.6103516c0.2021484-0.0522461,0.4560547-0.078125,0.7636719-0.078125
			c0.3066406,0,0.640625,0.0195312,1.0029297,0.0585938l0.15625,0.0195312
			c-0.2998047-0.5546875-0.5107422-0.9814453-0.6308594-1.2797852c-0.1210938-0.2988281-0.2236328-0.640625-0.3085938-1.0253906
			L121.0439453,23.7176018z"/>
		<path d="M124.7148438,20.0906487c0.6689453-0.3847656,1.2333984-0.6694336,1.6933594-0.8540039
			c0.4599609-0.184082,0.9326172-0.3125,1.4169922-0.3842773s1.1123047-0.1074219,1.8818359-0.1074219
			c0.9169922,0,1.7373047,0.1367188,2.4619141,0.4111328c0.7246094,0.2739258,1.2900391,0.6572266,1.6982422,1.1499023
			s0.6123047,1.0424805,0.6123047,1.6494141c0,0.4960938-0.1328125,0.9609375-0.3964844,1.3950195
			c-0.2646484,0.434082-0.6474609,0.8125-1.1484375,1.1352539c-0.5009766,0.3232422-1.0820312,0.5678711-1.7441406,0.734375
			c0.4501953,1.2397461,1.0654297,2.4536133,1.8447266,3.6416016c0.7802734,1.1875,1.5478516,2.0864258,2.3056641,2.6967773
			l-0.1425781,0.0390625c-0.9462891,0.3227539-1.9003906,0.7978516-2.8632812,1.4243164l-0.1416016,0.078125l-0.0390625-0.3037109
			c-0.2871094-1.6933594-0.6689453-3.269043-1.1455078-4.7275391c-0.2607422-0.7866211-0.4677734-1.3540039-0.6210938-1.703125
			l-0.0390625-0.1030273c-0.4902344,0.2348633-1.0917969,0.402832-1.8066406,0.5039062l-0.078125,0.0200195v3.6655273
			l1.7226562,1.8256836h-5.0507812l-0.1611328-0.2592773h4.6542969l-1.4042969-1.5024414v-3.9501953l0.1806641-0.0195312
			c0.7666016-0.0913086,1.3945312-0.2397461,1.8837891-0.4453125l-0.2197266-0.5576172
			c-0.4863281,0.1367188-0.8544922,0.2167969-1.1064453,0.2397461l-1.2822266,0.1616211v4.3706055l1.1064453,1.159668h-4.3125
			l1.2636719-1.159668v-3.2890625c-0.0917969,0.0195312-0.2080078,0.0449219-0.3505859,0.0756836
			c-0.1416016,0.03125-0.2255859,0.0532227-0.2519531,0.065918c-0.078125,0.0263672-0.1582031,0.0546875-0.2392578,0.0859375
			c-0.0820312,0.0307617-0.1689453,0.0546875-0.2597656,0.0708008l-0.0830078,0.0195312l-0.0791016-0.2006836
			c0.3427734-0.1240234,0.5634766-0.1972656,0.6611328-0.2202148l0.6025391-0.1367188v-0.5239258
			c-0.3916016,0.0166016-0.8730469,0.1030273-1.4443359,0.2592773l-0.0976562,0.0439453
			c0-0.0258789,0.0029297-0.0517578,0.0097656-0.078125c0.0068359-0.0258789,0.0097656-0.0405273,0.0097656-0.0439453
			c0-0.0327148,0.0605469-0.2055664,0.1806641-0.519043v0.0048828c0.0097656,0,0.0556641-0.1499023,0.1376953-0.4501953
			c0-0.0258789,0.0058594-0.0522461,0.0195312-0.078125c0.1367188,0.0097656,0.2373047,0.0161133,0.3007812,0.0195312
			s0.1230469,0.0073242,0.1787109,0.012207s0.1240234,0.0073242,0.2050781,0.0073242c0.0654297,0,0.2324219-0.0131836,0.5-0.0390625
			l-0.0205078-4.8110352c-0.3125-0.1958008-0.6191406-0.3491211-0.9199219-0.4599609L124.7148438,20.0906487z
			 M127.6806641,19.8460197v5.2763672h0.0830078c0.0947266,0,0.2480469-0.0214844,0.4609375-0.0639648v-4.8110352
			c0.3583984-0.0913086,0.7861328-0.137207,1.2822266-0.137207c0.6787109,0,1.21875,0.097168,1.6220703,0.2915039
			c0.4033203,0.1938477,0.7236328,0.5112305,0.9619141,0.9516602c-0.4765625-0.3911133-0.8964844-0.659668-1.2607422-0.8046875
			c-0.3632812-0.1455078-0.8046875-0.2182617-1.3232422-0.2182617c-0.3759766,0-0.7226562,0.0395508-1.0429688,0.1176758v4.6103516
			h0.1025391c1.3222656-0.2412109,2.2871094-0.6181641,2.8955078-1.1303711S132.375,22.7239494,132.375,21.8528557
			c0-0.4438477-0.1318359-0.8491211-0.3945312-1.2163086s-0.6210938-0.6567383-1.0742188-0.8686523
			c-0.453125-0.2124023-0.953125-0.3183594-1.4980469-0.3183594
			C128.7294922,19.4495354,128.1542969,19.5818596,127.6806641,19.8460197z M132.4140625,25.7239494
			c0.1396484,0.4506836,0.3378906,0.9365234,0.5947266,1.4584961c0.2558594,0.5224609,0.5537109,1.0361328,0.8925781,1.5419922
			c0.3398438,0.5058594,0.6855469,0.9541016,1.0380859,1.3457031c0.59375,0.65625,1.3017578,1.2382812,2.1240234,1.7475586
			c-0.8261719,0.2216797-1.5576172,0.4707031-2.1953125,0.7460938c-0.6376953,0.2758789-1.3095703,0.6357422-2.0136719,1.0795898
			l-0.0791016,0.0585938l-0.2001953-0.1616211c1.2431641-0.809082,2.5722656-1.4111328,3.9892578-1.8061523
			c-0.7119141-0.4697266-1.3173828-0.9829102-1.8164062-1.5390625s-1.0166016-1.284668-1.5517578-2.1855469
			c-0.2871094-0.5053711-0.4804688-0.8666992-0.5820312-1.0839844c-0.1015625-0.2167969-0.2607422-0.6108398-0.4794922-1.1816406
			l-0.0830078-0.1616211c0.453125-0.1762695,0.8066406-0.3305664,1.0595703-0.4624023
			c0.2529297-0.1323242,0.4882812-0.2929688,0.7070312-0.4824219c0.8291016-0.6655273,1.2431641-1.5332031,1.2431641-2.6035156
			c0-0.597168-0.2607422-1.2724609-0.7832031-2.0263672c0.6689453,0.590332,1.0039062,1.3930664,1.0039062,2.4082031
			c0,0.6816406-0.2519531,1.3115234-0.7539062,1.8891602C134.0253906,24.8821526,133.3203125,25.3552971,132.4140625,25.7239494z"/>
	</g>
	<g>
		<path d="M143.1733398,22.928051c0.4082031,0.1552734,0.7382812,0.4404297,0.9892578,0.8554688v-0.8500977h1.6396484v5.5976562
			c0,0.7617188-0.1396484,1.3354492-0.4179688,1.7216797c-0.4804688,0.6640625-1.4003906,0.9960938-2.7607422,0.9960938
			c-0.8222656,0-1.4931641-0.1479492-2.0117188-0.4438477c-0.5195312-0.2963867-0.8066406-0.7382812-0.8613281-1.3266602h1.828125
			c0.0478516,0.1806641,0.1240234,0.3105469,0.2304688,0.3901367c0.1806641,0.140625,0.4853516,0.2109375,0.9140625,0.2109375
			c0.6054688,0,1.0107422-0.1860352,1.2158203-0.5576172c0.1328125-0.2382812,0.2001953-0.6386719,0.2001953-1.2016602v-0.3789062
			c-0.1611328,0.2524414-0.3339844,0.4418945-0.5195312,0.5683594c-0.3339844,0.234375-0.7685547,0.3515625-1.3037109,0.3515625
			c-0.8251953,0-1.4853516-0.2661133-1.9785156-0.7983398c-0.4941406-0.5322266-0.7402344-1.2529297-0.7402344-2.1625977
			c0-0.8769531,0.2373047-1.6142578,0.7128906-2.2114258c0.4746094-0.597168,1.1484375-0.8959961,2.0205078-0.8959961
			C142.652832,22.7927971,142.9331055,22.8382072,143.1733398,22.928051z M143.7456055,27.159008
			c0.2705078-0.2724609,0.4052734-0.706543,0.4052734-1.3022461c0-0.559082-0.1279297-0.9853516-0.3847656-1.2773438
			c-0.2568359-0.2924805-0.6005859-0.4384766-1.03125-0.4384766c-0.5869141,0-0.9921875,0.2543945-1.2158203,0.7631836
			c-0.1171875,0.2705078-0.1757812,0.6044922-0.1757812,1.0014648c0,0.3427734,0.0625,0.6479492,0.1875,0.9150391
			c0.2275391,0.4980469,0.6347656,0.7470703,1.2216797,0.7470703
			C143.144043,27.5676994,143.4750977,27.431469,143.7456055,27.159008z"/>
		<path d="M149.918457,25.2449455c0.3134766-0.0356445,0.5371094-0.0810547,0.671875-0.1352539
			c0.2412109-0.09375,0.3623047-0.2397461,0.3623047-0.4384766c0-0.2416992-0.0927734-0.4086914-0.2783203-0.5004883
			c-0.1845703-0.0922852-0.4570312-0.1381836-0.8154297-0.1381836c-0.4033203,0-0.6884766,0.090332-0.8554688,0.2705078
			c-0.1201172,0.1337891-0.1992188,0.3139648-0.2392578,0.5415039h-1.6220703
			c0.0351562-0.5161133,0.1933594-0.9399414,0.4736328-1.2719727c0.4462891-0.5200195,1.2128906-0.7797852,2.2988281-0.7797852
			c0.7070312,0,1.3349609,0.1279297,1.8837891,0.3842773s0.8242188,0.7397461,0.8242188,1.4506836v2.7070312
			c0,0.1875,0.0039062,0.4150391,0.0117188,0.6821289c0.0117188,0.2021484,0.0449219,0.3393555,0.0996094,0.4111328
			c0.0556641,0.0722656,0.1376953,0.1318359,0.2480469,0.1787109v0.2275391h-1.8291016
			c-0.0507812-0.1191406-0.0859375-0.230957-0.1054688-0.3354492c-0.0195312-0.1049805-0.0361328-0.2241211-0.0478516-0.3574219
			c-0.2333984,0.230957-0.5019531,0.4277344-0.8066406,0.5898438c-0.3642578,0.1914062-0.7753906,0.2871094-1.234375,0.2871094
			c-0.5849609,0-1.0683594-0.1523438-1.4501953-0.4575195c-0.3818359-0.3046875-0.5732422-0.7368164-0.5732422-1.2963867
			c0-0.7255859,0.3076172-1.2504883,0.921875-1.5751953c0.3359375-0.1772461,0.8320312-0.3032227,1.4853516-0.3793945
			L149.918457,25.2449455z M150.9467773,25.9651604c-0.1074219,0.0615234-0.2167969,0.1108398-0.3261719,0.1489258
			c-0.109375,0.0375977-0.2597656,0.0732422-0.4511719,0.1054688l-0.3828125,0.0649414
			c-0.3583984,0.0576172-0.6162109,0.128418-0.7724609,0.2109375c-0.2646484,0.1411133-0.3974609,0.359375-0.3974609,0.6552734
			c0,0.2636719,0.0810547,0.4541016,0.2421875,0.5712891c0.1621094,0.1171875,0.3583984,0.1757812,0.5908203,0.1757812
			c0.3671875,0,0.7050781-0.0976562,1.0146484-0.2924805s0.4707031-0.550293,0.4824219-1.0664062V25.9651604z"/>
		<path d="M155.8071289,28.834301h-1.6806641v-7.9794922h1.6806641V28.834301z"/>
		<path d="M159.1635742,28.834301h-1.6806641v-7.9794922h1.6806641V28.834301z"/>
		<path d="M164.9936523,23.053051c0.4482422,0.1845703,0.8193359,0.4755859,1.1108398,0.8730469
			c0.2626953,0.3505859,0.4335938,0.7573242,0.5117188,1.2197266c0.0458984,0.2709961,0.0644531,0.6616211,0.0556641,1.1713867
			h-4.6821289c0.0253906,0.5917969,0.25,1.0068359,0.671875,1.2451172c0.2568359,0.1479492,0.5654297,0.2216797,0.9267578,0.2216797
			c0.3837891,0,0.6943359-0.090332,0.9335938-0.2705078c0.1308594-0.0976562,0.2460938-0.2329102,0.3466797-0.40625h1.715332
			c-0.0449219,0.3500977-0.2529297,0.7055664-0.6230469,1.0664062c-0.5756836,0.5742188-1.3813477,0.8608398-2.418457,0.8608398
			c-0.8554688,0-1.6113281-0.2416992-2.2646484-0.7260742c-0.6542969-0.4838867-0.9814453-1.2714844-0.9814453-2.3623047
			c0-1.0219727,0.2949219-1.8061523,0.8857422-2.3515625s1.3564453-0.8178711,2.2988281-0.8178711
			C164.0405273,22.7766838,164.5454102,22.868969,164.9936523,23.053051z M162.4780273,24.3860588
			c-0.2373047,0.2246094-0.3867188,0.5288086-0.4472656,0.9130859h2.8964844
			c-0.03125-0.409668-0.1796875-0.7202148-0.4482422-0.9321289c-0.2675781-0.2124023-0.6005859-0.3183594-0.9970703-0.3183594
			C163.050293,24.0486565,162.7163086,24.1609612,162.4780273,24.3860588z"/>
		<path d="M171.09375,22.7957268c0.0214844,0.0014648,0.0693359,0.0043945,0.1445312,0.0078125v1.5810547
			c-0.1064453-0.0112305-0.2001953-0.0180664-0.2832031-0.0219727c-0.0830078-0.003418-0.1494141-0.0053711-0.2001953-0.0053711
			c-0.6767578,0-1.1308594,0.2021484-1.3632812,0.6064453c-0.1298828,0.2275391-0.1943359,0.5776367-0.1943359,1.050293v2.8203125
			h-1.6933594v-5.9008789h1.6044922v1.0288086c0.2597656-0.3935547,0.4863281-0.6621094,0.6787109-0.8066406
			c0.3144531-0.2416992,0.7236328-0.362793,1.2265625-0.362793C171.0458984,22.7927971,171.0722656,22.7937737,171.09375,22.7957268
			z"/>
		<path d="M172.4765625,29.9656487l0.2128906,0.0107422c0.1650391,0.0073242,0.3222656,0.0019531,0.4716797-0.0161133
			s0.2753906-0.0595703,0.3769531-0.1245117c0.0986328-0.0615234,0.1904297-0.1894531,0.2744141-0.3842773
			c0.0849609-0.1948242,0.1210938-0.3139648,0.109375-0.3574219l-2.3623047-6.1606445h1.8701172l1.4033203,4.3525391
			l1.328125-4.3525391h1.7871094l-2.2041016,5.8032227c-0.4267578,1.1191406-0.7636719,1.8129883-1.0117188,2.081543
			c-0.2480469,0.269043-0.7441406,0.4033203-1.4882812,0.4033203c-0.1494141,0-0.2695312-0.0009766-0.3603516-0.0024414
			c-0.0898438-0.0019531-0.2255859-0.0083008-0.4072266-0.019043V29.9656487z"/>
	</g>
	<rect x="33.125" y="35.3948479" width="145.5" height="7.5"/>
	<g>
		<linearGradient id="SVGID_3_" gradientUnits="userSpaceOnUse" x1="38.2460938" y1="40.7644768" x2="38.2460938" y2="37.8128166">
			<stop  offset="0" style="stop-color:#C1852B"/>
			<stop  offset="0.7198468" style="stop-color:#DFC124"/>
		</linearGradient>
		<path fill="url(#SVGID_3_)" d="M39.0380859,40.697094c0.0717773-0.0078125,0.1166992-0.0195312,0.1337891-0.0361328
			c0.0170898-0.0175781,0.0253906-0.0390625,0.0253906-0.0644531v-2.0654297l-0.0112305-0.0107422L38.171875,40.697094
			l-1.0029297-2.2001953h-0.0112305v2.0996094c0,0.0253906,0.0083008,0.046875,0.0253906,0.0644531
			c0.0170898,0.0166016,0.0620117,0.0283203,0.1337891,0.0361328v0.0673828h-1.0024414V40.697094
			c0.0717773-0.0078125,0.1166992-0.0195312,0.1337891-0.0361328c0.0170898-0.0175781,0.0253906-0.0390625,0.0253906-0.0644531
			v-2.6152344c0-0.0263672-0.0083008-0.0478516-0.0253906-0.0649414c-0.0170898-0.0166016-0.0620117-0.0288086-0.1337891-0.0361328
			v-0.0673828h1.4868164v0.0673828c-0.0908203,0.003418-0.1367188,0.0371094-0.1367188,0.1010742
			c0,0.003418,0.0117188,0.0332031,0.0341797,0.0898438c0.0229492,0.0556641,0.0522461,0.125,0.0883789,0.2070312
			s0.0761719,0.171875,0.1196289,0.2675781c0.0439453,0.0947266,0.0854492,0.1865234,0.1254883,0.2744141
			s0.0751953,0.1650391,0.1054688,0.2324219s0.0512695,0.1123047,0.0625,0.1347656
			c0.0644531-0.1416016,0.1313477-0.2802734,0.199707-0.4150391s0.1298828-0.2578125,0.1850586-0.3710938
			c0.0551758-0.1113281,0.0996094-0.2050781,0.1337891-0.2792969c0.0341797-0.0751953,0.0512695-0.1220703,0.0512695-0.140625
			c0-0.0639648-0.0454102-0.0976562-0.1367188-0.1010742v-0.0673828h1.5444336v0.0673828
			c-0.0722656,0.0073242-0.1171875,0.0195312-0.1342773,0.0361328c-0.0170898,0.0170898-0.0253906,0.0385742-0.0253906,0.0649414
			v2.6152344c0,0.0253906,0.0083008,0.046875,0.0253906,0.0644531c0.0170898,0.0166016,0.0620117,0.0283203,0.1342773,0.0361328
			v0.0673828h-1.1396484V40.697094z"/>
		<linearGradient id="SVGID_4_" gradientUnits="userSpaceOnUse" x1="42.838623" y1="40.7810783" x2="42.838623" y2="37.8128166">
			<stop  offset="0" style="stop-color:#C1852B"/>
			<stop  offset="0.7198468" style="stop-color:#DFC124"/>
		</linearGradient>
		<path fill="url(#SVGID_4_)" d="M43.5566406,37.9812737c0-0.0263672-0.0087891-0.0478516-0.0258789-0.0649414
			c-0.0170898-0.0166016-0.0615234-0.0288086-0.1337891-0.0361328v-0.0673828h1.1738281v0.0673828
			c-0.0722656,0.0073242-0.1166992,0.0195312-0.1337891,0.0361328c-0.0170898,0.0170898-0.0258789,0.0385742-0.0258789,0.0649414
			v1.5039062c0,0.2470703-0.0405273,0.4541016-0.1225586,0.6230469c-0.081543,0.1679688-0.1933594,0.3027344-0.3359375,0.4033203
			c-0.1425781,0.1015625-0.3095703,0.171875-0.5014648,0.2109375s-0.3959961,0.0585938-0.6123047,0.0585938
			c-0.2167969,0-0.4208984-0.0195312-0.612793-0.0585938s-0.3588867-0.109375-0.5014648-0.2109375
			c-0.1425781-0.1005859-0.2543945-0.2353516-0.3359375-0.4033203c-0.0820312-0.1689453-0.1225586-0.3759766-0.1225586-0.6230469
			v-1.5039062c0-0.0263672-0.0087891-0.0478516-0.0258789-0.0649414c-0.0170898-0.0166016-0.0615234-0.0288086-0.1337891-0.0361328
			v-0.0673828h1.1738281v0.0673828c-0.0722656,0.0073242-0.1166992,0.0195312-0.1337891,0.0361328
			c-0.0170898,0.0170898-0.0258789,0.0385742-0.0258789,0.0649414v1.5039062c0,0.2167969,0.0629883,0.3720703,0.1879883,0.4658203
			c0.1254883,0.09375,0.3022461,0.1396484,0.5302734,0.1396484c0.2275391,0,0.4042969-0.0458984,0.5297852-0.1396484
			s0.1879883-0.2490234,0.1879883-0.4658203V37.9812737z"/>
		<linearGradient id="SVGID_5_" gradientUnits="userSpaceOnUse" x1="46.9355469" y1="40.7810783" x2="46.9355469" y2="37.7791252">
			<stop  offset="0" style="stop-color:#C1852B"/>
			<stop  offset="0.7198468" style="stop-color:#DFC124"/>
		</linearGradient>
		<path fill="url(#SVGID_5_)" d="M45.7675781,39.6248283c-0.0078125,0.0224609-0.0117188,0.0625-0.0117188,0.1181641
			c0,0.0371094,0.0351562,0.0800781,0.1054688,0.1259766c0.0703125,0.046875,0.1616211,0.0908203,0.2734375,0.1318359
			c0.1123047,0.0419922,0.2402344,0.0761719,0.3847656,0.1044922s0.2905273,0.0419922,0.4389648,0.0419922
			c0.284668,0,0.4936523-0.0332031,0.6264648-0.0986328c0.1333008-0.0654297,0.199707-0.1591797,0.199707-0.2832031
			c0-0.0673828-0.0581055-0.1152344-0.1738281-0.1425781c-0.1162109-0.0283203-0.2612305-0.0507812-0.4360352-0.0673828
			C47,39.5379143,46.8120117,39.5193596,46.6108398,39.4988518c-0.2016602-0.0205078-0.3896484-0.0576172-0.5639648-0.1123047
			c-0.1748047-0.0537109-0.3203125-0.1328125-0.4360352-0.2353516c-0.1162109-0.1025391-0.1738281-0.2441406-0.1738281-0.4238281
			c0-0.1425781,0.0332031-0.2714844,0.0996094-0.3867188c0.0664062-0.1162109,0.159668-0.2148438,0.2792969-0.2978516
			c0.1196289-0.0825195,0.2651367-0.1469727,0.4360352-0.1938477c0.1708984-0.0463867,0.3608398-0.0698242,0.5698242-0.0698242
			c0.1933594,0,0.3740234,0.012207,0.5410156,0.0361328c0.1669922,0.0244141,0.3154297,0.0517578,0.4443359,0.081543
			c0.1293945,0.0302734,0.237793,0.0571289,0.3251953,0.081543s0.1499023,0.0361328,0.1879883,0.0361328
			c0.0375977,0,0.0683594-0.0083008,0.0908203-0.0249023c0.0229492-0.0170898,0.0439453-0.0366211,0.0629883-0.059082
			l0.0625,0.0224609l-0.3930664,0.7802734l-0.0683594-0.0332031v-0.0625c0-0.0332031-0.0371094-0.0683594-0.1113281-0.1035156
			c-0.0737305-0.0351562-0.1679688-0.0673828-0.2817383-0.0957031c-0.1142578-0.0273438-0.2412109-0.0507812-0.3818359-0.0703125
			c-0.140625-0.0185547-0.2773438-0.0273438-0.4101562-0.0273438c-0.2470703,0-0.4199219,0.0273438-0.5185547,0.0839844
			c-0.0991211,0.0556641-0.1484375,0.1152344-0.1484375,0.1796875c0,0.0634766,0.0341797,0.1113281,0.1025391,0.1425781
			c0.0683594,0.0322266,0.1577148,0.0556641,0.2680664,0.0703125c0.1098633,0.0146484,0.2353516,0.0273438,0.3759766,0.0361328
			c0.140625,0.0097656,0.2851562,0.0234375,0.4331055,0.0419922c0.1479492,0.0195312,0.2924805,0.0449219,0.4331055,0.0791016
			c0.140625,0.0332031,0.265625,0.0830078,0.3759766,0.1484375s0.1992188,0.1513672,0.2680664,0.2578125
			c0.0683594,0.1074219,0.1025391,0.2412109,0.1025391,0.4013672c0,0.1240234-0.0258789,0.2451172-0.0771484,0.3652344
			s-0.1386719,0.2275391-0.262207,0.3222656c-0.1235352,0.0957031-0.2885742,0.171875-0.4956055,0.2275391
			c-0.2070312,0.0566406-0.4643555,0.0839844-0.7719727,0.0839844c-0.2392578,0-0.4458008-0.0107422-0.6181641-0.0332031
			c-0.1733398-0.0224609-0.3203125-0.0498047-0.4418945-0.0820312c-0.121582-0.03125-0.2172852-0.0605469-0.2875977-0.0869141
			c-0.0703125-0.0253906-0.1225586-0.0390625-0.1567383-0.0390625c-0.0229492,0-0.0429688,0.0078125-0.0600586,0.0224609
			s-0.0351562,0.0322266-0.0541992,0.0507812l-0.0683594-0.0166016l0.421875-0.9990234L45.7675781,39.6248283z"/>
		<linearGradient id="SVGID_6_" gradientUnits="userSpaceOnUse" x1="49.9667969" y1="40.7644768" x2="49.9667969" y2="37.8128166">
			<stop  offset="0" style="stop-color:#C1852B"/>
			<stop  offset="0.7198468" style="stop-color:#DFC124"/>
		</linearGradient>
		<path fill="url(#SVGID_6_)" d="M49.3798828,40.697094c0.0717773-0.0078125,0.1166992-0.0195312,0.1337891-0.0361328
			c0.0170898-0.0175781,0.0253906-0.0390625,0.0253906-0.0644531v-2.6152344c0-0.0263672-0.0083008-0.0478516-0.0253906-0.0649414
			c-0.0170898-0.0166016-0.0620117-0.0288086-0.1337891-0.0361328v-0.0673828h1.1738281v0.0673828
			c-0.0722656,0.0073242-0.1171875,0.0195312-0.1342773,0.0361328c-0.0170898,0.0170898-0.0253906,0.0385742-0.0253906,0.0649414
			v2.6152344c0,0.0253906,0.0083008,0.046875,0.0253906,0.0644531c0.0170898,0.0166016,0.0620117,0.0283203,0.1342773,0.0361328
			v0.0673828h-1.1738281V40.697094z"/>
		<linearGradient id="SVGID_7_" gradientUnits="userSpaceOnUse" x1="53.1635742" y1="40.7810783" x2="53.1635742" y2="37.7791252">
			<stop  offset="0" style="stop-color:#C1852B"/>
			<stop  offset="0.7198468" style="stop-color:#DFC124"/>
		</linearGradient>
		<path fill="url(#SVGID_7_)" d="M54.2631836,38.862133c0.0039062-0.0117188,0.0068359-0.0234375,0.0087891-0.0361328
			c0.0014648-0.0136719,0.0024414-0.0292969,0.0024414-0.0478516c0-0.0302734-0.0253906-0.0605469-0.0766602-0.0898438
			c-0.0512695-0.0302734-0.1196289-0.0566406-0.2050781-0.0820312c-0.0854492-0.0234375-0.1835938-0.0449219-0.293457-0.0605469
			c-0.1103516-0.0175781-0.2260742-0.0253906-0.3476562-0.0253906c-0.1142578,0-0.2338867,0.0126953-0.3588867,0.0390625
			c-0.1254883,0.0253906-0.2402344,0.0683594-0.3447266,0.1289062c-0.1044922,0.0595703-0.1899414,0.1396484-0.2563477,0.2382812
			c-0.0668945,0.0996094-0.1000977,0.2197266-0.1000977,0.3623047c0,0.1416016,0.0332031,0.2626953,0.1000977,0.3613281
			c0.0664062,0.0996094,0.1518555,0.1787109,0.2563477,0.2392578c0.1044922,0.0595703,0.2192383,0.1025391,0.3447266,0.1289062
			c0.125,0.0263672,0.2446289,0.0390625,0.3588867,0.0390625c0.0493164,0,0.1269531-0.0087891,0.2333984-0.0253906
			s0.2128906-0.0400391,0.3193359-0.0703125c0.1064453-0.0292969,0.2001953-0.0634766,0.2822266-0.1005859
			c0.081543-0.0371094,0.1220703-0.0771484,0.1220703-0.1181641c0-0.0185547-0.003418-0.0332031-0.0112305-0.0449219
			c-0.0078125-0.0107422-0.0151367-0.0244141-0.0229492-0.0390625l0.0629883-0.0390625l0.5869141,0.8808594l-0.0683594,0.0390625
			c-0.0078125-0.0185547-0.0180664-0.0302734-0.03125-0.0361328c-0.0136719-0.0058594-0.0297852-0.0087891-0.0488281-0.0087891
			c-0.0263672,0-0.0795898,0.0166016-0.1591797,0.0478516c-0.0800781,0.0322266-0.1835938,0.0654297-0.3105469,0.1005859
			c-0.1274414,0.0361328-0.2763672,0.0673828-0.4477539,0.0957031c-0.1708984,0.0283203-0.362793,0.0419922-0.5751953,0.0419922
			c-0.2280273,0-0.4541016-0.0283203-0.6782227-0.0869141c-0.2241211-0.0576172-0.425293-0.1494141-0.6040039-0.2744141
			c-0.1787109-0.1259766-0.3227539-0.2832031-0.4331055-0.4716797c-0.1098633-0.1894531-0.1650391-0.4091797-0.1650391-0.6591797
			c0-0.2509766,0.0551758-0.4707031,0.1650391-0.6591797c0.1103516-0.1894531,0.2543945-0.3466797,0.4331055-0.4716797
			c0.1787109-0.1254883,0.3798828-0.2197266,0.6040039-0.2836914c0.2241211-0.0634766,0.4501953-0.0952148,0.6782227-0.0952148
			s0.4243164,0.012207,0.5898438,0.0361328c0.1650391,0.0244141,0.3046875,0.0517578,0.418457,0.081543
			c0.1103516,0.0302734,0.1958008,0.0551758,0.2568359,0.0756836c0.0605469,0.0205078,0.105957,0.0307617,0.1367188,0.0307617
			c0.0341797,0,0.0625-0.0146484,0.0854492-0.0444336l0.0625,0.0166016l-0.5126953,0.9257812L54.2631836,38.862133z"/>
		<linearGradient id="SVGID_8_" gradientUnits="userSpaceOnUse" x1="59.0151367" y1="40.7810783" x2="59.0151367" y2="37.7791252">
			<stop  offset="0" style="stop-color:#C1852B"/>
			<stop  offset="0.7198468" style="stop-color:#DFC124"/>
		</linearGradient>
		<path fill="url(#SVGID_8_)" d="M60.1147461,38.862133c0.0039062-0.0117188,0.0068359-0.0234375,0.0087891-0.0361328
			c0.0014648-0.0136719,0.0024414-0.0292969,0.0024414-0.0478516c0-0.0302734-0.0253906-0.0605469-0.0766602-0.0898438
			c-0.0512695-0.0302734-0.1196289-0.0566406-0.2050781-0.0820312c-0.0854492-0.0234375-0.1835938-0.0449219-0.293457-0.0605469
			c-0.1103516-0.0175781-0.2260742-0.0253906-0.3476562-0.0253906c-0.1142578,0-0.2338867,0.0126953-0.3588867,0.0390625
			c-0.1254883,0.0253906-0.2402344,0.0683594-0.3447266,0.1289062c-0.1044922,0.0595703-0.1899414,0.1396484-0.2563477,0.2382812
			c-0.0668945,0.0996094-0.1000977,0.2197266-0.1000977,0.3623047c0,0.1416016,0.0332031,0.2626953,0.1000977,0.3613281
			c0.0664062,0.0996094,0.1518555,0.1787109,0.2563477,0.2392578c0.1044922,0.0595703,0.2192383,0.1025391,0.3447266,0.1289062
			c0.125,0.0263672,0.2446289,0.0390625,0.3588867,0.0390625c0.0493164,0,0.1269531-0.0087891,0.2333984-0.0253906
			s0.2128906-0.0400391,0.3193359-0.0703125c0.1064453-0.0292969,0.2001953-0.0634766,0.2822266-0.1005859
			c0.081543-0.0371094,0.1220703-0.0771484,0.1220703-0.1181641c0-0.0185547-0.003418-0.0332031-0.0112305-0.0449219
			c-0.0078125-0.0107422-0.0151367-0.0244141-0.0229492-0.0390625l0.0629883-0.0390625l0.5869141,0.8808594l-0.0683594,0.0390625
			c-0.0078125-0.0185547-0.0180664-0.0302734-0.03125-0.0361328c-0.0136719-0.0058594-0.0297852-0.0087891-0.0488281-0.0087891
			c-0.0263672,0-0.0795898,0.0166016-0.1591797,0.0478516c-0.0800781,0.0322266-0.1835938,0.0654297-0.3105469,0.1005859
			c-0.1274414,0.0361328-0.2763672,0.0673828-0.4477539,0.0957031c-0.1708984,0.0283203-0.362793,0.0419922-0.5751953,0.0419922
			c-0.2280273,0-0.4541016-0.0283203-0.6782227-0.0869141c-0.2241211-0.0576172-0.425293-0.1494141-0.6040039-0.2744141
			c-0.1787109-0.1259766-0.3227539-0.2832031-0.4331055-0.4716797c-0.1098633-0.1894531-0.1650391-0.4091797-0.1650391-0.6591797
			c0-0.2509766,0.0551758-0.4707031,0.1650391-0.6591797c0.1103516-0.1894531,0.2543945-0.3466797,0.4331055-0.4716797
			c0.1787109-0.1254883,0.3798828-0.2197266,0.6040039-0.2836914c0.2241211-0.0634766,0.4501953-0.0952148,0.6782227-0.0952148
			s0.4243164,0.012207,0.5898438,0.0361328c0.1650391,0.0244141,0.3046875,0.0517578,0.418457,0.081543
			c0.1103516,0.0302734,0.1958008,0.0551758,0.2568359,0.0756836c0.0605469,0.0205078,0.105957,0.0307617,0.1367188,0.0307617
			c0.0341797,0,0.0625-0.0146484,0.0854492-0.0444336l0.0625,0.0166016l-0.5126953,0.9257812L60.1147461,38.862133z"/>
		<linearGradient id="SVGID_9_" gradientUnits="userSpaceOnUse" x1="63.0952148" y1="40.7810783" x2="63.0952148" y2="37.7791252">
			<stop  offset="0" style="stop-color:#C1852B"/>
			<stop  offset="0.7198468" style="stop-color:#DFC124"/>
		</linearGradient>
		<path fill="url(#SVGID_9_)" d="M63.0952148,37.7791252c0.2431641,0,0.4716797,0.0327148,0.6865234,0.0981445
			c0.2143555,0.0654297,0.402832,0.1616211,0.5639648,0.2895508c0.1616211,0.1269531,0.2895508,0.2832031,0.3847656,0.4707031
			c0.0947266,0.1875,0.1425781,0.4042969,0.1425781,0.6513672s-0.0478516,0.4638672-0.1425781,0.6503906
			c-0.0952148,0.1875-0.2231445,0.3447266-0.3847656,0.4716797c-0.1611328,0.1269531-0.3496094,0.2207031-0.5639648,0.2802734
			c-0.2148438,0.0605469-0.4433594,0.0898438-0.6865234,0.0898438s-0.472168-0.0292969-0.6865234-0.0898438
			c-0.2148438-0.0595703-0.402832-0.1533203-0.5644531-0.2802734c-0.1611328-0.1269531-0.2895508-0.2841797-0.3842773-0.4716797
			c-0.0952148-0.1865234-0.1425781-0.4033203-0.1425781-0.6503906s0.0473633-0.4638672,0.1425781-0.6513672
			c0.0947266-0.1875,0.2231445-0.34375,0.3842773-0.4707031c0.1616211-0.1279297,0.3496094-0.2241211,0.5644531-0.2895508
			C62.6230469,37.8118401,62.8520508,37.7791252,63.0952148,37.7791252z M63.0952148,38.4636955
			c-0.1254883,0-0.2441406,0.0185547-0.3564453,0.0566406c-0.1118164,0.0371094-0.2104492,0.0898438-0.2958984,0.1591797
			s-0.1538086,0.1552734-0.2055664,0.2587891c-0.0512695,0.1025391-0.0766602,0.2197266-0.0766602,0.3505859
			s0.0253906,0.2480469,0.0766602,0.3505859c0.0517578,0.1025391,0.1201172,0.1884766,0.2055664,0.2578125
			s0.184082,0.1230469,0.2958984,0.1601562c0.1123047,0.0371094,0.230957,0.0556641,0.3564453,0.0556641
			s0.2441406-0.0185547,0.355957-0.0556641c0.1123047-0.0371094,0.2109375-0.0908203,0.2963867-0.1601562
			s0.1538086-0.1552734,0.2050781-0.2578125s0.0771484-0.2197266,0.0771484-0.3505859s-0.0258789-0.2480469-0.0771484-0.3505859
			c-0.0512695-0.1035156-0.1196289-0.1894531-0.2050781-0.2587891s-0.184082-0.1220703-0.2963867-0.1591797
			C63.3393555,38.4822502,63.2207031,38.4636955,63.0952148,38.4636955z"/>
		<linearGradient id="SVGID_10_" gradientUnits="userSpaceOnUse" x1="67.1860352" y1="40.893383" x2="67.1860352" y2="37.8128166">
			<stop  offset="0" style="stop-color:#C1852B"/>
			<stop  offset="0.7198468" style="stop-color:#DFC124"/>
		</linearGradient>
		<path fill="url(#SVGID_10_)" d="M68.5878906,40.0799065c0.0302734,0,0.0532227-0.0107422,0.0683594-0.03125
			s0.0263672-0.0625,0.0341797-0.1259766h0.0683594v0.9707031h-0.0683594
			c-0.0078125-0.0595703-0.019043-0.0966797-0.0341797-0.109375s-0.0380859-0.0195312-0.0683594-0.0195312h-2.9746094V40.697094
			c0.0722656-0.0078125,0.1166992-0.0195312,0.1337891-0.0361328c0.0170898-0.0175781,0.0258789-0.0390625,0.0258789-0.0644531
			v-2.6152344c0-0.0263672-0.0087891-0.0478516-0.0258789-0.0649414c-0.0170898-0.0166016-0.0615234-0.0288086-0.1337891-0.0361328
			v-0.0673828h1.1738281v0.0673828c-0.0722656,0.0073242-0.1166992,0.0195312-0.1337891,0.0361328
			c-0.0170898,0.0170898-0.0258789,0.0385742-0.0258789,0.0649414v2.0986328H68.5878906z"/>
		<linearGradient id="SVGID_11_" gradientUnits="userSpaceOnUse" x1="70.9868164" y1="40.893383" x2="70.9868164" y2="37.8128166">
			<stop  offset="0" style="stop-color:#C1852B"/>
			<stop  offset="0.7198468" style="stop-color:#DFC124"/>
		</linearGradient>
		<path fill="url(#SVGID_11_)" d="M72.3886719,40.0799065c0.0302734,0,0.0532227-0.0107422,0.0683594-0.03125
			s0.0263672-0.0625,0.0341797-0.1259766h0.0683594v0.9707031h-0.0683594
			c-0.0078125-0.0595703-0.019043-0.0966797-0.0341797-0.109375s-0.0380859-0.0195312-0.0683594-0.0195312h-2.9746094V40.697094
			c0.0722656-0.0078125,0.1166992-0.0195312,0.1337891-0.0361328c0.0170898-0.0175781,0.0258789-0.0390625,0.0258789-0.0644531
			v-2.6152344c0-0.0263672-0.0087891-0.0478516-0.0258789-0.0649414c-0.0170898-0.0166016-0.0615234-0.0288086-0.1337891-0.0361328
			v-0.0673828h1.1738281v0.0673828c-0.0722656,0.0073242-0.1166992,0.0195312-0.1337891,0.0361328
			c-0.0170898,0.0170898-0.0258789,0.0385742-0.0258789,0.0649414v2.0986328H72.3886719z"/>
		<linearGradient id="SVGID_12_" gradientUnits="userSpaceOnUse" x1="74.7216797" y1="40.8709221" x2="74.7216797" y2="37.6555901">
			<stop  offset="0" style="stop-color:#C1852B"/>
			<stop  offset="0.7198468" style="stop-color:#DFC124"/>
		</linearGradient>
		<path fill="url(#SVGID_12_)" d="M75.4594727,39.6873283c-0.0078125-0.0380859-0.0239258-0.0683594-0.0483398-0.0927734
			c-0.0249023-0.0244141-0.0654297-0.0361328-0.1225586-0.0361328h-1.0600586v0.5214844h1.8291016
			c0.0307617,0,0.0532227-0.0107422,0.0683594-0.03125s0.0268555-0.0664062,0.0341797-0.1367188h0.0688477v0.9589844h-0.0688477
			c-0.0073242-0.0488281-0.019043-0.078125-0.0341797-0.0898438c-0.0151367-0.0107422-0.0375977-0.0166016-0.0683594-0.0166016
			h-2.8432617V40.697094c0.0722656-0.0078125,0.1166992-0.0195312,0.1337891-0.0361328
			c0.0170898-0.0175781,0.0258789-0.0390625,0.0258789-0.0644531v-2.6152344c0-0.0263672-0.0087891-0.0478516-0.0258789-0.0649414
			c-0.0170898-0.0166016-0.0615234-0.0288086-0.1337891-0.0361328v-0.0673828h2.8432617
			c0.0307617,0,0.0532227-0.0102539,0.0683594-0.0307617c0.0151367-0.0209961,0.0268555-0.0629883,0.0341797-0.1264648h0.0688477
			v0.9760742h-0.0688477c-0.0073242-0.0634766-0.019043-0.1054688-0.0341797-0.1259766s-0.0375977-0.0302734-0.0683594-0.0302734
			h-1.8291016v0.4648438h1.0600586c0.0571289,0,0.0976562-0.0117188,0.1225586-0.0361328
			c0.0244141-0.0244141,0.0405273-0.0546875,0.0483398-0.0927734h0.0683594v0.8759766H75.4594727z"/>
		<linearGradient id="SVGID_13_" gradientUnits="userSpaceOnUse" x1="78.6450195" y1="40.7810783" x2="78.6450195" y2="37.7791252">
			<stop  offset="0" style="stop-color:#C1852B"/>
			<stop  offset="0.7198468" style="stop-color:#DFC124"/>
		</linearGradient>
		<path fill="url(#SVGID_13_)" d="M79.7446289,38.862133c0.0039062-0.0117188,0.0068359-0.0234375,0.0087891-0.0361328
			c0.0014648-0.0136719,0.0024414-0.0292969,0.0024414-0.0478516c0-0.0302734-0.0253906-0.0605469-0.0766602-0.0898438
			c-0.0512695-0.0302734-0.1196289-0.0566406-0.2050781-0.0820312c-0.0854492-0.0234375-0.1835938-0.0449219-0.293457-0.0605469
			c-0.1103516-0.0175781-0.2260742-0.0253906-0.3476562-0.0253906c-0.1142578,0-0.2338867,0.0126953-0.3588867,0.0390625
			c-0.1254883,0.0253906-0.2402344,0.0683594-0.3447266,0.1289062c-0.1044922,0.0595703-0.1899414,0.1396484-0.2563477,0.2382812
			c-0.0668945,0.0996094-0.1000977,0.2197266-0.1000977,0.3623047c0,0.1416016,0.0332031,0.2626953,0.1000977,0.3613281
			c0.0664062,0.0996094,0.1518555,0.1787109,0.2563477,0.2392578c0.1044922,0.0595703,0.2192383,0.1025391,0.3447266,0.1289062
			c0.125,0.0263672,0.2446289,0.0390625,0.3588867,0.0390625c0.0493164,0,0.1269531-0.0087891,0.2333984-0.0253906
			s0.2128906-0.0400391,0.3193359-0.0703125c0.1064453-0.0292969,0.2001953-0.0634766,0.2822266-0.1005859
			c0.081543-0.0371094,0.1220703-0.0771484,0.1220703-0.1181641c0-0.0185547-0.003418-0.0332031-0.0112305-0.0449219
			c-0.0078125-0.0107422-0.0151367-0.0244141-0.0229492-0.0390625l0.0629883-0.0390625l0.5869141,0.8808594l-0.0683594,0.0390625
			c-0.0078125-0.0185547-0.0180664-0.0302734-0.03125-0.0361328c-0.0136719-0.0058594-0.0297852-0.0087891-0.0488281-0.0087891
			c-0.0263672,0-0.0795898,0.0166016-0.1591797,0.0478516c-0.0800781,0.0322266-0.1835938,0.0654297-0.3105469,0.1005859
			c-0.1274414,0.0361328-0.2763672,0.0673828-0.4477539,0.0957031c-0.1708984,0.0283203-0.362793,0.0419922-0.5751953,0.0419922
			c-0.2280273,0-0.4541016-0.0283203-0.6782227-0.0869141c-0.2241211-0.0576172-0.425293-0.1494141-0.6040039-0.2744141
			c-0.1787109-0.1259766-0.3227539-0.2832031-0.4331055-0.4716797c-0.1098633-0.1894531-0.1650391-0.4091797-0.1650391-0.6591797
			c0-0.2509766,0.0551758-0.4707031,0.1650391-0.6591797c0.1103516-0.1894531,0.2543945-0.3466797,0.4331055-0.4716797
			c0.1787109-0.1254883,0.3798828-0.2197266,0.6040039-0.2836914c0.2241211-0.0634766,0.4501953-0.0952148,0.6782227-0.0952148
			s0.4243164,0.012207,0.5898438,0.0361328c0.1650391,0.0244141,0.3046875,0.0517578,0.418457,0.081543
			c0.1103516,0.0302734,0.1958008,0.0551758,0.2568359,0.0756836c0.0605469,0.0205078,0.105957,0.0307617,0.1367188,0.0307617
			c0.0341797,0,0.0625-0.0146484,0.0854492-0.0444336l0.0625,0.0166016l-0.5126953,0.9257812L79.7446289,38.862133z"/>
		<linearGradient id="SVGID_14_" gradientUnits="userSpaceOnUse" x1="82.4055176" y1="40.7644768" x2="82.4055176" y2="37.6555901">
			<stop  offset="0" style="stop-color:#C1852B"/>
			<stop  offset="0.7198468" style="stop-color:#DFC124"/>
		</linearGradient>
		<path fill="url(#SVGID_14_)" d="M81.8183594,40.697094c0.0722656-0.0078125,0.1171875-0.0195312,0.1342773-0.0361328
			c0.0170898-0.0175781,0.0253906-0.0390625,0.0253906-0.0644531v-2.0996094h-0.9799805
			c-0.0307617,0-0.0532227,0.0107422-0.0683594,0.03125s-0.0268555,0.0625-0.0341797,0.1269531h-0.0683594v-0.9995117h0.0683594
			c0.0073242,0.0634766,0.019043,0.1054688,0.0341797,0.1264648c0.0151367,0.0205078,0.0375977,0.0307617,0.0683594,0.0307617
			h2.8149414c0.0302734,0,0.0532227-0.0102539,0.0683594-0.0307617c0.0151367-0.0209961,0.0263672-0.0629883,0.0341797-0.1264648
			h0.0683594v0.9995117h-0.0683594c-0.0078125-0.0644531-0.019043-0.1064453-0.0341797-0.1269531
			s-0.0380859-0.03125-0.0683594-0.03125h-0.9804688v2.0996094c0,0.0253906,0.0087891,0.046875,0.0258789,0.0644531
			c0.0170898,0.0166016,0.0615234,0.0283203,0.1337891,0.0361328v0.0673828h-1.1738281V40.697094z"/>
		<linearGradient id="SVGID_15_" gradientUnits="userSpaceOnUse" x1="85.2602539" y1="40.7644768" x2="85.2602539" y2="37.8128166">
			<stop  offset="0" style="stop-color:#C1852B"/>
			<stop  offset="0.7198468" style="stop-color:#DFC124"/>
		</linearGradient>
		<path fill="url(#SVGID_15_)" d="M84.6733398,40.697094c0.0717773-0.0078125,0.1166992-0.0195312,0.1337891-0.0361328
			c0.0170898-0.0175781,0.0253906-0.0390625,0.0253906-0.0644531v-2.6152344c0-0.0263672-0.0083008-0.0478516-0.0253906-0.0649414
			c-0.0170898-0.0166016-0.0620117-0.0288086-0.1337891-0.0361328v-0.0673828h1.1738281v0.0673828
			c-0.0722656,0.0073242-0.1171875,0.0195312-0.1342773,0.0361328C85.6958008,37.9334221,85.6875,37.9549065,85.6875,37.9812737
			v2.6152344c0,0.0253906,0.0083008,0.046875,0.0253906,0.0644531c0.0170898,0.0166016,0.0620117,0.0283203,0.1342773,0.0361328
			v0.0673828h-1.1738281V40.697094z"/>
		<linearGradient id="SVGID_16_" gradientUnits="userSpaceOnUse" x1="88.4797363" y1="40.7644768" x2="88.4797363" y2="37.8128166">
			<stop  offset="0" style="stop-color:#C1852B"/>
			<stop  offset="0.7198468" style="stop-color:#DFC124"/>
		</linearGradient>
		<path fill="url(#SVGID_16_)" d="M86.9638672,37.9812737c0-0.0263672-0.0083008-0.0478516-0.0253906-0.0649414
			c-0.0170898-0.0166016-0.0620117-0.0288086-0.1337891-0.0361328v-0.0673828h2.1708984
			c0.1557617,0,0.2978516,0.0146484,0.4272461,0.0449219c0.1289062,0.0297852,0.2412109,0.0756836,0.3359375,0.137207
			c0.0952148,0.0620117,0.1694336,0.1425781,0.2226562,0.2412109c0.0527344,0.0996094,0.0795898,0.2177734,0.0795898,0.3564453
			c0,0.1679688-0.0512695,0.3037109-0.1538086,0.4072266c-0.1025391,0.1025391-0.2338867,0.1708984-0.3930664,0.2041016v0.0117188
			c0.1933594,0.0527344,0.3520508,0.1328125,0.4755859,0.2412109s0.1850586,0.2675781,0.1850586,0.4775391
			c0,0.1113281-0.0214844,0.21875-0.0654297,0.3193359c-0.043457,0.1015625-0.1118164,0.1894531-0.2050781,0.2636719
			c-0.0932617,0.0751953-0.2128906,0.1347656-0.3588867,0.1796875c-0.1464844,0.0449219-0.3203125,0.0673828-0.5214844,0.0673828
			h-2.1992188V40.697094c0.0717773-0.0078125,0.1166992-0.0195312,0.1337891-0.0361328
			c0.0170898-0.0175781,0.0253906-0.0390625,0.0253906-0.0644531V37.9812737z M88.59375,38.9236565
			c0.121582,0,0.222168-0.0029297,0.3017578-0.0078125c0.0800781-0.0058594,0.1425781-0.0185547,0.1879883-0.0371094
			c0.0458984-0.0185547,0.078125-0.0449219,0.097168-0.078125c0.019043-0.0341797,0.0283203-0.0791016,0.0283203-0.1347656
			s-0.0092773-0.1005859-0.0283203-0.1347656s-0.0512695-0.0595703-0.097168-0.0791016
			c-0.0454102-0.0175781-0.1079102-0.0302734-0.1879883-0.0361328c-0.0795898-0.0048828-0.1801758-0.0087891-0.3017578-0.0087891
			h-0.7749023v0.5166016H88.59375z M88.7875977,40.1697502c0.2050781,0,0.3491211-0.0253906,0.4331055-0.0761719
			c0.0834961-0.0498047,0.125-0.1367188,0.125-0.2607422c0-0.1230469-0.0415039-0.2099609-0.125-0.2607422
			c-0.0839844-0.0507812-0.2280273-0.0761719-0.4331055-0.0761719h-0.96875v0.6738281H88.7875977z"/>
		<linearGradient id="SVGID_17_" gradientUnits="userSpaceOnUse" x1="92.5131836" y1="40.893383" x2="92.5131836" y2="37.8128166">
			<stop  offset="0" style="stop-color:#C1852B"/>
			<stop  offset="0.7198468" style="stop-color:#DFC124"/>
		</linearGradient>
		<path fill="url(#SVGID_17_)" d="M93.9155273,40.0799065c0.03125,0,0.0527344-0.0107422,0.0683594-0.03125
			s0.0273438-0.0625,0.0332031-0.1259766h0.0683594v0.9707031h-0.0683594
			c-0.0058594-0.0595703-0.0175781-0.0966797-0.0332031-0.109375s-0.0371094-0.0195312-0.0683594-0.0195312H90.940918V40.697094
			c0.0722656-0.0078125,0.1166992-0.0195312,0.1337891-0.0361328c0.0170898-0.0175781,0.0258789-0.0390625,0.0258789-0.0644531
			v-2.6152344c0-0.0263672-0.0087891-0.0478516-0.0258789-0.0649414c-0.0170898-0.0166016-0.0615234-0.0288086-0.1337891-0.0361328
			v-0.0673828h1.1738281v0.0673828c-0.0722656,0.0073242-0.1171875,0.0195312-0.1347656,0.0361328
			c-0.015625,0.0170898-0.0253906,0.0385742-0.0253906,0.0649414v2.0986328H93.9155273z"/>
		<linearGradient id="SVGID_18_" gradientUnits="userSpaceOnUse" x1="96.2485352" y1="40.8709221" x2="96.2485352" y2="37.6555901">
			<stop  offset="0" style="stop-color:#C1852B"/>
			<stop  offset="0.7198468" style="stop-color:#DFC124"/>
		</linearGradient>
		<path fill="url(#SVGID_18_)" d="M96.9868164,39.6873283c-0.0078125-0.0380859-0.0244141-0.0683594-0.0488281-0.0927734
			s-0.0654297-0.0361328-0.1220703-0.0361328h-1.0605469v0.5214844h1.8291016c0.0302734,0,0.0537109-0.0107422,0.0683594-0.03125
			c0.015625-0.0205078,0.0263672-0.0664062,0.0341797-0.1367188h0.0683594v0.9589844h-0.0683594
			c-0.0078125-0.0488281-0.0185547-0.078125-0.0341797-0.0898438c-0.0146484-0.0107422-0.0380859-0.0166016-0.0683594-0.0166016
			h-2.8427734V40.697094c0.0712891-0.0078125,0.1162109-0.0195312,0.1337891-0.0361328
			c0.0166016-0.0175781,0.0253906-0.0390625,0.0253906-0.0644531v-2.6152344c0-0.0263672-0.0087891-0.0478516-0.0253906-0.0649414
			c-0.0175781-0.0166016-0.0625-0.0288086-0.1337891-0.0361328v-0.0673828h2.8427734
			c0.0302734,0,0.0537109-0.0102539,0.0683594-0.0307617c0.015625-0.0209961,0.0263672-0.0629883,0.0341797-0.1264648h0.0683594
			v0.9760742h-0.0683594c-0.0078125-0.0634766-0.0185547-0.1054688-0.0341797-0.1259766
			c-0.0146484-0.0205078-0.0380859-0.0302734-0.0683594-0.0302734h-1.8291016v0.4648438h1.0605469
			c0.0566406,0,0.0976562-0.0117188,0.1220703-0.0361328s0.0410156-0.0546875,0.0488281-0.0927734h0.0683594v0.8759766H96.9868164z"
			/>
		<linearGradient id="SVGID_19_" gradientUnits="userSpaceOnUse" x1="99.9609375" y1="40.7810783" x2="99.9609375" y2="37.7791252">
			<stop  offset="0" style="stop-color:#C1852B"/>
			<stop  offset="0.7198468" style="stop-color:#DFC124"/>
		</linearGradient>
		<path fill="url(#SVGID_19_)" d="M98.7924805,39.6248283c-0.0068359,0.0224609-0.0107422,0.0625-0.0107422,0.1181641
			c0,0.0371094,0.0351562,0.0800781,0.1054688,0.1259766c0.0703125,0.046875,0.1611328,0.0908203,0.2734375,0.1318359
			c0.1113281,0.0419922,0.2402344,0.0761719,0.3847656,0.1044922c0.1435547,0.0283203,0.2900391,0.0419922,0.4384766,0.0419922
			c0.2851562,0,0.4931641-0.0332031,0.6269531-0.0986328c0.1328125-0.0654297,0.1992188-0.1591797,0.1992188-0.2832031
			c0-0.0673828-0.0576172-0.1152344-0.1738281-0.1425781c-0.1162109-0.0283203-0.2617188-0.0507812-0.4355469-0.0673828
			c-0.1748047-0.0175781-0.3632812-0.0361328-0.5644531-0.0566406s-0.3896484-0.0576172-0.5644531-0.1123047
			c-0.1748047-0.0537109-0.3193359-0.1328125-0.4355469-0.2353516s-0.1738281-0.2441406-0.1738281-0.4238281
			c0-0.1425781,0.0332031-0.2714844,0.0996094-0.3867188c0.0664062-0.1162109,0.1591797-0.2148438,0.2792969-0.2978516
			c0.1191406-0.0825195,0.2646484-0.1469727,0.4355469-0.1938477c0.1708984-0.0463867,0.3613281-0.0698242,0.5703125-0.0698242
			c0.1933594,0,0.3740234,0.012207,0.5410156,0.0361328c0.1669922,0.0244141,0.3154297,0.0517578,0.4443359,0.081543
			c0.1289062,0.0302734,0.2373047,0.0571289,0.3251953,0.081543c0.0869141,0.0244141,0.1494141,0.0361328,0.1875,0.0361328
			s0.0683594-0.0083008,0.0917969-0.0249023c0.0224609-0.0170898,0.0429688-0.0366211,0.0625-0.059082l0.0625,0.0224609
			l-0.3935547,0.7802734l-0.0683594-0.0332031v-0.0625c0-0.0332031-0.0361328-0.0683594-0.1103516-0.1035156
			s-0.1679688-0.0673828-0.2822266-0.0957031c-0.1142578-0.0273438-0.2412109-0.0507812-0.3818359-0.0703125
			c-0.140625-0.0185547-0.2773438-0.0273438-0.4101562-0.0273438c-0.2470703,0-0.4199219,0.0273438-0.5185547,0.0839844
			c-0.0986328,0.0556641-0.1484375,0.1152344-0.1484375,0.1796875c0,0.0634766,0.0341797,0.1113281,0.1025391,0.1425781
			c0.0683594,0.0322266,0.1582031,0.0556641,0.2675781,0.0703125c0.1103516,0.0146484,0.2363281,0.0273438,0.3769531,0.0361328
			c0.1396484,0.0097656,0.2841797,0.0234375,0.4326172,0.0419922c0.1484375,0.0195312,0.2919922,0.0449219,0.4326172,0.0791016
			c0.140625,0.0332031,0.2666016,0.0830078,0.3769531,0.1484375c0.109375,0.0654297,0.1992188,0.1513672,0.2675781,0.2578125
			c0.0683594,0.1074219,0.1025391,0.2412109,0.1025391,0.4013672c0,0.1240234-0.0253906,0.2451172-0.0771484,0.3652344
			s-0.1386719,0.2275391-0.2617188,0.3222656c-0.1240234,0.0957031-0.2890625,0.171875-0.4960938,0.2275391
			c-0.2070312,0.0566406-0.4648438,0.0839844-0.7724609,0.0839844c-0.2392578,0-0.4453125-0.0107422-0.6181641-0.0332031
			s-0.3193359-0.0498047-0.4414062-0.0820312c-0.1210938-0.03125-0.2177734-0.0605469-0.2880859-0.0869141
			c-0.0703125-0.0253906-0.1220703-0.0390625-0.15625-0.0390625c-0.0224609,0-0.0429688,0.0078125-0.0595703,0.0224609
			c-0.0175781,0.0146484-0.0351562,0.0322266-0.0546875,0.0507812l-0.0683594-0.0166016l0.421875-0.9990234L98.7924805,39.6248283z"
			/>
	</g>
	<g>
		
			<linearGradient id="SVGID_20_" gradientUnits="userSpaceOnUse" x1="115.9667969" y1="40.7810783" x2="115.9667969" y2="37.7791252">
			<stop  offset="0" style="stop-color:#C1852B"/>
			<stop  offset="0.7198468" style="stop-color:#DFC124"/>
		</linearGradient>
		<path fill="url(#SVGID_20_)" d="M117.0664062,38.862133c0.0039062-0.0117188,0.0068359-0.0234375,0.0087891-0.0361328
			c0.0014648-0.0136719,0.0024414-0.0292969,0.0024414-0.0478516c0-0.0302734-0.0253906-0.0605469-0.0766602-0.0898438
			c-0.0512695-0.0302734-0.1196289-0.0566406-0.2050781-0.0820312c-0.0854492-0.0234375-0.1835938-0.0449219-0.293457-0.0605469
			c-0.1103516-0.0175781-0.2260742-0.0253906-0.3476562-0.0253906c-0.1142578,0-0.2338867,0.0126953-0.3588867,0.0390625
			c-0.1254883,0.0253906-0.2402344,0.0683594-0.3447266,0.1289062c-0.1044922,0.0595703-0.1899414,0.1396484-0.2563477,0.2382812
			c-0.0668945,0.0996094-0.1000977,0.2197266-0.1000977,0.3623047c0,0.1416016,0.0332031,0.2626953,0.1000977,0.3613281
			c0.0664062,0.0996094,0.1518555,0.1787109,0.2563477,0.2392578c0.1044922,0.0595703,0.2192383,0.1025391,0.3447266,0.1289062
			c0.125,0.0263672,0.2446289,0.0390625,0.3588867,0.0390625c0.0493164,0,0.1269531-0.0087891,0.2333984-0.0253906
			s0.2128906-0.0400391,0.3193359-0.0703125c0.1064453-0.0292969,0.2001953-0.0634766,0.2822266-0.1005859
			c0.081543-0.0371094,0.1220703-0.0771484,0.1220703-0.1181641c0-0.0185547-0.003418-0.0332031-0.0112305-0.0449219
			c-0.0078125-0.0107422-0.0151367-0.0244141-0.0229492-0.0390625l0.0629883-0.0390625l0.5869141,0.8808594l-0.0683594,0.0390625
			c-0.0078125-0.0185547-0.0180664-0.0302734-0.03125-0.0361328c-0.0136719-0.0058594-0.0297852-0.0087891-0.0488281-0.0087891
			c-0.0263672,0-0.0795898,0.0166016-0.1591797,0.0478516c-0.0800781,0.0322266-0.1835938,0.0654297-0.3105469,0.1005859
			c-0.1274414,0.0361328-0.2763672,0.0673828-0.4477539,0.0957031c-0.1708984,0.0283203-0.362793,0.0419922-0.5751953,0.0419922
			c-0.2280273,0-0.4541016-0.0283203-0.6782227-0.0869141c-0.2241211-0.0576172-0.425293-0.1494141-0.6040039-0.2744141
			c-0.1787109-0.1259766-0.3227539-0.2832031-0.4331055-0.4716797c-0.1098633-0.1894531-0.1650391-0.4091797-0.1650391-0.6591797
			c0-0.2509766,0.0551758-0.4707031,0.1650391-0.6591797c0.1103516-0.1894531,0.2543945-0.3466797,0.4331055-0.4716797
			c0.1787109-0.1254883,0.3798828-0.2197266,0.6040039-0.2836914c0.2241211-0.0634766,0.4501953-0.0952148,0.6782227-0.0952148
			s0.4243164,0.012207,0.5898438,0.0361328c0.1650391,0.0244141,0.3046875,0.0517578,0.418457,0.081543
			c0.1103516,0.0302734,0.1958008,0.0551758,0.2568359,0.0756836c0.0605469,0.0205078,0.105957,0.0307617,0.1367188,0.0307617
			c0.0341797,0,0.0625-0.0146484,0.0854492-0.0444336l0.0625,0.0166016l-0.5126953,0.9257812L117.0664062,38.862133z"/>
		
			<linearGradient id="SVGID_21_" gradientUnits="userSpaceOnUse" x1="119.9580078" y1="40.8709221" x2="119.9580078" y2="37.6555901">
			<stop  offset="0" style="stop-color:#C1852B"/>
			<stop  offset="0.7198468" style="stop-color:#DFC124"/>
		</linearGradient>
		<path fill="url(#SVGID_21_)" d="M120.6958008,39.6873283c-0.0078125-0.0380859-0.0239258-0.0683594-0.0483398-0.0927734
			c-0.0249023-0.0244141-0.0654297-0.0361328-0.1225586-0.0361328h-1.0600586v0.5214844h1.8291016
			c0.0307617,0,0.0532227-0.0107422,0.0683594-0.03125s0.0268555-0.0664062,0.0341797-0.1367188h0.0688477v0.9589844h-0.0688477
			c-0.0073242-0.0488281-0.019043-0.078125-0.0341797-0.0898438c-0.0151367-0.0107422-0.0375977-0.0166016-0.0683594-0.0166016
			h-2.8432617V40.697094c0.0722656-0.0078125,0.1166992-0.0195312,0.1337891-0.0361328
			c0.0170898-0.0175781,0.0258789-0.0390625,0.0258789-0.0644531v-2.6152344c0-0.0263672-0.0087891-0.0478516-0.0258789-0.0649414
			c-0.0170898-0.0166016-0.0615234-0.0288086-0.1337891-0.0361328v-0.0673828h2.8432617
			c0.0307617,0,0.0532227-0.0102539,0.0683594-0.0307617c0.0151367-0.0209961,0.0268555-0.0629883,0.0341797-0.1264648h0.0688477
			v0.9760742h-0.0688477c-0.0073242-0.0634766-0.019043-0.1054688-0.0341797-0.1259766s-0.0375977-0.0302734-0.0683594-0.0302734
			h-1.8291016v0.4648438h1.0600586c0.0571289,0,0.0976562-0.0117188,0.1225586-0.0361328
			c0.0244141-0.0244141,0.0405273-0.0546875,0.0483398-0.0927734h0.0683594v0.8759766H120.6958008z"/>
		
			<linearGradient id="SVGID_22_" gradientUnits="userSpaceOnUse" x1="123.8242188" y1="40.893383" x2="123.8242188" y2="37.8128166">
			<stop  offset="0" style="stop-color:#C1852B"/>
			<stop  offset="0.7198468" style="stop-color:#DFC124"/>
		</linearGradient>
		<path fill="url(#SVGID_22_)" d="M125.2260742,40.0799065c0.0302734,0,0.0532227-0.0107422,0.0683594-0.03125
			s0.0263672-0.0625,0.0341797-0.1259766h0.0683594v0.9707031h-0.0683594
			c-0.0078125-0.0595703-0.019043-0.0966797-0.0341797-0.109375s-0.0380859-0.0195312-0.0683594-0.0195312h-2.9746094V40.697094
			c0.0722656-0.0078125,0.1166992-0.0195312,0.1337891-0.0361328c0.0170898-0.0175781,0.0258789-0.0390625,0.0258789-0.0644531
			v-2.6152344c0-0.0263672-0.0087891-0.0478516-0.0258789-0.0649414c-0.0170898-0.0166016-0.0615234-0.0288086-0.1337891-0.0361328
			v-0.0673828h1.1738281v0.0673828c-0.0722656,0.0073242-0.1166992,0.0195312-0.1337891,0.0361328
			c-0.0170898,0.0170898-0.0258789,0.0385742-0.0258789,0.0649414v2.0986328H125.2260742z"/>
		
			<linearGradient id="SVGID_23_" gradientUnits="userSpaceOnUse" x1="127.5595703" y1="40.8709221" x2="127.5595703" y2="37.6555901">
			<stop  offset="0" style="stop-color:#C1852B"/>
			<stop  offset="0.7198468" style="stop-color:#DFC124"/>
		</linearGradient>
		<path fill="url(#SVGID_23_)" d="M128.2973633,39.6873283c-0.0078125-0.0380859-0.0239258-0.0683594-0.0483398-0.0927734
			c-0.0249023-0.0244141-0.0654297-0.0361328-0.1225586-0.0361328h-1.0600586v0.5214844h1.8291016
			c0.0307617,0,0.0532227-0.0107422,0.0683594-0.03125s0.0268555-0.0664062,0.0341797-0.1367188h0.0688477v0.9589844h-0.0688477
			c-0.0073242-0.0488281-0.019043-0.078125-0.0341797-0.0898438c-0.0151367-0.0107422-0.0375977-0.0166016-0.0683594-0.0166016
			h-2.8432617V40.697094c0.0722656-0.0078125,0.1166992-0.0195312,0.1337891-0.0361328
			c0.0170898-0.0175781,0.0258789-0.0390625,0.0258789-0.0644531v-2.6152344c0-0.0263672-0.0087891-0.0478516-0.0258789-0.0649414
			c-0.0170898-0.0166016-0.0615234-0.0288086-0.1337891-0.0361328v-0.0673828h2.8432617
			c0.0307617,0,0.0532227-0.0102539,0.0683594-0.0307617c0.0151367-0.0209961,0.0268555-0.0629883,0.0341797-0.1264648h0.0688477
			v0.9760742h-0.0688477c-0.0073242-0.0634766-0.019043-0.1054688-0.0341797-0.1259766s-0.0375977-0.0302734-0.0683594-0.0302734
			h-1.8291016v0.4648438h1.0600586c0.0571289,0,0.0976562-0.0117188,0.1225586-0.0361328
			c0.0244141-0.0244141,0.0405273-0.0546875,0.0483398-0.0927734h0.0683594v0.8759766H128.2973633z"/>
		<linearGradient id="SVGID_24_" gradientUnits="userSpaceOnUse" x1="131.505127" y1="40.7644768" x2="131.505127" y2="37.8128166">
			<stop  offset="0" style="stop-color:#C1852B"/>
			<stop  offset="0.7198468" style="stop-color:#DFC124"/>
		</linearGradient>
		<path fill="url(#SVGID_24_)" d="M129.9892578,37.9812737c0-0.0263672-0.0083008-0.0478516-0.0253906-0.0649414
			c-0.0170898-0.0166016-0.0620117-0.0288086-0.1337891-0.0361328v-0.0673828h2.1708984
			c0.1557617,0,0.2978516,0.0146484,0.4272461,0.0449219c0.1289062,0.0297852,0.2412109,0.0756836,0.3359375,0.137207
			c0.0952148,0.0620117,0.1694336,0.1425781,0.2226562,0.2412109c0.0527344,0.0996094,0.0795898,0.2177734,0.0795898,0.3564453
			c0,0.1679688-0.0512695,0.3037109-0.1538086,0.4072266c-0.1025391,0.1025391-0.2338867,0.1708984-0.3930664,0.2041016v0.0117188
			c0.1933594,0.0527344,0.3520508,0.1328125,0.4755859,0.2412109s0.1850586,0.2675781,0.1850586,0.4775391
			c0,0.1113281-0.0214844,0.21875-0.0654297,0.3193359c-0.043457,0.1015625-0.1118164,0.1894531-0.2050781,0.2636719
			c-0.0932617,0.0751953-0.2128906,0.1347656-0.3588867,0.1796875c-0.1464844,0.0449219-0.3203125,0.0673828-0.5214844,0.0673828
			h-2.1992188V40.697094c0.0717773-0.0078125,0.1166992-0.0195312,0.1337891-0.0361328
			c0.0170898-0.0175781,0.0253906-0.0390625,0.0253906-0.0644531V37.9812737z M131.6191406,38.9236565
			c0.121582,0,0.222168-0.0029297,0.3017578-0.0078125c0.0800781-0.0058594,0.1425781-0.0185547,0.1879883-0.0371094
			c0.0458984-0.0185547,0.078125-0.0449219,0.097168-0.078125c0.019043-0.0341797,0.0283203-0.0791016,0.0283203-0.1347656
			s-0.0092773-0.1005859-0.0283203-0.1347656s-0.0512695-0.0595703-0.097168-0.0791016
			c-0.0454102-0.0175781-0.1079102-0.0302734-0.1879883-0.0361328c-0.0795898-0.0048828-0.1801758-0.0087891-0.3017578-0.0087891
			h-0.7749023v0.5166016H131.6191406z M131.8129883,40.1697502c0.2050781,0,0.3491211-0.0253906,0.4331055-0.0761719
			c0.0834961-0.0498047,0.125-0.1367188,0.125-0.2607422c0-0.1230469-0.0415039-0.2099609-0.125-0.2607422
			c-0.0839844-0.0507812-0.2280273-0.0761719-0.4331055-0.0761719h-0.96875v0.6738281H131.8129883z"/>
		<linearGradient id="SVGID_25_" gradientUnits="userSpaceOnUse" x1="135.621582" y1="40.7644768" x2="135.621582" y2="37.8128166">
			<stop  offset="0" style="stop-color:#C1852B"/>
			<stop  offset="0.7198468" style="stop-color:#DFC124"/>
		</linearGradient>
		<path fill="url(#SVGID_25_)" d="M134.9804688,40.596508c0,0.0253906,0.0087891,0.046875,0.0258789,0.0644531
			c0.0170898,0.0166016,0.0615234,0.0283203,0.1337891,0.0361328v0.0673828h-1.1738281V40.697094
			c0.0722656-0.0078125,0.1166992-0.0195312,0.1337891-0.0361328c0.0170898-0.0175781,0.0258789-0.0390625,0.0258789-0.0644531
			v-2.6152344c0-0.0263672-0.0087891-0.0478516-0.0258789-0.0649414c-0.0170898-0.0166016-0.0615234-0.0288086-0.1337891-0.0361328
			v-0.0673828h2.0854492c0.421875,0,0.7275391,0.0756836,0.9174805,0.2270508s0.2851562,0.3867188,0.2851562,0.7050781
			c0,0.2578125-0.0771484,0.4589844-0.230957,0.6054688c-0.1538086,0.1455078-0.3486328,0.2509766-0.5839844,0.3144531
			l0.6723633,0.9316406c0.0454102,0.0673828,0.1005859,0.1005859,0.1650391,0.1005859v0.0673828h-1.1850586V40.697094
			c0.0834961-0.0039062,0.1254883-0.0371094,0.1254883-0.1005859c0-0.0078125-0.0151367-0.0341797-0.0458984-0.0791016
			c-0.0302734-0.0449219-0.0683594-0.0986328-0.1137695-0.1621094c-0.0454102-0.0644531-0.0961914-0.1328125-0.1508789-0.2050781
			c-0.0551758-0.0732422-0.1083984-0.1435547-0.159668-0.2109375s-0.0961914-0.1269531-0.1337891-0.1796875
			c-0.0380859-0.0517578-0.0629883-0.0878906-0.0742188-0.1064453h-0.5585938V40.596508z M135.9379883,39.0584221
			c0.1669922,0,0.2822266-0.03125,0.3447266-0.0927734s0.0942383-0.1337891,0.0942383-0.2158203
			s-0.0317383-0.1542969-0.0942383-0.2158203c-0.0625-0.0625-0.1777344-0.0927734-0.3447266-0.0927734h-0.9575195v0.6171875
			H135.9379883z"/>
		
			<linearGradient id="SVGID_26_" gradientUnits="userSpaceOnUse" x1="138.7304688" y1="40.7644768" x2="138.7304688" y2="37.8128166">
			<stop  offset="0" style="stop-color:#C1852B"/>
			<stop  offset="0.7198468" style="stop-color:#DFC124"/>
		</linearGradient>
		<path fill="url(#SVGID_26_)" d="M138.1435547,40.697094c0.0717773-0.0078125,0.1166992-0.0195312,0.1337891-0.0361328
			c0.0170898-0.0175781,0.0253906-0.0390625,0.0253906-0.0644531v-2.6152344c0-0.0263672-0.0083008-0.0478516-0.0253906-0.0649414
			c-0.0170898-0.0166016-0.0620117-0.0288086-0.1337891-0.0361328v-0.0673828h1.1738281v0.0673828
			c-0.0722656,0.0073242-0.1171875,0.0195312-0.1342773,0.0361328c-0.0170898,0.0170898-0.0253906,0.0385742-0.0253906,0.0649414
			v2.6152344c0,0.0253906,0.0083008,0.046875,0.0253906,0.0644531c0.0170898,0.0166016,0.0620117,0.0283203,0.1342773,0.0361328
			v0.0673828h-1.1738281V40.697094z"/>
		
			<linearGradient id="SVGID_27_" gradientUnits="userSpaceOnUse" x1="141.5734863" y1="40.7644768" x2="141.5734863" y2="37.6555901">
			<stop  offset="0" style="stop-color:#C1852B"/>
			<stop  offset="0.7198468" style="stop-color:#DFC124"/>
		</linearGradient>
		<path fill="url(#SVGID_27_)" d="M140.9863281,40.697094c0.0722656-0.0078125,0.1171875-0.0195312,0.1342773-0.0361328
			c0.0170898-0.0175781,0.0253906-0.0390625,0.0253906-0.0644531v-2.0996094h-0.9799805
			c-0.0307617,0-0.0532227,0.0107422-0.0683594,0.03125s-0.0268555,0.0625-0.0341797,0.1269531h-0.0683594v-0.9995117h0.0683594
			c0.0073242,0.0634766,0.019043,0.1054688,0.0341797,0.1264648c0.0151367,0.0205078,0.0375977,0.0307617,0.0683594,0.0307617
			h2.8149414c0.0302734,0,0.0532227-0.0102539,0.0683594-0.0307617c0.0151367-0.0209961,0.0263672-0.0629883,0.0341797-0.1264648
			h0.0683594v0.9995117h-0.0683594c-0.0078125-0.0644531-0.019043-0.1064453-0.0341797-0.1269531
			s-0.0380859-0.03125-0.0683594-0.03125h-0.9804688v2.0996094c0,0.0253906,0.0087891,0.046875,0.0258789,0.0644531
			c0.0170898,0.0166016,0.0615234,0.0283203,0.1337891,0.0361328v0.0673828h-1.1738281V40.697094z"/>
		
			<linearGradient id="SVGID_28_" gradientUnits="userSpaceOnUse" x1="145.2199707" y1="40.7644768" x2="145.2199707" y2="37.8128166">
			<stop  offset="0" style="stop-color:#C1852B"/>
			<stop  offset="0.7198468" style="stop-color:#DFC124"/>
		</linearGradient>
		<path fill="url(#SVGID_28_)" d="M146.9008789,37.8128166v0.0673828c-0.0302734,0-0.0561523,0.0102539-0.0766602,0.0307617
			c-0.0209961,0.0205078-0.0410156,0.0439453-0.0600586,0.0703125l-1.09375,1.5205078v1.0947266
			c0,0.0253906,0.0083008,0.046875,0.0253906,0.0644531c0.0170898,0.0166016,0.0615234,0.0283203,0.1337891,0.0361328v0.0673828
			h-1.1738281V40.697094c0.0722656-0.0078125,0.1171875-0.0195312,0.1342773-0.0361328
			c0.0170898-0.0175781,0.0253906-0.0390625,0.0253906-0.0644531v-0.9882812l-1.0883789-1.5371094
			c-0.0605469-0.0864258-0.1005859-0.1396484-0.1196289-0.1601562s-0.0419922-0.0307617-0.0683594-0.0307617v-0.0673828h1.253418
			v0.0673828c-0.0341797,0-0.0664062,0.003418-0.0966797,0.0112305c-0.0302734,0.0073242-0.0454102,0.0258789-0.0454102,0.0561523
			c0,0.0146484,0.0244141,0.0595703,0.0737305,0.1342773c0.0493164,0.0751953,0.1074219,0.1611328,0.1738281,0.2587891
			c0.0664062,0.0966797,0.1357422,0.1953125,0.2080078,0.296875s0.1313477,0.1875,0.1767578,0.2578125
			c0.0112305-0.0185547,0.0361328-0.0527344,0.0742188-0.1035156c0.0375977-0.0507812,0.0805664-0.109375,0.1279297-0.1767578
			c0.0478516-0.0673828,0.0991211-0.1376953,0.1538086-0.2138672c0.0551758-0.0742188,0.1044922-0.1425781,0.1484375-0.2070312
			c0.043457-0.0634766,0.0805664-0.1191406,0.1108398-0.1655273c0.0307617-0.046875,0.0458984-0.0737305,0.0458984-0.0810547
			c0-0.0302734-0.0141602-0.0488281-0.0429688-0.0561523c-0.0283203-0.0078125-0.0561523-0.0112305-0.0825195-0.0112305v-0.0673828
			H146.9008789z"/>
		<linearGradient id="SVGID_29_" gradientUnits="userSpaceOnUse" x1="150.861084" y1="40.7644768" x2="150.861084" y2="37.6555901">
			<stop  offset="0" style="stop-color:#C1852B"/>
			<stop  offset="0.7198468" style="stop-color:#DFC124"/>
		</linearGradient>
		<path fill="url(#SVGID_29_)" d="M152.3369141,38.6316643c-0.0073242-0.0527344-0.019043-0.0878906-0.0341797-0.1064453
			s-0.0380859-0.0283203-0.0683594-0.0283203h-1.8803711v0.5h1.2651367c0.0302734,0,0.0532227-0.0087891,0.0683594-0.0253906
			s0.0263672-0.0517578,0.0341797-0.1035156h0.0683594v0.9423828h-0.0683594
			c-0.0078125-0.0634766-0.019043-0.1044922-0.0341797-0.1230469s-0.0380859-0.0283203-0.0683594-0.0283203h-1.2651367v0.9375
			c0,0.0253906,0.0087891,0.046875,0.0258789,0.0644531c0.0170898,0.0166016,0.0615234,0.0283203,0.1337891,0.0361328v0.0673828
			h-1.1967773V40.697094c0.0722656-0.0078125,0.1166992-0.0195312,0.1337891-0.0361328
			c0.0170898-0.0175781,0.0258789-0.0390625,0.0258789-0.0644531v-2.6152344c0-0.0263672-0.0087891-0.0478516-0.0258789-0.0649414
			c-0.0170898-0.0166016-0.0615234-0.0288086-0.1337891-0.0361328v-0.0673828h2.9174805
			c0.0302734,0,0.0532227-0.0102539,0.0683594-0.0307617c0.0151367-0.0209961,0.0268555-0.0629883,0.0341797-0.1264648h0.0683594
			v0.9760742H152.3369141z"/>
		
			<linearGradient id="SVGID_30_" gradientUnits="userSpaceOnUse" x1="153.7675781" y1="40.7644768" x2="153.7675781" y2="37.8128166">
			<stop  offset="0" style="stop-color:#C1852B"/>
			<stop  offset="0.7198468" style="stop-color:#DFC124"/>
		</linearGradient>
		<path fill="url(#SVGID_30_)" d="M153.1806641,40.697094c0.0717773-0.0078125,0.1166992-0.0195312,0.1337891-0.0361328
			c0.0170898-0.0175781,0.0253906-0.0390625,0.0253906-0.0644531v-2.6152344c0-0.0263672-0.0083008-0.0478516-0.0253906-0.0649414
			c-0.0170898-0.0166016-0.0620117-0.0288086-0.1337891-0.0361328v-0.0673828h1.1738281v0.0673828
			c-0.0722656,0.0073242-0.1171875,0.0195312-0.1342773,0.0361328c-0.0170898,0.0170898-0.0253906,0.0385742-0.0253906,0.0649414
			v2.6152344c0,0.0253906,0.0083008,0.046875,0.0253906,0.0644531c0.0170898,0.0166016,0.0620117,0.0283203,0.1342773,0.0361328
			v0.0673828h-1.1738281V40.697094z"/>
		
			<linearGradient id="SVGID_31_" gradientUnits="userSpaceOnUse" x1="157.0947266" y1="40.7644768" x2="157.0947266" y2="37.8128166">
			<stop  offset="0" style="stop-color:#C1852B"/>
			<stop  offset="0.7198468" style="stop-color:#DFC124"/>
		</linearGradient>
		<path fill="url(#SVGID_31_)" d="M155.4936523,37.9812737c0-0.0263672-0.0087891-0.0478516-0.0258789-0.0649414
			c-0.0170898-0.0166016-0.0615234-0.0288086-0.1337891-0.0361328v-0.0673828h1.3735352v0.0673828
			c-0.0649414,0.003418-0.1074219,0.012207-0.128418,0.0249023c-0.0209961,0.0131836-0.03125,0.0292969-0.03125,0.0478516
			c0,0.0073242,0.0244141,0.0410156,0.0742188,0.1010742c0.0493164,0.0600586,0.1137695,0.1342773,0.1933594,0.2241211
			c0.0800781,0.0898438,0.1699219,0.1904297,0.2709961,0.3007812c0.1005859,0.1103516,0.2021484,0.2207031,0.3046875,0.3310547
			s0.2011719,0.2148438,0.2963867,0.3144531c0.0947266,0.0986328,0.1767578,0.1835938,0.2451172,0.2548828v-1.4980469
			c0-0.0639648-0.0400391-0.0976562-0.1196289-0.1010742v-0.0673828h1.0424805v0.0673828
			c-0.0722656,0.0073242-0.1166992,0.0195312-0.1337891,0.0361328c-0.0170898,0.0170898-0.0258789,0.0385742-0.0258789,0.0649414
			v2.6152344c0,0.0253906,0.0087891,0.046875,0.0258789,0.0644531c0.0170898,0.0166016,0.0615234,0.0283203,0.1337891,0.0361328
			v0.0673828h-1.0825195V40.697094c0.0532227,0,0.0883789-0.0058594,0.1054688-0.0166016
			c0.0170898-0.0117188,0.0253906-0.0263672,0.0253906-0.0449219c0-0.0117188-0.0053711-0.0253906-0.0170898-0.0419922
			c-0.0112305-0.0175781-0.0361328-0.0458984-0.0737305-0.0869141c-0.0380859-0.0410156-0.0942383-0.1005859-0.168457-0.1767578
			c-0.0737305-0.0771484-0.171875-0.1796875-0.293457-0.3085938c-0.121582-0.1298828-0.2714844-0.2900391-0.4501953-0.4833984
			c-0.1782227-0.1923828-0.3930664-0.4267578-0.6435547-0.7041016v1.7626953c0,0.0253906,0.0083008,0.046875,0.0253906,0.0644531
			c0.0170898,0.0166016,0.0620117,0.0283203,0.1337891,0.0361328v0.0673828h-1.0825195V40.697094
			c0.0722656-0.0078125,0.1166992-0.0195312,0.1337891-0.0361328c0.0170898-0.0175781,0.0258789-0.0390625,0.0258789-0.0644531
			V37.9812737z"/>
		
			<linearGradient id="SVGID_32_" gradientUnits="userSpaceOnUse" x1="161.2744141" y1="40.8709221" x2="161.2744141" y2="37.6555901">
			<stop  offset="0" style="stop-color:#C1852B"/>
			<stop  offset="0.7198468" style="stop-color:#DFC124"/>
		</linearGradient>
		<path fill="url(#SVGID_32_)" d="M162.012207,39.6873283c-0.0078125-0.0380859-0.0239258-0.0683594-0.0483398-0.0927734
			c-0.0249023-0.0244141-0.0654297-0.0361328-0.1225586-0.0361328H160.78125v0.5214844h1.8291016
			c0.0307617,0,0.0532227-0.0107422,0.0683594-0.03125s0.0268555-0.0664062,0.0341797-0.1367188h0.0688477v0.9589844h-0.0688477
			c-0.0073242-0.0488281-0.019043-0.078125-0.0341797-0.0898438c-0.0151367-0.0107422-0.0375977-0.0166016-0.0683594-0.0166016
			h-2.8432617V40.697094c0.0722656-0.0078125,0.1166992-0.0195312,0.1337891-0.0361328
			c0.0170898-0.0175781,0.0258789-0.0390625,0.0258789-0.0644531v-2.6152344c0-0.0263672-0.0087891-0.0478516-0.0258789-0.0649414
			c-0.0170898-0.0166016-0.0615234-0.0288086-0.1337891-0.0361328v-0.0673828h2.8432617
			c0.0307617,0,0.0532227-0.0102539,0.0683594-0.0307617c0.0151367-0.0209961,0.0268555-0.0629883,0.0341797-0.1264648h0.0688477
			v0.9760742h-0.0688477c-0.0073242-0.0634766-0.019043-0.1054688-0.0341797-0.1259766s-0.0375977-0.0302734-0.0683594-0.0302734
			H160.78125v0.4648438h1.0600586c0.0571289,0,0.0976562-0.0117188,0.1225586-0.0361328
			c0.0244141-0.0244141,0.0405273-0.0546875,0.0483398-0.0927734h0.0683594v0.8759766H162.012207z"/>
		
			<linearGradient id="SVGID_33_" gradientUnits="userSpaceOnUse" x1="166.9008789" y1="40.7644768" x2="166.9008789" y2="37.8128166">
			<stop  offset="0" style="stop-color:#C1852B"/>
			<stop  offset="0.7198468" style="stop-color:#DFC124"/>
		</linearGradient>
		<path fill="url(#SVGID_33_)" d="M165.9833984,40.6414299c0,0.0185547,0.0068359,0.0322266,0.0205078,0.0419922
			c0.0126953,0.0087891,0.0400391,0.0136719,0.0820312,0.0136719v0.0673828h-1.0087891V40.697094
			c0.0419922-0.0078125,0.0722656-0.0195312,0.0917969-0.0361328c0.0185547-0.0175781,0.0380859-0.0478516,0.0566406-0.0927734
			c0.0078125-0.0185547,0.0263672-0.0693359,0.0576172-0.1513672c0.0302734-0.0830078,0.0693359-0.1865234,0.1191406-0.3115234
			c0.0498047-0.1259766,0.1044922-0.2646484,0.1650391-0.4179688s0.1220703-0.3095703,0.1826172-0.46875
			s0.1201172-0.3144531,0.1796875-0.4658203c0.0585938-0.1523438,0.1113281-0.2871094,0.15625-0.40625
			c0.0458984-0.1210938,0.0830078-0.2177734,0.1113281-0.2924805s0.0429688-0.1142578,0.0429688-0.1176758
			c0-0.019043-0.0126953-0.0317383-0.0371094-0.0395508c-0.0244141-0.0073242-0.0507812-0.0131836-0.0771484-0.0166016v-0.0673828
			h1.4873047v0.0673828c-0.0302734,0.003418-0.0546875,0.0092773-0.0742188,0.0166016
			c-0.0185547,0.0078125-0.0283203,0.0263672-0.0283203,0.0561523c0,0.0073242,0.0175781,0.0561523,0.0537109,0.1455078
			c0.0361328,0.0898438,0.0830078,0.2070312,0.1396484,0.3515625c0.0576172,0.1435547,0.1230469,0.3066406,0.1972656,0.4882812
			c0.0742188,0.1806641,0.1503906,0.3662109,0.2304688,0.5546875c0.0800781,0.1894531,0.15625,0.3740234,0.2304688,0.5527344
			c0.0742188,0.1796875,0.1416016,0.3408203,0.2021484,0.4833984c0.03125,0.0673828,0.0566406,0.1123047,0.0771484,0.1347656
			c0.0214844,0.0224609,0.0488281,0.0332031,0.0830078,0.0332031v0.0673828h-1.1230469V40.697094
			c0.0722656-0.0039062,0.1083984-0.0263672,0.1083984-0.0673828c0-0.0039062-0.0097656-0.0292969-0.0283203-0.0751953
			c-0.0185547-0.046875-0.0400391-0.0996094-0.0625-0.1572266c-0.0234375-0.0585938-0.0449219-0.1132812-0.0654297-0.1660156
			c-0.0214844-0.0527344-0.0332031-0.0878906-0.0371094-0.1064453h-1.3505859
			c-0.0380859,0.1005859-0.0683594,0.1835938-0.0908203,0.2470703c-0.0234375,0.0634766-0.0410156,0.1142578-0.0546875,0.1513672
			s-0.0224609,0.0644531-0.0283203,0.0810547S165.9833984,40.6336174,165.9833984,40.6414299z M167.3681641,39.6756096
			l-0.5527344-1.3349609l-0.5068359,1.3349609H167.3681641z"/>
		
			<linearGradient id="SVGID_34_" gradientUnits="userSpaceOnUse" x1="171.0742188" y1="40.7644768" x2="171.0742188" y2="37.8128166">
			<stop  offset="0" style="stop-color:#C1852B"/>
			<stop  offset="0.7198468" style="stop-color:#DFC124"/>
		</linearGradient>
		<path fill="url(#SVGID_34_)" d="M170.4326172,40.596508c0,0.0253906,0.0097656,0.046875,0.0253906,0.0644531
			c0.0175781,0.0166016,0.0625,0.0283203,0.1347656,0.0361328v0.0673828h-1.1738281V40.697094
			c0.0722656-0.0078125,0.1171875-0.0195312,0.1337891-0.0361328c0.0166016-0.0175781,0.0263672-0.0390625,0.0263672-0.0644531
			v-2.6152344c0-0.0263672-0.0097656-0.0478516-0.0263672-0.0649414c-0.0166016-0.0166016-0.0615234-0.0288086-0.1337891-0.0361328
			v-0.0673828h2.0859375c0.421875,0,0.7265625,0.0756836,0.9179688,0.2270508
			c0.1894531,0.1513672,0.2832031,0.3867188,0.2832031,0.7050781c0,0.2578125-0.0761719,0.4589844-0.2304688,0.6054688
			c-0.1542969,0.1455078-0.3476562,0.2509766-0.5839844,0.3144531l0.671875,0.9316406
			c0.046875,0.0673828,0.1015625,0.1005859,0.1660156,0.1005859v0.0673828h-1.1855469V40.697094
			c0.0839844-0.0039062,0.125-0.0371094,0.125-0.1005859c0-0.0078125-0.0136719-0.0341797-0.0449219-0.0791016
			c-0.0292969-0.0449219-0.0683594-0.0986328-0.1132812-0.1621094c-0.046875-0.0644531-0.0957031-0.1328125-0.1523438-0.2050781
			c-0.0546875-0.0732422-0.1074219-0.1435547-0.1582031-0.2109375s-0.0957031-0.1269531-0.1347656-0.1796875
			c-0.0371094-0.0517578-0.0625-0.0878906-0.0742188-0.1064453h-0.5585938V40.596508z M171.3896484,39.0584221
			c0.1679688,0,0.2832031-0.03125,0.3457031-0.0927734s0.09375-0.1337891,0.09375-0.2158203s-0.03125-0.1542969-0.09375-0.2158203
			c-0.0625-0.0625-0.1777344-0.0927734-0.3457031-0.0927734h-0.9570312v0.6171875H171.3896484z"/>
		<linearGradient id="SVGID_35_" gradientUnits="userSpaceOnUse" x1="174.809082" y1="40.7644768" x2="174.809082" y2="37.6555901">
			<stop  offset="0" style="stop-color:#C1852B"/>
			<stop  offset="0.7198468" style="stop-color:#DFC124"/>
		</linearGradient>
		<path fill="url(#SVGID_35_)" d="M174.2226562,40.697094c0.0712891-0.0078125,0.1162109-0.0195312,0.1337891-0.0361328
			c0.0166016-0.0175781,0.0253906-0.0390625,0.0253906-0.0644531v-2.0996094h-0.9804688
			c-0.0302734,0-0.0527344,0.0107422-0.0683594,0.03125c-0.0146484,0.0205078-0.0263672,0.0625-0.0341797,0.1269531h-0.0683594
			v-0.9995117h0.0683594c0.0078125,0.0634766,0.0195312,0.1054688,0.0341797,0.1264648
			c0.015625,0.0205078,0.0380859,0.0307617,0.0683594,0.0307617h2.8154297c0.0302734,0,0.0527344-0.0102539,0.0683594-0.0307617
			c0.0146484-0.0209961,0.0263672-0.0629883,0.0341797-0.1264648h0.0683594v0.9995117h-0.0683594
			c-0.0078125-0.0644531-0.0195312-0.1064453-0.0341797-0.1269531c-0.015625-0.0205078-0.0380859-0.03125-0.0683594-0.03125
			h-0.9804688v2.0996094c0,0.0253906,0.0087891,0.046875,0.0263672,0.0644531
			c0.0166016,0.0166016,0.0615234,0.0283203,0.1337891,0.0361328v0.0673828h-1.1738281V40.697094z"/>
	</g>
	
		<linearGradient id="SVGID_36_" gradientUnits="userSpaceOnUse" x1="103.9042664" y1="42.3418541" x2="110.9940338" y2="42.3418541">
		<stop  offset="0" style="stop-color:#C1852B"/>
		<stop  offset="0.7198468" style="stop-color:#DFC124"/>
	</linearGradient>
	<path fill-rule="evenodd" clip-rule="evenodd" fill="url(#SVGID_36_)" d="M108.1719666,42.2885246l-0.0474014-1.222374
		c1.969017-0.8065491,2.8975906-2.1320496,2.8688202-3.4400291c-0.0067825-0.3132439-0.1003799-0.6975708-0.3429489-1.0033531
		c-0.1685715-0.2127686-0.3402252-0.3683701-0.818779-0.2409439c-0.3521423,0.0938148-0.6484985,0.2849922-0.8524704,0.4425697
		c-0.3488388,0.2696037-0.5941238,0.5688438-0.7920074,0.8788681c-0.3896255,0.6099548-0.5304642,1.2712975-0.4888992,1.9148178
		c0.0092468,0.1442261,0.0228119,0.2876854,0.040329,0.4315605c-0.9384537,0.4289322-1.902298,0.8375435-2.6598892,1.3655052
		c-0.7637711,0.5321693-1.1944427,1.1644249-1.1737366,1.8389244c0.0364838,1.181778,1.5825577,2.4916954,3.9698029,2.4881668
		c0.0298004,0.3525047,0.0579834,0.7049942,0.0840378,1.0578117c0.0208206,0.2828598-0.0197525,0.6069679-0.2461319,0.8673515
		c-0.2354736,0.2705002-0.6309433,0.4174843-1.1875534,0.441864c-0.6086121,0.0268021-1.1223145-0.1353531-1.3514023-0.4390793
		c1.3725128,0.2193947,1.5301361-0.8282738,0.6783752-1.1866951c-0.4036713-0.1698875-0.9553986-0.108078-1.2656631,0.1006088
		c-0.375412,0.2525291-0.4642944,0.5848923-0.2813568,0.8913727c0.3665848,0.6138535,1.8179779,1.0725594,2.9563446,0.7840538
		c1.2057877-0.305584,1.0674896-1.1235313,1.0439682-1.7202377c-0.0109863-0.2764664-0.018074-0.5529289-0.0262604-0.829422
		c0.6120224-0.0542183,1.1604538-0.1725769,1.5851364-0.4260254c0.4243393-0.2531357,0.6479645-0.5644836,0.774498-0.8941193
		c0.2319336-0.6034775-0.0816345-1.3008804-0.881485-1.7447243
		C109.3292847,42.407608,108.7699203,42.3080559,108.1719666,42.2885246z M106.1977844,45.2943153
		c-0.5467911-0.1852722-0.9635849-0.4161148-1.274437-0.7230606c-0.5604324-0.5542488-0.5123825-1.2311211-0.0186234-1.7921486
		c0.5963821-0.6777229,1.723175-1.160656,2.8544235-1.568428l0.0188065,1.0897102
		c-1.0643845,0.1532631-1.7226639,0.6272545-1.9582367,1.1928368c-0.2310257,0.5547752,0.3679657,1.0741653,1.2070541,1.3546944
		c0.0106812-0.0203667,0.0151215-0.0416565,0.0106735-0.0623322c-0.0051498-0.0249977-0.0199509-0.0345726-0.054718-0.0495033
		c-1.1100998-0.4783669-0.6170883-1.5454369,0.8349838-1.6282234l0.0589676,2.3983269
		C107.2876511,45.5042343,106.7086639,45.467247,106.1977844,45.2943153z M108.4413986,38.4680176
		c0.2562485-0.352253,0.8066101-1.1460419,1.7301483-1.0436211c0.4718704,0.0612793,0.4159775,0.393856,0.3593445,0.593338
		c-0.0762253,0.2663155-0.2818756,0.5113068-0.5206451,0.7454529c-0.2296219,0.2252731-0.5169601,0.4355316-0.8267822,0.630394
		c-0.3039246,0.1909904-0.6546478,0.3986549-1.0810242,0.5094032
		C107.9610519,39.4153214,108.10849,38.9251328,108.4413986,38.4680176z M109.7342987,44.5445938
		c-0.0856171,0.2074814-0.1940613,0.4283142-0.4450836,0.5973892c-0.2881851,0.1942253-0.5955429,0.2855301-1.037117,0.3484344
		l-0.0711212-2.3666687c0.3983078,0.0582008,0.7157822,0.1589165,1.0012207,0.3200722l0.0000305-0.0000076
		C109.6320648,43.7361488,109.8906555,44.165493,109.7342987,44.5445938z"/>
</g>
</svg>
